<?xml version="1.0" encoding="utf-8"?>
<!-- Generator: Adobe Illustrator 16.0.0, SVG Export Plug-In . SVG Version: 6.00 Build 0)  -->
<!DOCTYPE svg PUBLIC "-//W3C//DTD SVG 1.1//EN" "http://www.w3.org/Graphics/SVG/1.1/DTD/svg11.dtd">
<svg version="1.1" id="Warstwa_1" xmlns="http://www.w3.org/2000/svg" xmlns:xlink="http://www.w3.org/1999/xlink" x="0px" y="0px"
	 width="100px" height="58.33px" viewBox="0 0 100 58.33" enable-background="new 0 0 100 58.33" xml:space="preserve">
<g>
	<g id="SLOVAKIA_2_">
		<g>
			<g>
				<defs>
					<rect id="SVGID_1_" width="99.999" height="58.33"/>
				</defs>
				<clipPath id="SVGID_2_">
					<use xlink:href="#SVGID_1_"  overflow="visible"/>
				</clipPath>
				<rect clip-path="url(#SVGID_2_)" fill="#FFFFFF" width="99.999" height="58.33"/>
				<rect y="19.442" clip-path="url(#SVGID_2_)" fill="#30418E" width="99.999" height="38.887"/>
				<rect y="38.884" clip-path="url(#SVGID_2_)" fill="#BC1332" width="99.999" height="19.445"/>
				<g clip-path="url(#SVGID_2_)">
					<defs>
						<rect id="SVGID_3_" width="99.999" height="58.33"/>
					</defs>
					<clipPath id="SVGID_4_">
						<use xlink:href="#SVGID_3_"  overflow="visible"/>
					</clipPath>
					<path clip-path="url(#SVGID_4_)" fill="#FFFFFF" d="M15.119,13.71c-1.164,0.09-0.838,1.513-0.978,2.319
						c-0.425,5.581-0.995,11.336,0.71,16.771c1.339,4.376,4.557,7.996,8.45,10.329c0.949,0.533,1.886,1.205,2.945,1.493
						c1.117-0.314,2.095-1.012,3.09-1.577c3.835-2.331,6.966-5.921,8.304-10.245c1.734-5.522,1.117-11.376,0.692-17.042
						c-0.064-0.783,0.052-2.133-1.1-2.048H15.119z"/>
					<path clip-path="url(#SVGID_4_)" fill="#BC1332" d="M26.245,14.577v29.167c-13.489-6.535-12.011-17.35-11.126-29.167H26.245z
						 M26.245,14.577v29.167c13.489-6.535,12.011-17.35,11.126-29.167H26.245z"/>
					<path clip-path="url(#SVGID_4_)" fill="#FFFFFF" d="M27.822,22.576c1.414,0,2.863,0.262,4.254,0.539
						c-0.407-1.35-0.407-2.179,0-3.532c-1.391,0.279-2.84,0.538-4.254,0.538h-3.154c-1.414,0-2.857-0.259-4.254-0.538
						c0.407,1.353,0.407,2.182,0,3.532c1.396-0.276,2.84-0.539,4.254-0.539H27.822z"/>
					<path clip-path="url(#SVGID_4_)" fill="#FFFFFF" d="M29.044,27.892c1.426,0,2.863,0.256,4.254,0.536
						c-0.407-1.353-0.407-2.179,0-3.532c-1.391,0.276-2.828,0.535-4.254,0.535h-5.592c-1.432,0-2.875-0.259-4.26-0.535
						c0.402,1.353,0.402,2.179,0,3.532c1.385-0.279,2.828-0.536,4.26-0.536H29.044z"/>
					<path clip-path="url(#SVGID_4_)" fill="#FFFFFF" d="M24.464,15.698c0.291,1.388,0.553,2.822,0.553,4.236V38h2.461V19.934
						c0-1.414,0.256-2.849,0.542-4.236C26.658,16.111,25.826,16.111,24.464,15.698"/>
					<path clip-path="url(#SVGID_4_)" fill="#30418E" d="M20.641,33.615c-1.589,0-2.881,1.292-2.881,2.875
						c0,0.125,0.006,0.242,0.029,0.358c0.553,0.823,1.21,1.609,1.955,2.377c0.279,0.087,0.582,0.151,0.896,0.151
						c1.612,0,2.904-1.292,2.904-2.886C23.545,34.907,22.253,33.615,20.641,33.615"/>
					<path clip-path="url(#SVGID_4_)" fill="#30418E" d="M26.245,31.91c-2.031,0-3.684,1.652-3.684,3.675
						c0,2.019,1.652,3.663,3.684,3.663c2.031,0,3.684-1.644,3.684-3.663C29.929,33.563,28.276,31.91,26.245,31.91"/>
					<path clip-path="url(#SVGID_4_)" fill="#30418E" d="M31.843,33.615c-1.589,0-2.887,1.292-2.887,2.875
						c0,1.595,1.298,2.886,2.887,2.886c0.326,0,0.617-0.064,0.896-0.151c0.756-0.769,1.414-1.557,1.967-2.383
						c0.018-0.11,0.041-0.23,0.041-0.352C34.747,34.907,33.438,33.615,31.843,33.615"/>
					<path clip-path="url(#SVGID_4_)" fill="#30418E" d="M18.232,37.473c1.781,2.366,4.324,4.487,8.013,6.273
						c3.695-1.787,6.232-3.908,8.007-6.273H18.232z"/>
				</g>
			</g>
		</g>
	</g>
	<rect fill="none" stroke="#000000" stroke-width="0.25" stroke-miterlimit="10" width="100" height="58.33"/>
</g>
</svg>
