<?xml version="1.0" encoding="utf-8"?>
<!-- Generator: Adobe Illustrator 16.0.0, SVG Export Plug-In . SVG Version: 6.00 Build 0)  -->
<!DOCTYPE svg PUBLIC "-//W3C//DTD SVG 1.1//EN" "http://www.w3.org/Graphics/SVG/1.1/DTD/svg11.dtd">
<svg version="1.1" id="Warstwa_1" xmlns="http://www.w3.org/2000/svg" xmlns:xlink="http://www.w3.org/1999/xlink" x="0px" y="0px"
	 width="162.333px" height="128.334px" viewBox="0 0 162.333 128.334" enable-background="new 0 0 162.333 128.334"
	 xml:space="preserve">
<rect x="55.5" y="2.33" fill="none" width="104.695" height="54"/>
<g enable-background="new    ">
	<path fill="#266BB2" d="M110.303,39.881c-0.539-0.53-1.033-1.436-1.481-2.714L97.59,5.89h-5.702V2.329h17.854V5.89h-5.254
		l9.064,26.62l8.79-26.62h-6.599V2.329h16.884V5.89h-6.051l-10.733,31.277c-0.315,0.896-0.619,1.594-0.909,2.092
		s-0.631,0.859-1.021,1.083c-0.391,0.225-0.884,0.336-1.481,0.336C111.552,40.678,110.842,40.412,110.303,39.881z"/>
	<path fill="#266BB2" d="M142.863,49.443v-3.411h5.977v-6.226h-13.297l-0.623-3.361l12.999-23.708l6.275,0.747v22.586h6.624
		l-0.448,3.735h-6.176v6.226h5.554v3.411H142.863z M139.501,36.071h9.338V16.797L139.501,36.071z"/>
</g>
<rect x="-6.333" y="37.826" fill="none" width="143.333" height="108.502"/>
<g enable-background="new    ">
	<path fill="#286BB1" d="M0.014,62.313h3.428V47.389H0.014V45.42l6.662-0.299l0.439,3.832c0.363-0.844,0.879-1.57,1.547-2.18
		s1.412-1.072,2.232-1.389s1.646-0.475,2.479-0.475c0.398,0,0.753,0.018,1.063,0.053s0.653,0.111,1.028,0.229
		c0.422,0.129,0.794,0.293,1.116,0.492s0.653,0.469,0.993,0.809c0.352,0.363,0.639,0.776,0.861,1.239s0.41,1.034,0.563,1.714
		c0.141,0.68,0.211,1.447,0.211,2.303v10.564h3.604v1.969h-10.6v-1.969h3.217V51.783c0-1.488-0.293-2.604-0.879-3.349
		s-1.412-1.116-2.479-1.116c-0.656,0-1.263,0.123-1.819,0.369s-1.022,0.586-1.397,1.02c-0.363,0.422-0.671,0.923-0.923,1.503
		s-0.431,1.187-0.536,1.819c-0.117,0.586-0.176,1.236-0.176,1.951v8.332h3.199v1.969H0.014V62.313z"/>
	<path fill="#286BB1" d="M37.702,60.818c-1.477,2.625-3.592,3.938-6.346,3.938c-0.422,0-0.82-0.029-1.195-0.088
		s-0.797-0.164-1.266-0.316c-0.867-0.27-1.658-0.914-2.373-1.934c-0.34-0.48-0.604-1.104-0.791-1.872s-0.281-1.632-0.281-2.593
		V47.389h-3.305V45.42h7.084v12.498c0,1.547,0.246,2.666,0.738,3.357s1.266,1.037,2.32,1.037c0.75,0,1.538-0.223,2.364-0.668
		s1.521-1.031,2.083-1.758s0.844-1.459,0.844-2.197V47.389h-3.199V45.42h6.996v16.875l3.41,0.369v1.617l-7.084,0.51V60.818z"/>
	<path fill="#286BB1" d="M51.316,64.088c-1.119-0.445-2.089-1.078-2.909-1.898c-0.832-0.82-1.482-1.837-1.951-3.05
		s-0.703-2.522-0.703-3.929c0-1.359,0.205-2.648,0.615-3.867s1.002-2.314,1.775-3.287c0.785-0.984,1.796-1.755,3.032-2.312
		s2.604-0.835,4.104-0.835c0.855,0,1.714,0.126,2.575,0.378s1.655,0.618,2.382,1.099c0.762,0.504,1.368,1.163,1.819,1.978
		s0.677,1.714,0.677,2.698c0,0.48-0.111,0.94-0.334,1.38s-0.545,0.794-0.967,1.063s-0.908,0.404-1.459,0.404
		c-0.773,0-1.418-0.229-1.934-0.686s-0.773-1.055-0.773-1.793s0.261-1.324,0.782-1.758s1.163-0.65,1.925-0.65
		c-0.398-0.645-0.955-1.16-1.67-1.547s-1.518-0.58-2.408-0.58c-0.996,0-1.901,0.22-2.716,0.659s-1.468,1.04-1.96,1.802
		c-0.48,0.738-0.847,1.562-1.099,2.47s-0.378,1.843-0.378,2.804c0,1.5,0.234,2.795,0.703,3.885s1.146,1.928,2.03,2.514
		s1.942,0.879,3.173,0.879c0.691,0,1.368-0.144,2.03-0.431s1.233-0.665,1.714-1.134c0.445-0.445,0.82-0.894,1.125-1.345
		s0.516-0.864,0.633-1.239l1.986,0.65c-0.305,1.289-0.832,2.408-1.582,3.357s-1.693,1.685-2.83,2.206s-2.426,0.782-3.867,0.782
		C53.616,64.756,52.435,64.533,51.316,64.088z"/>
	<path fill="#286BB1" d="M64.754,64.281v-1.969h3.92V39.988h-3.92v-2.162h7.699v24.486h3.779v1.969H64.754z"/>
	<path fill="#286BB1" d="M83.141,63.956c-1.184-0.533-2.162-1.269-2.936-2.206c-0.762-0.914-1.345-1.945-1.749-3.094
		s-0.606-2.338-0.606-3.568c0-1.066,0.126-2.098,0.378-3.094s0.624-1.916,1.116-2.76c1.078-1.84,2.52-3.1,4.324-3.779
		c0.949-0.363,1.998-0.545,3.146-0.545c1.195,0,2.309,0.211,3.34,0.633s1.934,1.031,2.707,1.828c0.785,0.82,1.403,1.852,1.854,3.094
		s0.688,2.619,0.712,4.131H81.875v0.141c0,2.039,0.434,3.756,1.301,5.15c0.434,0.703,1.014,1.251,1.74,1.644
		s1.553,0.589,2.479,0.589c0.82,0,1.614-0.173,2.382-0.519s1.436-0.85,2.004-1.512s0.976-1.438,1.222-2.329l2.057,0.65
		c-0.305,1.289-0.826,2.411-1.564,3.366s-1.658,1.69-2.76,2.206s-2.338,0.773-3.709,0.773C85.62,64.756,84.325,64.489,83.141,63.956
		z M91.561,52.697c-0.023-1.113-0.243-2.101-0.659-2.962s-0.973-1.532-1.67-2.013s-1.468-0.721-2.312-0.721
		c-0.855,0-1.641,0.24-2.355,0.721s-1.298,1.151-1.749,2.013s-0.724,1.849-0.817,2.962H91.561z"/>
	<path fill="#286BB1" d="M99.805,64.237c-0.738-0.346-1.313-0.847-1.723-1.503s-0.615-1.424-0.615-2.303
		c0-0.691,0.155-1.327,0.466-1.907s0.735-1.069,1.274-1.468c0.516-0.387,1.104-0.756,1.767-1.107s1.339-0.656,2.03-0.914
		c1.406-0.504,2.672-1.084,3.797-1.74c0.539-0.316,0.961-0.697,1.266-1.143s0.457-0.926,0.457-1.441c0-1.313-0.322-2.3-0.967-2.962
		s-1.57-0.993-2.777-0.993c-0.844,0-1.638,0.132-2.382,0.396s-1.321,0.624-1.731,1.081c0.727,0,1.315,0.196,1.767,0.589
		s0.677,0.876,0.677,1.45c0,0.48-0.108,0.911-0.325,1.292s-0.513,0.677-0.888,0.888s-0.785,0.316-1.23,0.316
		c-0.727,0-1.339-0.252-1.837-0.756s-0.747-1.201-0.747-2.092c0-0.48,0.158-0.999,0.475-1.556s0.762-1.099,1.336-1.626
		c0.598-0.551,1.397-0.993,2.399-1.327s2.083-0.501,3.243-0.501c0.973,0,1.852,0.108,2.637,0.325s1.494,0.56,2.127,1.028
		c0.645,0.48,1.14,1.143,1.485,1.986s0.519,1.834,0.519,2.971v8.086c0,0.504,0.062,0.958,0.185,1.362s0.337,0.765,0.642,1.081
		c0.34,0.34,0.756,0.51,1.248,0.51c1.488,0,2.232-1.043,2.232-3.129v-2.619h1.916v2.268c0,1.16-0.123,2.147-0.369,2.962
		s-0.604,1.433-1.072,1.854c-0.457,0.41-0.961,0.706-1.512,0.888s-1.201,0.272-1.951,0.272c-0.809,0-1.55-0.158-2.224-0.475
		s-1.245-0.803-1.714-1.459c-0.504-0.691-0.797-1.512-0.879-2.461c-0.328,0.844-0.823,1.6-1.485,2.268s-1.427,1.189-2.294,1.564
		s-1.758,0.563-2.672,0.563C101.393,64.756,100.543,64.583,99.805,64.237z M105.659,61.539c0.832-0.457,1.518-1.043,2.057-1.758
		c0.539-0.691,0.809-1.365,0.809-2.021v-3.744c-0.668,0.668-1.474,1.295-2.417,1.881s-1.802,1.055-2.575,1.406
		c-0.691,0.305-1.251,0.706-1.679,1.204s-0.642,1.081-0.642,1.749c0,0.598,0.179,1.075,0.536,1.433s0.864,0.536,1.521,0.536
		C104.03,62.225,104.827,61.996,105.659,61.539z"/>
	<path fill="#286BB1" d="M119.229,62.313h3.428V47.389h-3.428V45.42l6.662-0.299l0.475,4.113c0.293-0.996,0.826-1.934,1.6-2.813
		c0.41-0.469,0.917-0.838,1.521-1.107s1.251-0.404,1.942-0.404c0.645,0,1.23,0.12,1.758,0.36s0.946,0.589,1.257,1.046
		s0.466,0.996,0.466,1.617c0,0.586-0.12,1.099-0.36,1.538s-0.565,0.773-0.976,1.002s-0.861,0.343-1.354,0.343
		c-0.691,0-1.28-0.217-1.767-0.65s-0.729-0.996-0.729-1.688c0-0.223,0.056-0.463,0.167-0.721s0.231-0.469,0.36-0.633l0.193-0.193
		c-0.691,0-1.307,0.214-1.846,0.642s-0.961,1.017-1.266,1.767c-0.598,1.453-0.896,3.064-0.896,4.834v8.139h3.955v1.969h-11.162
		V62.313z"/>
</g>
<g enable-background="new    ">
	<path d="M18.305,94.969c-0.563-0.457-1.005-1.061-1.327-1.811s-0.483-1.588-0.483-2.514V78.938h-3.586v-0.826
		c0.867-0.258,1.67-0.727,2.408-1.406s1.342-1.447,1.811-2.303c0.434-0.773,0.82-1.559,1.16-2.355
		c0.434-0.996,0.727-1.635,0.879-1.916c0.246-0.504,0.463-0.756,0.65-0.756c0.141,0,0.252,0.053,0.334,0.158
		s0.123,0.258,0.123,0.457v6.979H27.2v2.004h-6.926V90.75c0,1.008,0.229,1.775,0.686,2.303s1.084,0.791,1.881,0.791
		c0.973,0,1.69-0.319,2.153-0.958s0.694-1.708,0.694-3.208v-2.531h2.109v2.162c0,1.594-0.182,2.9-0.545,3.92
		s-0.955,1.787-1.775,2.303s-1.916,0.773-3.287,0.773C20.678,96.305,19.383,95.859,18.305,94.969z"/>
	<path d="M29.801,93.861h3.428V78.938h-3.428v-1.969l6.662-0.299l0.475,4.113c0.293-0.996,0.826-1.934,1.6-2.813
		c0.41-0.469,0.917-0.838,1.521-1.107s1.251-0.404,1.942-0.404c0.645,0,1.23,0.12,1.758,0.36s0.946,0.589,1.257,1.046
		s0.466,0.996,0.466,1.617c0,0.586-0.12,1.099-0.36,1.538s-0.565,0.773-0.976,1.002s-0.861,0.343-1.354,0.343
		c-0.691,0-1.28-0.217-1.767-0.65s-0.729-0.996-0.729-1.688c0-0.223,0.056-0.463,0.167-0.721s0.231-0.469,0.36-0.633l0.193-0.193
		c-0.691,0-1.307,0.214-1.846,0.642s-0.961,1.017-1.266,1.767c-0.598,1.453-0.896,3.064-0.896,4.834v8.139h3.955v1.969H29.801
		V93.861z"/>
	<path d="M49.418,95.786c-0.738-0.346-1.313-0.847-1.723-1.503s-0.615-1.424-0.615-2.303c0-0.691,0.155-1.327,0.466-1.907
		s0.735-1.069,1.274-1.468c0.516-0.387,1.104-0.756,1.767-1.107s1.339-0.656,2.03-0.914c1.406-0.504,2.672-1.084,3.797-1.74
		c0.539-0.316,0.961-0.697,1.266-1.143s0.457-0.926,0.457-1.441c0-1.313-0.322-2.3-0.967-2.962s-1.57-0.993-2.777-0.993
		c-0.844,0-1.638,0.132-2.382,0.396s-1.321,0.624-1.731,1.081c0.727,0,1.315,0.196,1.767,0.589s0.677,0.876,0.677,1.45
		c0,0.48-0.108,0.911-0.325,1.292S51.885,83.789,51.51,84s-0.785,0.316-1.23,0.316c-0.727,0-1.339-0.252-1.837-0.756
		s-0.747-1.201-0.747-2.092c0-0.48,0.158-0.999,0.475-1.556s0.762-1.099,1.336-1.626c0.598-0.551,1.397-0.993,2.399-1.327
		s2.083-0.501,3.243-0.501c0.973,0,1.852,0.108,2.637,0.325s1.494,0.56,2.127,1.028c0.645,0.48,1.14,1.143,1.485,1.986
		s0.519,1.834,0.519,2.971v8.086c0,0.504,0.062,0.958,0.185,1.362s0.337,0.765,0.642,1.081c0.34,0.34,0.756,0.51,1.248,0.51
		c1.488,0,2.232-1.043,2.232-3.129v-2.619h1.916v2.268c0,1.16-0.123,2.147-0.369,2.962s-0.604,1.433-1.072,1.854
		c-0.457,0.41-0.961,0.706-1.512,0.888s-1.201,0.272-1.951,0.272c-0.809,0-1.55-0.158-2.224-0.475s-1.245-0.803-1.714-1.459
		c-0.504-0.691-0.797-1.512-0.879-2.461c-0.328,0.844-0.823,1.6-1.485,2.268s-1.427,1.189-2.294,1.564s-1.758,0.563-2.672,0.563
		C51.006,96.305,50.157,96.132,49.418,95.786z M55.272,93.088c0.832-0.457,1.518-1.043,2.057-1.758
		c0.539-0.691,0.809-1.365,0.809-2.021v-3.744c-0.668,0.668-1.474,1.295-2.417,1.881s-1.802,1.055-2.575,1.406
		c-0.691,0.305-1.251,0.706-1.679,1.204s-0.642,1.081-0.642,1.749c0,0.598,0.179,1.075,0.536,1.433s0.864,0.536,1.521,0.536
		C53.643,93.773,54.44,93.545,55.272,93.088z"/>
	<path d="M68.948,95.83v-1.969h3.393V78.938h-3.428v-1.969h7.207v16.893h3.445v1.969H68.948z M72.586,73.295
		c-0.398-0.234-0.715-0.551-0.949-0.949s-0.352-0.826-0.352-1.283c0-0.48,0.117-0.923,0.352-1.327s0.551-0.724,0.949-0.958
		s0.832-0.352,1.301-0.352c0.457,0,0.888,0.12,1.292,0.36s0.727,0.563,0.967,0.967s0.36,0.841,0.36,1.31
		c0,0.457-0.12,0.885-0.36,1.283s-0.563,0.715-0.967,0.949s-0.835,0.352-1.292,0.352C73.418,73.646,72.985,73.529,72.586,73.295z"/>
	<path d="M80.532,93.861h3.428V78.938h-3.428v-1.969l6.662-0.299l0.439,3.832c0.363-0.844,0.879-1.57,1.547-2.18
		s1.412-1.072,2.232-1.389s1.646-0.475,2.479-0.475c0.398,0,0.753,0.018,1.063,0.053s0.653,0.111,1.028,0.229
		c0.422,0.129,0.794,0.293,1.116,0.492s0.653,0.469,0.993,0.809c0.352,0.363,0.639,0.776,0.861,1.239s0.41,1.034,0.563,1.714
		c0.141,0.68,0.211,1.447,0.211,2.303v10.564h3.604v1.969h-10.6v-1.969h3.217V83.332c0-1.488-0.293-2.604-0.879-3.349
		s-1.412-1.116-2.479-1.116c-0.656,0-1.263,0.123-1.819,0.369s-1.022,0.586-1.397,1.02c-0.363,0.422-0.671,0.923-0.923,1.503
		s-0.431,1.187-0.536,1.819c-0.117,0.586-0.176,1.236-0.176,1.951v8.332h3.199v1.969H80.532V93.861z"/>
	<path d="M104.526,95.83v-1.969h3.393V78.938h-3.428v-1.969h7.207v16.893h3.445v1.969H104.526z M108.165,73.295
		c-0.398-0.234-0.715-0.551-0.949-0.949s-0.352-0.826-0.352-1.283c0-0.48,0.117-0.923,0.352-1.327s0.551-0.724,0.949-0.958
		s0.832-0.352,1.301-0.352c0.457,0,0.888,0.12,1.292,0.36s0.727,0.563,0.967,0.967s0.36,0.841,0.36,1.31
		c0,0.457-0.12,0.885-0.36,1.283s-0.563,0.715-0.967,0.949s-0.835,0.352-1.292,0.352C108.997,73.646,108.563,73.529,108.165,73.295z
		"/>
	<path d="M116.11,93.861h3.428V78.938h-3.428v-1.969l6.662-0.299l0.439,3.832c0.363-0.844,0.879-1.57,1.547-2.18
		s1.412-1.072,2.232-1.389s1.646-0.475,2.479-0.475c0.398,0,0.753,0.018,1.063,0.053s0.653,0.111,1.028,0.229
		c0.422,0.129,0.794,0.293,1.116,0.492s0.653,0.469,0.993,0.809c0.352,0.363,0.639,0.776,0.861,1.239s0.41,1.034,0.563,1.714
		c0.141,0.68,0.211,1.447,0.211,2.303v10.564h3.604v1.969h-10.6v-1.969h3.217V83.332c0-1.488-0.293-2.604-0.879-3.349
		s-1.412-1.116-2.479-1.116c-0.656,0-1.263,0.123-1.819,0.369s-1.022,0.586-1.397,1.02c-0.363,0.422-0.671,0.923-0.923,1.503
		s-0.431,1.187-0.536,1.819c-0.117,0.586-0.176,1.236-0.176,1.951v8.332h3.199v1.969H116.11V93.861z"/>
	<path d="M142.547,103.406c-0.656-0.656-0.984-1.453-0.984-2.391c0-0.867,0.278-1.541,0.835-2.021s1.263-0.721,2.118-0.721
		c0.434,0,0.832,0.105,1.195,0.316s0.65,0.504,0.861,0.879s0.316,0.797,0.316,1.266c0,0.445-0.155,0.899-0.466,1.362
		s-0.647,0.765-1.011,0.905c0.738,0.258,1.459,0.387,2.162,0.387c1.805,0,3.167-0.691,4.087-2.074s1.38-3.346,1.38-5.889v-3.129
		c-0.258,0.75-0.659,1.43-1.204,2.039s-1.189,1.09-1.934,1.441s-1.532,0.527-2.364,0.527c-0.973,0-1.881-0.179-2.725-0.536
		s-1.564-0.858-2.162-1.503c-0.598-0.621-1.104-1.348-1.521-2.18s-0.724-1.729-0.923-2.689c-0.199-0.973-0.299-1.945-0.299-2.918
		c0-1.277,0.164-2.505,0.492-3.683s0.809-2.241,1.441-3.19c0.645-0.973,1.471-1.74,2.479-2.303s2.115-0.844,3.322-0.844
		c0.715,0,1.444,0.161,2.188,0.483s1.403,0.776,1.978,1.362s0.984,1.266,1.23,2.039l0.439-3.375h5.871v2.092h-2.531v15.873
		c0,2.285-0.41,4.254-1.23,5.906c-0.457,0.914-1.017,1.688-1.679,2.32s-1.474,1.131-2.435,1.494c-1.008,0.387-2.115,0.58-3.322,0.58
		C145.624,105.234,143.754,104.625,142.547,103.406z M150.958,93.018c0.768-0.703,1.333-1.611,1.696-2.725
		c0.34-1.09,0.51-2.244,0.51-3.463c0-1.582-0.199-2.979-0.598-4.192s-0.961-2.156-1.688-2.83s-1.564-1.011-2.514-1.011
		c-0.926,0-1.752,0.349-2.479,1.046s-1.266,1.608-1.617,2.733c-0.34,1.113-0.51,2.303-0.51,3.568c0,2.086,0.328,3.879,0.984,5.379
		c0.352,0.797,0.832,1.421,1.441,1.872s1.313,0.677,2.109,0.677C149.303,94.072,150.191,93.721,150.958,93.018z"/>
</g>
<g enable-background="new    ">
	<path d="M48.636,125.637c-1.119-0.445-2.089-1.078-2.909-1.898c-0.832-0.82-1.482-1.837-1.951-3.05s-0.703-2.522-0.703-3.929
		c0-1.359,0.205-2.648,0.615-3.867s1.002-2.314,1.775-3.287c0.785-0.984,1.796-1.755,3.032-2.312s2.604-0.835,4.104-0.835
		c0.855,0,1.714,0.126,2.575,0.378s1.655,0.618,2.382,1.099c0.762,0.504,1.368,1.163,1.819,1.978s0.677,1.714,0.677,2.698
		c0,0.48-0.111,0.94-0.334,1.38s-0.545,0.794-0.967,1.063s-0.908,0.404-1.459,0.404c-0.773,0-1.418-0.229-1.934-0.686
		s-0.773-1.055-0.773-1.793s0.261-1.324,0.782-1.758s1.163-0.65,1.925-0.65c-0.398-0.645-0.955-1.16-1.67-1.547
		s-1.518-0.58-2.408-0.58c-0.996,0-1.901,0.22-2.716,0.659s-1.468,1.04-1.96,1.802c-0.48,0.738-0.847,1.562-1.099,2.47
		s-0.378,1.843-0.378,2.804c0,1.5,0.234,2.795,0.703,3.885s1.146,1.928,2.03,2.514s1.942,0.879,3.173,0.879
		c0.691,0,1.368-0.144,2.03-0.431s1.233-0.665,1.714-1.134c0.445-0.445,0.82-0.894,1.125-1.345s0.516-0.864,0.633-1.239l1.986,0.65
		c-0.305,1.289-0.832,2.408-1.582,3.357s-1.693,1.685-2.83,2.206s-2.426,0.782-3.867,0.782
		C50.936,126.305,49.755,126.082,48.636,125.637z"/>
	<path d="M67.084,125.03c-1.395-0.85-2.47-2.024-3.226-3.524s-1.134-3.205-1.134-5.115c0-1.898,0.36-3.592,1.081-5.08
		s1.778-2.666,3.173-3.533c1.406-0.879,3.047-1.318,4.922-1.318c1.383,0,2.657,0.252,3.823,0.756s2.142,1.207,2.927,2.109
		c0.773,0.891,1.365,1.942,1.775,3.155s0.615,2.517,0.615,3.911c0,1.887-0.357,3.571-1.072,5.054s-1.764,2.657-3.146,3.524
		c-1.383,0.891-3.012,1.336-4.887,1.336C70.096,126.305,68.479,125.88,67.084,125.03z M74.634,123.149
		c0.768-0.615,1.356-1.485,1.767-2.61s0.615-2.432,0.615-3.92c0-1.629-0.176-3.026-0.527-4.192s-0.908-2.101-1.67-2.804
		c-0.785-0.715-1.758-1.072-2.918-1.072c-1.137,0-2.104,0.352-2.9,1.055s-1.371,1.664-1.723,2.883
		c-0.352,1.172-0.527,2.549-0.527,4.131c0,1.488,0.208,2.795,0.624,3.92s1.017,1.995,1.802,2.61s1.705,0.923,2.76,0.923
		C72.967,124.072,73.867,123.765,74.634,123.149z"/>
	<path d="M97.477,122.367c-1.477,2.625-3.592,3.938-6.346,3.938c-0.422,0-0.82-0.029-1.195-0.088s-0.797-0.164-1.266-0.316
		c-0.867-0.27-1.658-0.914-2.373-1.934c-0.34-0.48-0.604-1.104-0.791-1.872s-0.281-1.632-0.281-2.593v-10.564H81.92v-1.969h7.084
		v12.498c0,1.547,0.246,2.666,0.738,3.357s1.266,1.037,2.32,1.037c0.75,0,1.538-0.223,2.364-0.668s1.521-1.031,2.083-1.758
		s0.844-1.459,0.844-2.197v-10.301h-3.199v-1.969h6.996v16.875l3.41,0.369v1.617l-7.084,0.51V122.367z"/>
	<path d="M105.458,123.861h3.428v-14.924h-3.428v-1.969l6.662-0.299l0.475,4.113c0.293-0.996,0.826-1.934,1.6-2.813
		c0.41-0.469,0.917-0.838,1.521-1.107s1.251-0.404,1.942-0.404c0.645,0,1.23,0.12,1.758,0.36s0.946,0.589,1.257,1.046
		s0.466,0.996,0.466,1.617c0,0.586-0.12,1.099-0.36,1.538s-0.565,0.773-0.976,1.002s-0.861,0.343-1.354,0.343
		c-0.691,0-1.28-0.217-1.767-0.65s-0.729-0.996-0.729-1.688c0-0.223,0.056-0.463,0.167-0.721s0.231-0.469,0.36-0.633l0.193-0.193
		c-0.691,0-1.307,0.214-1.846,0.642s-0.961,1.017-1.266,1.767c-0.598,1.453-0.896,3.064-0.896,4.834v8.139h3.955v1.969h-11.162
		V123.861z"/>
	<path d="M125.303,125.232c-0.785-0.363-1.406-0.864-1.863-1.503s-0.686-1.362-0.686-2.171c0-0.492,0.111-0.94,0.334-1.345
		s0.519-0.718,0.888-0.94s0.765-0.334,1.187-0.334c0.691,0,1.26,0.188,1.705,0.563s0.668,0.896,0.668,1.564
		c0,0.387-0.079,0.738-0.237,1.055s-0.372,0.565-0.642,0.747s-0.551,0.272-0.844,0.272c0.457,0.328,1.069,0.601,1.837,0.817
		s1.532,0.325,2.294,0.325c0.973,0,1.802-0.094,2.487-0.281s1.269-0.51,1.749-0.967c0.504-0.469,0.756-1.084,0.756-1.846
		c0-0.551-0.17-1.049-0.51-1.494s-0.797-0.797-1.371-1.055c-1.277-0.574-2.654-1.055-4.131-1.441
		c-0.762-0.199-1.503-0.451-2.224-0.756s-1.356-0.645-1.907-1.02c-0.586-0.387-1.046-0.891-1.38-1.512s-0.501-1.318-0.501-2.092
		s0.167-1.479,0.501-2.118s0.776-1.163,1.327-1.573c0.516-0.375,1.11-0.697,1.784-0.967s1.333-0.457,1.978-0.563
		c0.656-0.094,1.254-0.141,1.793-0.141c0.844,0,1.696,0.094,2.558,0.281s1.667,0.451,2.417,0.791
		c0.762,0.363,1.371,0.829,1.828,1.397s0.686,1.181,0.686,1.837c0,0.504-0.103,0.958-0.308,1.362s-0.483,0.718-0.835,0.94
		s-0.727,0.334-1.125,0.334c-0.691,0-1.266-0.205-1.723-0.615s-0.686-0.961-0.686-1.652c0-0.305,0.076-0.601,0.229-0.888
		s0.316-0.501,0.492-0.642l0.615-0.422c-1.16-0.563-2.473-0.844-3.938-0.844c-0.809,0-1.541,0.12-2.197,0.36
		s-1.172,0.589-1.547,1.046s-0.563,0.996-0.563,1.617c0,0.445,0.17,0.85,0.51,1.213s0.803,0.65,1.389,0.861
		c1.359,0.527,2.742,0.979,4.148,1.354c0.75,0.211,1.488,0.486,2.215,0.826s1.377,0.721,1.951,1.143
		c0.586,0.422,1.046,0.97,1.38,1.644s0.501,1.421,0.501,2.241c0,0.832-0.152,1.582-0.457,2.25s-0.715,1.219-1.23,1.652
		c-0.48,0.41-1.066,0.753-1.758,1.028s-1.412,0.466-2.162,0.571c-0.715,0.105-1.477,0.158-2.285,0.158
		C128.514,126.305,126.815,125.947,125.303,125.232z"/>
	<path d="M146.239,125.505c-1.184-0.533-2.162-1.269-2.936-2.206c-0.762-0.914-1.345-1.945-1.749-3.094s-0.606-2.338-0.606-3.568
		c0-1.066,0.126-2.098,0.378-3.094s0.624-1.916,1.116-2.76c1.078-1.84,2.52-3.1,4.324-3.779c0.949-0.363,1.998-0.545,3.146-0.545
		c1.195,0,2.309,0.211,3.34,0.633s1.934,1.031,2.707,1.828c0.785,0.82,1.403,1.852,1.854,3.094s0.688,2.619,0.712,4.131h-13.553
		v0.141c0,2.039,0.434,3.756,1.301,5.15c0.434,0.703,1.014,1.251,1.74,1.644s1.553,0.589,2.479,0.589
		c0.82,0,1.614-0.173,2.382-0.519s1.436-0.85,2.004-1.512s0.976-1.438,1.222-2.329l2.057,0.65c-0.305,1.289-0.826,2.411-1.564,3.366
		s-1.658,1.69-2.76,2.206s-2.338,0.773-3.709,0.773C148.717,126.305,147.422,126.038,146.239,125.505z M154.659,114.246
		c-0.023-1.113-0.243-2.101-0.659-2.962s-0.973-1.532-1.67-2.013s-1.468-0.721-2.312-0.721c-0.855,0-1.641,0.24-2.355,0.721
		s-1.298,1.151-1.749,2.013s-0.724,1.849-0.817,2.962H154.659z"/>
</g>
</svg>
