<?xml version="1.0" encoding="utf-8"?>
<!-- Generator: Adobe Illustrator 16.0.0, SVG Export Plug-In . SVG Version: 6.00 Build 0)  -->
<!DOCTYPE svg PUBLIC "-//W3C//DTD SVG 1.1//EN" "http://www.w3.org/Graphics/SVG/1.1/DTD/svg11.dtd">
<svg version="1.1" id="Warstwa_1" xmlns="http://www.w3.org/2000/svg" xmlns:xlink="http://www.w3.org/1999/xlink" x="0px" y="0px"
	 width="228.96px" height="33.029px" viewBox="0 0 228.96 33.029" enable-background="new 0 0 228.96 33.029" xml:space="preserve">
<g>
	<defs>
		<rect id="SVGID_1_" width="228.96" height="33.029"/>
	</defs>
	<clipPath id="SVGID_2_">
		<use xlink:href="#SVGID_1_"  overflow="visible"/>
	</clipPath>
	<g clip-path="url(#SVGID_2_)">
		<polygon fill="#FFFFFF" points="-10.57,41.325 243.28,41.325 243.28,-9.367 -10.57,-9.367 -10.57,41.325 		"/>
		<path d="M89.856,5.642l0.255-0.583c0.017-0.04,0.051-0.057,0.096-0.04c0.238,0.108,0.436,0.187,0.827,0.187
			c0.339,0,0.543-0.147,0.543-0.396c0-0.232-0.113-0.351-0.662-0.595c-0.708-0.3-1.014-0.673-1.014-1.279
			c0-0.662,0.498-1.155,1.342-1.155c0.549,0,0.787,0.04,1.2,0.221c0.051,0.017,0.051,0.057,0.034,0.096l-0.266,0.521
			c-0.017,0.04-0.051,0.063-0.102,0.04c-0.22-0.091-0.447-0.136-0.713-0.136c-0.362,0-0.521,0.159-0.521,0.39
			c0,0.227,0.085,0.334,0.691,0.578c0.707,0.3,0.979,0.651,0.979,1.228c0,0.793-0.56,1.229-1.432,1.229
			c-0.47,0-0.838-0.04-1.223-0.238C89.856,5.687,89.846,5.664,89.856,5.642"/>
		<path d="M95.482,5.138c0,0.028,0.012,0.045,0.04,0.045h1.489c0.045,0,0.068,0.023,0.068,0.074v0.577
			c0,0.052-0.023,0.074-0.068,0.074h-2.35c-0.051,0-0.073-0.022-0.073-0.074v-3.94c0-0.05,0.022-0.073,0.073-0.073h0.759
			c0.04,0,0.062,0.023,0.062,0.073V5.138L95.482,5.138z"/>
		<path d="M100.327,2.505c-0.543,0-0.838,0.441-0.838,1.353c0,0.928,0.289,1.364,0.832,1.364c0.538,0,0.832-0.436,0.832-1.358
			C101.153,2.941,100.854,2.505,100.327,2.505 M100.321,5.947c-1.359,0-1.766-0.742-1.766-2.083c0-1.353,0.407-2.084,1.766-2.084
			s1.766,0.736,1.766,2.078C102.087,5.211,101.68,5.947,100.321,5.947"/>
		<path d="M105.038,5.908c-0.028,0-0.045-0.017-0.057-0.051l-1.154-3.946c-0.018-0.051,0.011-0.09,0.056-0.09h0.826
			c0.046,0,0.051,0.017,0.068,0.056l0.799,3.136l0.798-3.136c0.011-0.039,0.034-0.056,0.073-0.056h0.737
			c0.05,0,0.073,0.028,0.062,0.079l-1.161,3.957c-0.011,0.034-0.034,0.051-0.068,0.051H105.038L105.038,5.908z"/>
		<path d="M110.804,4.328l-0.453-1.568l-0.453,1.568H110.804L110.804,4.328z M109.695,5.047l-0.227,0.81
			c-0.017,0.034-0.039,0.051-0.074,0.051h-0.736c-0.039,0-0.067-0.035-0.05-0.074l1.245-3.985c0-0.017,0.017-0.029,0.045-0.029
			h1.002c0.017,0,0.034,0.012,0.046,0.04l1.234,3.974c0.017,0.039-0.012,0.074-0.051,0.074h-0.821c-0.034,0-0.057-0.017-0.074-0.051
			l-0.226-0.81H109.695L109.695,5.047z"/>
		<path d="M115.729,3.887l1.405,1.919c0.028,0.045,0,0.102-0.045,0.102h-0.969c-0.022,0-0.04-0.011-0.051-0.028l-1.093-1.704v1.658
			c0,0.052-0.022,0.074-0.062,0.074h-0.759c-0.051,0-0.073-0.022-0.073-0.074v-3.94c0-0.05,0.022-0.073,0.073-0.073h0.759
			c0.04,0,0.062,0.023,0.062,0.073v1.795l1.082-1.84c0.011-0.017,0.028-0.028,0.05-0.028h0.872c0.062,0,0.08,0.056,0.051,0.102
			L115.729,3.887L115.729,3.887z"/>
		<path d="M125.315,4.646c0,0.798-0.447,1.302-1.562,1.302c-1.11,0-1.557-0.504-1.557-1.302V1.895c0-0.051,0.023-0.074,0.073-0.074
			h0.759c0.039,0,0.063,0.023,0.063,0.074v2.728c0,0.402,0.22,0.6,0.662,0.6c0.447,0,0.668-0.198,0.668-0.6V1.895
			c0-0.051,0.022-0.074,0.067-0.074h0.765c0.039,0,0.062,0.023,0.062,0.074V4.646L125.315,4.646z"/>
		<path d="M129.781,4.572V1.894c0-0.051,0.017-0.073,0.057-0.073h0.73c0.045,0,0.069,0.022,0.069,0.073v3.94
			c0,0.051-0.024,0.074-0.069,0.074h-0.793c-0.051,0-0.062-0.006-0.079-0.045l-1.313-2.707v2.678c0,0.051-0.023,0.074-0.068,0.074
			h-0.714c-0.05,0-0.073-0.023-0.073-0.074v-3.94c0-0.051,0.023-0.073,0.073-0.073h0.782c0.051,0,0.062,0.005,0.079,0.045
			L129.781,4.572L129.781,4.572z"/>
		<path d="M133.682,1.82c0.041,0,0.063,0.023,0.063,0.074v3.94c0,0.051-0.022,0.073-0.063,0.073h-0.758
			c-0.051,0-0.074-0.022-0.074-0.073v-3.94c0-0.051,0.023-0.074,0.074-0.074H133.682L133.682,1.82z"/>
		<path d="M136.86,5.908c-0.028,0-0.045-0.017-0.056-0.051l-1.155-3.946c-0.017-0.051,0.011-0.09,0.056-0.09h0.826
			c0.046,0,0.051,0.017,0.068,0.056l0.799,3.136l0.798-3.136c0.011-0.039,0.034-0.056,0.073-0.056h0.738
			c0.049,0,0.072,0.028,0.061,0.079l-1.161,3.957c-0.011,0.034-0.034,0.051-0.067,0.051H136.86L136.86,5.908z"/>
		<path d="M141.863,3.502h1.263c0.05,0,0.079,0.022,0.079,0.068v0.589c0,0.039-0.029,0.062-0.079,0.062h-1.263v0.917
			c0,0.028,0.012,0.045,0.04,0.045h1.59c0.052,0,0.074,0.023,0.074,0.068v0.583c0,0.051-0.022,0.074-0.074,0.074h-2.451
			c-0.051,0-0.072-0.023-0.072-0.074v-3.94c0-0.051,0.021-0.074,0.072-0.074h2.451c0.052,0,0.074,0.023,0.074,0.074v0.578
			c0,0.051-0.022,0.073-0.074,0.073h-1.59c-0.028,0-0.04,0.017-0.04,0.045V3.502L141.863,3.502z"/>
		<path d="M146.448,3.649h0.346c0.413,0,0.668-0.181,0.668-0.572c0-0.367-0.216-0.532-0.647-0.532h-0.322
			c-0.028,0-0.045,0.017-0.045,0.045V3.649L146.448,3.649z M146.448,4.289v1.545c0,0.051-0.022,0.074-0.062,0.074h-0.759
			c-0.051,0-0.073-0.023-0.073-0.074v-3.94c0-0.051,0.022-0.074,0.073-0.074h1.307c1.026,0,1.461,0.454,1.461,1.24
			c0,0.589-0.277,0.997-0.82,1.15l1.029,1.59c0.04,0.062,0.006,0.108-0.045,0.108h-0.9c-0.028,0-0.044-0.011-0.051-0.029
			l-0.923-1.59H146.448L146.448,4.289z"/>
		<path d="M150.473,5.642l0.255-0.583c0.017-0.04,0.051-0.057,0.096-0.04c0.238,0.108,0.436,0.187,0.827,0.187
			c0.339,0,0.543-0.147,0.543-0.396c0-0.232-0.113-0.351-0.662-0.595c-0.708-0.3-1.014-0.673-1.014-1.279
			c0-0.662,0.498-1.155,1.342-1.155c0.549,0,0.787,0.04,1.2,0.221c0.051,0.017,0.051,0.057,0.034,0.096l-0.266,0.521
			c-0.017,0.04-0.051,0.063-0.102,0.04c-0.221-0.091-0.447-0.136-0.713-0.136c-0.362,0-0.521,0.159-0.521,0.39
			c0,0.227,0.085,0.334,0.691,0.578c0.707,0.3,0.979,0.651,0.979,1.228c0,0.793-0.56,1.229-1.432,1.229
			c-0.47,0-0.838-0.04-1.223-0.238C150.473,5.687,150.461,5.664,150.473,5.642"/>
		<path d="M156.031,1.82c0.039,0,0.062,0.023,0.062,0.074v3.94c0,0.051-0.023,0.073-0.062,0.073h-0.76
			c-0.05,0-0.072-0.022-0.072-0.073v-3.94c0-0.051,0.022-0.074,0.072-0.074H156.031L156.031,1.82z"/>
		<path d="M159.12,5.908c-0.04,0-0.063-0.022-0.063-0.074V2.591c0-0.029-0.016-0.046-0.044-0.046h-0.947
			c-0.051,0-0.073-0.022-0.073-0.073V1.894c0-0.05,0.022-0.073,0.073-0.073h2.888c0.045,0,0.067,0.023,0.067,0.073v0.578
			c0,0.051-0.022,0.073-0.067,0.073h-0.963c-0.027,0-0.04,0.017-0.04,0.046v3.243c0,0.052-0.021,0.074-0.072,0.074H159.12
			L159.12,5.908z"/>
		<path d="M164.716,4.317v1.512c0,0.051-0.023,0.079-0.068,0.079h-0.759c-0.044,0-0.068-0.028-0.068-0.079V4.317l-1.256-2.395
			c-0.029-0.05-0.011-0.102,0.056-0.102h0.884c0.028,0,0.044,0.012,0.056,0.04l0.781,1.665l0.782-1.665
			c0.005-0.028,0.022-0.04,0.05-0.04h0.81c0.062,0,0.079,0.052,0.057,0.097L164.716,4.317L164.716,4.317z"/>
		<path d="M172.678,2.505c-0.543,0-0.838,0.441-0.838,1.353c0,0.928,0.289,1.364,0.832,1.364c0.538,0,0.832-0.436,0.832-1.358
			C173.504,2.941,173.205,2.505,172.678,2.505 M172.672,5.947c-1.358,0-1.766-0.742-1.766-2.083c0-1.353,0.408-2.084,1.766-2.084
			c1.359,0,1.766,0.736,1.766,2.078C174.438,5.211,174.031,5.947,172.672,5.947"/>
		<path d="M177.376,3.502h1.206c0.052,0,0.079,0.022,0.079,0.068v0.589c0,0.039-0.027,0.062-0.079,0.062h-1.206v1.613
			c0,0.051-0.022,0.074-0.062,0.074h-0.76c-0.051,0-0.072-0.023-0.072-0.074v-3.94c0-0.051,0.021-0.074,0.072-0.074h2.396
			c0.051,0,0.073,0.023,0.073,0.074v0.578c0,0.051-0.022,0.073-0.073,0.073h-1.529c-0.028,0-0.045,0.017-0.045,0.045V3.502
			L177.376,3.502z"/>
		<path d="M90.836,13.773c-0.04,0-0.062-0.022-0.062-0.074v-3.243c0-0.029-0.017-0.046-0.045-0.046h-0.946
			c-0.051,0-0.073-0.022-0.073-0.073V9.759c0-0.05,0.022-0.073,0.073-0.073h2.887c0.045,0,0.068,0.023,0.068,0.073v0.578
			c0,0.051-0.023,0.073-0.068,0.073h-0.962c-0.028,0-0.04,0.017-0.04,0.046v3.243c0,0.052-0.022,0.074-0.073,0.074H90.836
			L90.836,13.773z"/>
		<path d="M95.533,11.367h1.263c0.05,0,0.079,0.022,0.079,0.068v0.589c0,0.039-0.029,0.062-0.079,0.062h-1.263v0.917
			c0,0.028,0.012,0.045,0.04,0.045h1.59c0.052,0,0.074,0.023,0.074,0.068v0.583c0,0.051-0.022,0.074-0.074,0.074h-2.451
			c-0.051,0-0.073-0.023-0.073-0.074v-3.94c0-0.051,0.022-0.074,0.073-0.074h2.451c0.052,0,0.074,0.023,0.074,0.074v0.578
			c0,0.051-0.022,0.073-0.074,0.073h-1.59c-0.028,0-0.04,0.017-0.04,0.045V11.367L95.533,11.367z"/>
		<path d="M100.984,13.813c-1.172,0-1.874-0.798-1.874-2.083s0.702-2.084,1.874-2.084c0.476,0,0.78,0.057,1.092,0.232
			c0.029,0.018,0.04,0.04,0.04,0.057s-0.006,0.04-0.018,0.063l-0.265,0.509c-0.017,0.028-0.034,0.045-0.051,0.045
			c-0.018,0-0.034-0.005-0.05-0.011c-0.227-0.107-0.426-0.147-0.674-0.147c-0.47,0-1.013,0.391-1.013,1.336
			c0,0.951,0.515,1.33,1.019,1.33c0.186,0,0.407-0.022,0.673-0.153c0.039-0.017,0.074-0.011,0.09,0.023l0.278,0.527
			c0.028,0.044,0.017,0.085-0.029,0.113C101.737,13.762,101.438,13.813,100.984,13.813"/>
		<path d="M104.991,12.086c-0.028,0-0.045,0.017-0.045,0.045v1.568c0,0.052-0.023,0.074-0.062,0.074h-0.76
			c-0.05,0-0.072-0.022-0.072-0.074v-3.94c0-0.05,0.022-0.073,0.072-0.073h0.76c0.039,0,0.062,0.023,0.062,0.073v1.563
			c0,0.028,0.017,0.045,0.045,0.045h1.229c0.027,0,0.044-0.017,0.044-0.045V9.759c0-0.05,0.022-0.073,0.068-0.073h0.759
			c0.046,0,0.068,0.023,0.068,0.073v3.94c0,0.052-0.022,0.074-0.068,0.074h-0.759c-0.046,0-0.068-0.022-0.068-0.074v-1.568
			c0-0.028-0.017-0.045-0.044-0.045H104.991L104.991,12.086z"/>
		<path d="M111.625,12.437V9.759c0-0.051,0.017-0.073,0.057-0.073h0.73c0.045,0,0.068,0.022,0.068,0.073v3.94
			c0,0.051-0.023,0.074-0.068,0.074h-0.793c-0.051,0-0.062-0.006-0.079-0.045l-1.313-2.707v2.678c0,0.051-0.023,0.074-0.068,0.074
			h-0.714c-0.05,0-0.073-0.023-0.073-0.074v-3.94c0-0.051,0.023-0.073,0.073-0.073h0.782c0.051,0,0.062,0.005,0.079,0.045
			L111.625,12.437L111.625,12.437z"/>
		<path d="M116.29,10.371c-0.543,0-0.838,0.441-0.838,1.353c0,0.928,0.29,1.364,0.833,1.364c0.538,0,0.831-0.436,0.831-1.358
			C117.115,10.807,116.815,10.371,116.29,10.371 M116.284,13.813c-1.358,0-1.767-0.742-1.767-2.083c0-1.353,0.409-2.084,1.767-2.084
			c1.358,0,1.766,0.736,1.766,2.078C118.05,13.077,117.643,13.813,116.284,13.813"/>
		<path d="M120.987,13.003c0,0.028,0.012,0.045,0.04,0.045h1.489c0.045,0,0.068,0.023,0.068,0.074v0.577
			c0,0.052-0.023,0.074-0.068,0.074h-2.35c-0.051,0-0.072-0.022-0.072-0.074v-3.94c0-0.05,0.021-0.073,0.072-0.073h0.759
			c0.04,0,0.062,0.023,0.062,0.073V13.003L120.987,13.003z"/>
		<path d="M125.833,10.371c-0.543,0-0.838,0.441-0.838,1.353c0,0.928,0.289,1.364,0.832,1.364c0.538,0,0.832-0.436,0.832-1.358
			C126.658,10.807,126.358,10.371,125.833,10.371 M125.826,13.813c-1.357,0-1.766-0.742-1.766-2.083
			c0-1.353,0.409-2.084,1.766-2.084c1.359,0,1.767,0.736,1.767,2.078C127.593,13.077,127.186,13.813,125.826,13.813"/>
		<path d="M131.827,12.267h-0.526c-0.046,0-0.069-0.022-0.069-0.068V11.61c0-0.045,0.023-0.068,0.069-0.068h1.272
			c0.046,0,0.068,0.023,0.068,0.068v1.891c0,0.045-0.016,0.074-0.044,0.079c-0.358,0.142-0.764,0.232-1.263,0.232
			c-1.172,0-1.873-0.798-1.873-2.083c0-1.285,0.701-2.083,1.873-2.083c0.453,0,0.775,0.057,1.093,0.232
			c0.028,0.017,0.04,0.04,0.04,0.056c0,0.018-0.006,0.041-0.018,0.063l-0.267,0.509c-0.015,0.029-0.033,0.046-0.049,0.046
			c-0.018,0-0.036-0.006-0.051-0.012c-0.228-0.107-0.426-0.147-0.675-0.147c-0.47,0-1.013,0.391-1.013,1.336
			c0,0.951,0.527,1.37,0.975,1.37c0.197,0,0.305-0.011,0.458-0.057V12.267L131.827,12.267z"/>
		<path d="M136.48,12.182v1.512c0,0.051-0.023,0.079-0.068,0.079h-0.759c-0.045,0-0.068-0.028-0.068-0.079v-1.512l-1.256-2.395
			c-0.029-0.05-0.012-0.102,0.056-0.102h0.883c0.029,0,0.044,0.012,0.057,0.04l0.781,1.665l0.782-1.665
			c0.004-0.028,0.022-0.04,0.049-0.04h0.811c0.061,0,0.079,0.052,0.057,0.097L136.48,12.182L136.48,12.182z"/>
		<path d="M143.671,9.686c0.04,0,0.062,0.023,0.062,0.074v3.94c0,0.051-0.022,0.073-0.062,0.073h-0.759
			c-0.051,0-0.072-0.022-0.072-0.073V9.76c0-0.051,0.021-0.074,0.072-0.074H143.671L143.671,9.686z"/>
		<path d="M148.198,12.437V9.759c0-0.051,0.017-0.073,0.057-0.073h0.729c0.045,0,0.069,0.022,0.069,0.073v3.94
			c0,0.051-0.024,0.074-0.069,0.074h-0.793c-0.051,0-0.061-0.006-0.079-0.045l-1.312-2.707v2.678c0,0.051-0.024,0.074-0.069,0.074
			h-0.714c-0.049,0-0.073-0.023-0.073-0.074v-3.94c0-0.051,0.024-0.073,0.073-0.073h0.783c0.05,0,0.061,0.005,0.079,0.045
			L148.198,12.437L148.198,12.437z"/>
		<path d="M155.338,12.046v0.957c0,0.028,0.012,0.045,0.04,0.045h0.481c0.312,0,0.589-0.119,0.589-0.47
			c0-0.379-0.249-0.532-0.798-0.532H155.338L155.338,12.046z M155.384,10.41c-0.029,0-0.046,0.017-0.046,0.045v0.951h0.335
			c0.469,0,0.708-0.141,0.708-0.526c0-0.362-0.222-0.47-0.607-0.47H155.384L155.384,10.41z M155.679,9.686
			c1.126,0,1.635,0.329,1.635,1.104c0,0.362-0.238,0.736-0.832,0.917c0.639,0.176,0.901,0.549,0.901,1.07
			c0,0.725-0.482,0.997-1.665,0.997h-1.201c-0.05,0-0.073-0.023-0.073-0.074v-3.94c0-0.051,0.023-0.074,0.073-0.074H155.679
			L155.679,9.686z"/>
		<path d="M160.49,11.514h0.346c0.413,0,0.668-0.181,0.668-0.572c0-0.367-0.216-0.532-0.647-0.532h-0.322
			c-0.028,0-0.045,0.017-0.045,0.045V11.514L160.49,11.514z M160.49,12.154v1.545c0,0.051-0.022,0.074-0.062,0.074h-0.759
			c-0.051,0-0.073-0.023-0.073-0.074v-3.94c0-0.051,0.022-0.074,0.073-0.074h1.307c1.026,0,1.461,0.454,1.461,1.24
			c0,0.589-0.277,0.997-0.82,1.15l1.029,1.59c0.04,0.062,0.006,0.108-0.045,0.108h-0.9c-0.028,0-0.044-0.011-0.051-0.029
			l-0.923-1.59H160.49L160.49,12.154z"/>
		<path d="M166.563,12.193l-0.453-1.568l-0.453,1.568H166.563L166.563,12.193z M165.455,12.913l-0.227,0.81
			c-0.016,0.034-0.039,0.051-0.074,0.051h-0.736c-0.038,0-0.067-0.035-0.05-0.074l1.245-3.985c0-0.017,0.018-0.029,0.045-0.029
			h1.002c0.018,0,0.034,0.012,0.046,0.04l1.234,3.974c0.017,0.039-0.011,0.074-0.051,0.074h-0.821c-0.034,0-0.056-0.017-0.074-0.051
			l-0.226-0.81H165.455L165.455,12.913z"/>
		<path d="M170.315,13.773c-0.04,0-0.061-0.022-0.061-0.074v-3.243c0-0.029-0.017-0.046-0.045-0.046h-0.946
			c-0.051,0-0.074-0.022-0.074-0.073V9.759c0-0.05,0.023-0.073,0.074-0.073h2.886c0.046,0,0.069,0.023,0.069,0.073v0.578
			c0,0.051-0.023,0.073-0.069,0.073h-0.962c-0.027,0-0.04,0.017-0.04,0.046v3.243c0,0.052-0.021,0.074-0.072,0.074H170.315
			L170.315,13.773z"/>
		<path d="M174.951,9.686c0.04,0,0.062,0.023,0.062,0.074v3.94c0,0.051-0.022,0.073-0.062,0.073h-0.759
			c-0.051,0-0.073-0.022-0.073-0.073V9.76c0-0.051,0.022-0.074,0.073-0.074H174.951L174.951,9.686z"/>
		<path d="M177.061,13.507l0.255-0.583c0.017-0.04,0.051-0.057,0.096-0.04c0.238,0.108,0.436,0.187,0.827,0.187
			c0.339,0,0.543-0.147,0.543-0.396c0-0.232-0.113-0.351-0.662-0.595c-0.708-0.3-1.014-0.673-1.014-1.279
			c0-0.662,0.498-1.155,1.342-1.155c0.549,0,0.787,0.04,1.2,0.221c0.051,0.017,0.051,0.057,0.033,0.096l-0.266,0.521
			c-0.017,0.04-0.051,0.063-0.102,0.04c-0.221-0.091-0.447-0.136-0.714-0.136c-0.361,0-0.521,0.159-0.521,0.39
			c0,0.227,0.085,0.334,0.691,0.578c0.707,0.3,0.979,0.651,0.979,1.228c0,0.793-0.56,1.229-1.432,1.229
			c-0.471,0-0.838-0.04-1.224-0.238C177.061,13.552,177.049,13.529,177.061,13.507"/>
		<path d="M182.681,13.003c0,0.028,0.012,0.045,0.04,0.045h1.488c0.046,0,0.068,0.023,0.068,0.074v0.577
			c0,0.052-0.022,0.074-0.068,0.074h-2.35c-0.051,0-0.073-0.022-0.073-0.074v-3.94c0-0.05,0.022-0.073,0.073-0.073h0.759
			c0.04,0,0.063,0.023,0.063,0.073V13.003L182.681,13.003z"/>
		<path d="M188.035,12.193l-0.453-1.568l-0.452,1.568H188.035L188.035,12.193z M186.927,12.913l-0.229,0.81
			c-0.017,0.034-0.038,0.051-0.073,0.051h-0.736c-0.039,0-0.067-0.035-0.049-0.074l1.244-3.985c0-0.017,0.017-0.029,0.046-0.029
			h1.002c0.016,0,0.033,0.012,0.046,0.04l1.233,3.974c0.018,0.039-0.013,0.074-0.052,0.074h-0.82c-0.033,0-0.058-0.017-0.073-0.051
			l-0.228-0.81H186.927L186.927,12.913z"/>
		<path d="M191.991,13.773c-0.027,0-0.045-0.017-0.057-0.051l-1.154-3.946c-0.018-0.051,0.011-0.09,0.056-0.09h0.826
			c0.046,0,0.052,0.017,0.068,0.056l0.799,3.136l0.798-3.136c0.012-0.039,0.034-0.056,0.073-0.056h0.737
			c0.05,0,0.072,0.028,0.062,0.079l-1.161,3.957c-0.011,0.034-0.033,0.051-0.067,0.051H191.991L191.991,13.773z"/>
		<path d="M197.759,12.193l-0.453-1.568l-0.453,1.568H197.759L197.759,12.193z M196.649,12.913l-0.227,0.81
			c-0.018,0.034-0.039,0.051-0.074,0.051h-0.736c-0.039,0-0.067-0.035-0.05-0.074l1.245-3.985c0-0.017,0.017-0.029,0.045-0.029
			h1.002c0.017,0,0.034,0.012,0.046,0.04l1.234,3.974c0.017,0.039-0.013,0.074-0.052,0.074h-0.819c-0.035,0-0.059-0.017-0.075-0.051
			l-0.227-0.81H196.649L196.649,12.913z"/>
		<path d="M90.587,19.356h1.268c0.04,0,0.062,0.018,0.062,0.058v0.362c0,0.038-0.022,0.057-0.062,0.057h-1.268v1.749
			c0,0.039-0.017,0.056-0.052,0.056h-0.458c-0.039,0-0.056-0.017-0.056-0.056v-3.976c0-0.038,0.017-0.056,0.056-0.056h2.14
			c0.04,0,0.062,0.018,0.062,0.056v0.357c0,0.04-0.022,0.063-0.062,0.063h-1.585c-0.028,0-0.045,0.018-0.045,0.046V19.356
			L90.587,19.356z"/>
		<path d="M95.612,20.194l-0.618-2.071l-0.616,2.071H95.612L95.612,20.194z M94.242,20.67l-0.267,0.923
			c-0.01,0.028-0.033,0.045-0.062,0.045h-0.447c-0.04,0-0.057-0.028-0.04-0.068l1.234-3.99c0-0.017,0.012-0.028,0.04-0.028h0.646
			c0.017,0,0.034,0.012,0.039,0.034l1.223,3.979c0.017,0.052,0,0.073-0.045,0.073H96.07c-0.028,0-0.052-0.017-0.057-0.045
			l-0.266-0.923H94.242L94.242,20.67z"/>
		<path d="M100.072,21.678c-1.155,0-1.67-0.849-1.67-2.089c0-1.224,0.515-2.078,1.67-2.078c0.384,0,0.668,0.052,0.984,0.227
			c0.029,0.023,0.029,0.058,0.012,0.097l-0.169,0.312c-0.017,0.039-0.052,0.039-0.08,0.022c-0.243-0.118-0.396-0.17-0.713-0.17
			c-0.634,0-1.104,0.51-1.104,1.591c0,1.098,0.459,1.602,1.104,1.602c0.282,0,0.464-0.039,0.719-0.175
			c0.034-0.017,0.057-0.012,0.074,0.016l0.175,0.323c0.017,0.034,0.011,0.063-0.018,0.091
			C100.729,21.627,100.463,21.678,100.072,21.678"/>
		<path d="M105.812,20.37c0,0.792-0.283,1.308-1.398,1.308c-1.116,0-1.398-0.516-1.398-1.308v-2.763
			c0-0.039,0.016-0.057,0.056-0.057h0.459c0.033,0,0.051,0.018,0.051,0.057v2.888c0,0.521,0.283,0.707,0.832,0.707
			c0.543,0,0.832-0.192,0.832-0.707v-2.888c0-0.039,0.017-0.057,0.056-0.057h0.453c0.04,0,0.057,0.018,0.057,0.057V20.37
			L105.812,20.37z"/>
		<path d="M108.59,21.117c0,0.028,0.011,0.045,0.04,0.045h1.568c0.039,0,0.057,0.023,0.057,0.063v0.355
			c0,0.04-0.018,0.058-0.057,0.058h-2.117c-0.04,0-0.057-0.018-0.057-0.058v-3.974c0-0.039,0.017-0.057,0.057-0.057h0.458
			c0.034,0,0.051,0.018,0.051,0.057V21.117L108.59,21.117z"/>
		<path d="M112.495,21.639c-0.034,0-0.051-0.018-0.051-0.058v-3.509c0-0.029-0.017-0.046-0.045-0.046h-0.98
			c-0.039,0-0.056-0.022-0.056-0.063v-0.356c0-0.039,0.017-0.057,0.056-0.057h2.616c0.039,0,0.056,0.018,0.056,0.057v0.356
			c0,0.04-0.017,0.063-0.056,0.063h-0.985c-0.029,0-0.04,0.017-0.04,0.046v3.509c0,0.04-0.017,0.058-0.057,0.058H112.495
			L112.495,21.639z"/>
		<path d="M117.413,19.906v1.67c0,0.04-0.017,0.062-0.057,0.062h-0.453c-0.039,0-0.056-0.021-0.056-0.062v-1.67l-1.172-2.265
			c-0.029-0.051-0.006-0.091,0.045-0.091h0.515c0.029,0,0.046,0.012,0.057,0.034l0.871,1.795l0.878-1.795
			c0.006-0.022,0.023-0.034,0.051-0.034h0.481c0.046,0,0.067,0.04,0.051,0.08L117.413,19.906L117.413,19.906z"/>
		<path d="M124.778,17.986c-0.674,0-1.024,0.526-1.024,1.608c0,1.081,0.35,1.607,1.024,1.607c0.662,0,1.02-0.526,1.02-1.607
			C125.798,18.513,125.44,17.986,124.778,17.986 M124.778,21.678c-1.239,0-1.618-0.832-1.618-2.083c0-1.268,0.367-2.084,1.618-2.084
			c1.235,0,1.613,0.816,1.613,2.084C126.392,20.846,126.013,21.678,124.778,21.678"/>
		<path d="M129.001,19.356h1.267c0.04,0,0.063,0.018,0.063,0.058v0.362c0,0.038-0.023,0.057-0.063,0.057h-1.267v1.749
			c0,0.039-0.017,0.056-0.051,0.056h-0.458c-0.04,0-0.058-0.017-0.058-0.056v-3.976c0-0.038,0.018-0.056,0.058-0.056h2.139
			c0.04,0,0.062,0.018,0.062,0.056v0.357c0,0.04-0.022,0.063-0.062,0.063h-1.585c-0.029,0-0.045,0.018-0.045,0.046V19.356
			L129.001,19.356z"/>
		<path d="M135.925,19.356h1.325c0.039,0,0.062,0.018,0.062,0.058v0.362c0,0.038-0.023,0.057-0.062,0.057h-1.325v1.284
			c0,0.028,0.011,0.046,0.04,0.046h1.647c0.04,0,0.062,0.017,0.062,0.056v0.363c0,0.039-0.022,0.056-0.062,0.056h-2.197
			c-0.039,0-0.056-0.017-0.056-0.056v-3.976c0-0.038,0.017-0.056,0.056-0.056h2.197c0.04,0,0.062,0.018,0.062,0.056v0.357
			c0,0.04-0.022,0.063-0.062,0.063h-1.647c-0.029,0-0.04,0.018-0.04,0.046V19.356L135.925,19.356z"/>
		<path d="M140.227,21.117c0,0.028,0.011,0.045,0.039,0.045h1.569c0.039,0,0.055,0.023,0.055,0.063v0.355
			c0,0.04-0.016,0.058-0.055,0.058h-2.118c-0.039,0-0.056-0.018-0.056-0.058v-3.974c0-0.039,0.017-0.057,0.056-0.057h0.459
			c0.034,0,0.051,0.018,0.051,0.057V21.117L140.227,21.117z"/>
		<path d="M144.33,19.356h1.325c0.039,0,0.062,0.018,0.062,0.058v0.362c0,0.038-0.023,0.057-0.062,0.057h-1.325v1.284
			c0,0.028,0.011,0.046,0.04,0.046h1.646c0.04,0,0.063,0.017,0.063,0.056v0.363c0,0.039-0.023,0.056-0.063,0.056h-2.195
			c-0.04,0-0.057-0.017-0.057-0.056v-3.976c0-0.038,0.017-0.056,0.057-0.056h2.195c0.04,0,0.063,0.018,0.063,0.056v0.357
			c0,0.04-0.023,0.063-0.063,0.063h-1.646c-0.029,0-0.04,0.018-0.04,0.046V19.356L144.33,19.356z"/>
		<path d="M149.621,21.678c-1.154,0-1.67-0.849-1.67-2.089c0-1.224,0.516-2.078,1.67-2.078c0.386,0,0.669,0.052,0.985,0.227
			c0.029,0.023,0.029,0.058,0.011,0.097l-0.169,0.312c-0.017,0.039-0.052,0.039-0.08,0.022c-0.242-0.118-0.395-0.17-0.713-0.17
			c-0.634,0-1.103,0.51-1.103,1.591c0,1.098,0.459,1.602,1.103,1.602c0.283,0,0.464-0.039,0.72-0.175
			c0.033-0.017,0.056-0.012,0.073,0.016l0.176,0.323c0.016,0.034,0.011,0.063-0.018,0.091
			C150.277,21.627,150.012,21.678,149.621,21.678"/>
		<path d="M153.384,21.639c-0.035,0-0.051-0.018-0.051-0.058v-3.509c0-0.029-0.018-0.046-0.045-0.046h-0.981
			c-0.039,0-0.055-0.022-0.055-0.063v-0.356c0-0.039,0.016-0.057,0.055-0.057h2.617c0.039,0,0.055,0.018,0.055,0.057v0.356
			c0,0.04-0.016,0.063-0.055,0.063h-0.986c-0.028,0-0.04,0.017-0.04,0.046v3.509c0,0.04-0.016,0.058-0.056,0.058H153.384
			L153.384,21.639z"/>
		<path d="M157.441,19.476h0.509c0.544,0,0.827-0.204,0.827-0.73c0-0.521-0.271-0.719-0.815-0.719h-0.476
			c-0.028,0-0.045,0.018-0.045,0.045V19.476L157.441,19.476z M157.441,19.917v1.665c0,0.04-0.016,0.057-0.051,0.057h-0.458
			c-0.04,0-0.057-0.017-0.057-0.057v-3.975c0-0.04,0.017-0.057,0.057-0.057h1.081c0.888,0,1.364,0.374,1.364,1.183
			c0,0.663-0.345,1.015-0.894,1.133l0.986,1.682c0.027,0.051,0.004,0.091-0.04,0.091h-0.533c-0.028,0-0.045-0.012-0.05-0.029
			l-0.947-1.692H157.441L157.441,19.917z"/>
		<path d="M162.009,17.551c0.034,0,0.05,0.017,0.05,0.057v3.975c0,0.039-0.016,0.056-0.05,0.056h-0.458
			c-0.041,0-0.057-0.017-0.057-0.056v-3.975c0-0.04,0.016-0.057,0.057-0.057H162.009L162.009,17.551z"/>
		<path d="M165.827,21.678c-1.155,0-1.67-0.849-1.67-2.089c0-1.224,0.515-2.078,1.67-2.078c0.385,0,0.668,0.052,0.985,0.227
			c0.028,0.023,0.028,0.058,0.011,0.097l-0.169,0.312c-0.017,0.039-0.052,0.039-0.08,0.022c-0.243-0.118-0.396-0.17-0.713-0.17
			c-0.634,0-1.104,0.51-1.104,1.591c0,1.098,0.459,1.602,1.104,1.602c0.283,0,0.464-0.039,0.719-0.175
			c0.034-0.017,0.057-0.012,0.074,0.016l0.175,0.323c0.017,0.034,0.011,0.063-0.017,0.091
			C166.484,21.627,166.218,21.678,165.827,21.678"/>
		<path d="M170.649,20.194l-0.617-2.071l-0.617,2.071H170.649L170.649,20.194z M169.279,20.67l-0.266,0.923
			c-0.011,0.028-0.035,0.045-0.062,0.045h-0.448c-0.04,0-0.056-0.028-0.04-0.068l1.235-3.99c0-0.017,0.011-0.028,0.039-0.028h0.646
			c0.017,0,0.034,0.012,0.039,0.034l1.222,3.979c0.018,0.052,0,0.073-0.045,0.073h-0.492c-0.028,0-0.052-0.017-0.056-0.045
			l-0.266-0.923H169.279L169.279,20.67z"/>
		<path d="M174.118,21.117c0,0.028,0.011,0.045,0.04,0.045h1.568c0.039,0,0.057,0.023,0.057,0.063v0.355
			c0,0.04-0.018,0.058-0.057,0.058h-2.117c-0.04,0-0.057-0.018-0.057-0.058v-3.974c0-0.039,0.017-0.057,0.057-0.057h0.458
			c0.034,0,0.051,0.018,0.051,0.057V21.117L174.118,21.117z"/>
		<path d="M181.037,19.356h1.325c0.039,0,0.063,0.018,0.063,0.058v0.362c0,0.038-0.023,0.057-0.063,0.057h-1.325v1.284
			c0,0.028,0.012,0.046,0.04,0.046h1.646c0.04,0,0.063,0.017,0.063,0.056v0.363c0,0.039-0.022,0.056-0.063,0.056h-2.195
			c-0.04,0-0.057-0.017-0.057-0.056v-3.976c0-0.038,0.017-0.056,0.057-0.056h2.195c0.04,0,0.063,0.018,0.063,0.056v0.357
			c0,0.04-0.022,0.063-0.063,0.063h-1.646c-0.028,0-0.04,0.018-0.04,0.046V19.356L181.037,19.356z"/>
		<path d="M187.009,20.698v-3.091c0-0.039,0.016-0.057,0.05-0.057h0.448c0.039,0,0.056,0.018,0.056,0.057v3.974
			c0,0.04-0.017,0.058-0.056,0.058h-0.482c-0.051,0-0.061-0.007-0.079-0.046l-1.618-3.103v3.091c0,0.04-0.018,0.058-0.058,0.058
			h-0.44c-0.04,0-0.058-0.018-0.058-0.058v-3.974c0-0.039,0.018-0.057,0.058-0.057h0.476c0.05,0,0.062,0.006,0.079,0.046
			L187.009,20.698L187.009,20.698z"/>
		<path d="M191.858,20.002h-0.679c-0.04,0-0.057-0.017-0.057-0.057v-0.351c0-0.04,0.017-0.057,0.057-0.057h1.149
			c0.039,0,0.057,0.017,0.057,0.057v1.767c0,0.039-0.012,0.062-0.035,0.073c-0.316,0.164-0.645,0.243-1.075,0.243
			c-1.154,0-1.676-0.86-1.676-2.089c0-1.223,0.521-2.078,1.676-2.078c0.38,0,0.669,0.053,0.986,0.228
			c0.027,0.021,0.027,0.056,0.01,0.096l-0.164,0.312c-0.022,0.039-0.051,0.045-0.085,0.022c-0.243-0.119-0.396-0.17-0.713-0.17
			c-0.633,0-1.109,0.51-1.109,1.591c0,1.098,0.464,1.619,1.093,1.619c0.277,0,0.413-0.051,0.565-0.113V20.002L191.858,20.002z"/>
		<path d="M194.943,17.551c0.033,0,0.051,0.017,0.051,0.057v3.975c0,0.039-0.018,0.056-0.051,0.056h-0.46
			c-0.039,0-0.055-0.017-0.055-0.056v-3.975c0-0.04,0.016-0.057,0.055-0.057H194.943L194.943,17.551z"/>
		<path d="M199.44,20.698v-3.091c0-0.039,0.017-0.057,0.051-0.057h0.447c0.04,0,0.057,0.018,0.057,0.057v3.974
			c0,0.04-0.017,0.058-0.057,0.058h-0.481c-0.051,0-0.062-0.007-0.077-0.046l-1.619-3.103v3.091c0,0.04-0.019,0.058-0.059,0.058
			h-0.439c-0.04,0-0.059-0.018-0.059-0.058v-3.974c0-0.039,0.019-0.057,0.059-0.057h0.474c0.051,0,0.063,0.006,0.079,0.046
			L199.44,20.698L199.44,20.698z"/>
		<path d="M202.774,19.356h1.324c0.04,0,0.063,0.018,0.063,0.058v0.362c0,0.038-0.022,0.057-0.063,0.057h-1.324v1.284
			c0,0.028,0.011,0.046,0.04,0.046h1.646c0.04,0,0.063,0.017,0.063,0.056v0.363c0,0.039-0.022,0.056-0.063,0.056h-2.197
			c-0.039,0-0.056-0.017-0.056-0.056v-3.976c0-0.038,0.017-0.056,0.056-0.056h2.197c0.04,0,0.063,0.018,0.063,0.056v0.357
			c0,0.04-0.022,0.063-0.063,0.063h-1.646c-0.029,0-0.04,0.018-0.04,0.046V19.356L202.774,19.356z"/>
		<path d="M207.075,19.356h1.325c0.039,0,0.062,0.018,0.062,0.058v0.362c0,0.038-0.022,0.057-0.062,0.057h-1.325v1.284
			c0,0.028,0.011,0.046,0.04,0.046h1.647c0.04,0,0.062,0.017,0.062,0.056v0.363c0,0.039-0.021,0.056-0.062,0.056h-2.196
			c-0.04,0-0.057-0.017-0.057-0.056v-3.976c0-0.038,0.017-0.056,0.057-0.056h2.196c0.04,0,0.062,0.018,0.062,0.056v0.357
			c0,0.04-0.021,0.063-0.062,0.063h-1.647c-0.029,0-0.04,0.018-0.04,0.046V19.356L207.075,19.356z"/>
		<path d="M211.376,19.476h0.51c0.544,0,0.826-0.204,0.826-0.73c0-0.521-0.271-0.719-0.815-0.719h-0.475
			c-0.029,0-0.046,0.018-0.046,0.045V19.476L211.376,19.476z M211.376,19.917v1.665c0,0.04-0.017,0.057-0.051,0.057h-0.458
			c-0.04,0-0.058-0.017-0.058-0.057v-3.975c0-0.04,0.018-0.057,0.058-0.057h1.081c0.888,0,1.363,0.374,1.363,1.183
			c0,0.663-0.344,1.015-0.894,1.133l0.985,1.682c0.027,0.051,0.005,0.091-0.04,0.091h-0.532c-0.027,0-0.045-0.012-0.051-0.029
			l-0.946-1.692H211.376L211.376,19.917z"/>
		<path d="M215.943,17.551c0.034,0,0.051,0.017,0.051,0.057v3.975c0,0.039-0.017,0.056-0.051,0.056h-0.458
			c-0.041,0-0.056-0.017-0.056-0.056v-3.975c0-0.04,0.015-0.057,0.056-0.057H215.943L215.943,17.551z"/>
		<path d="M220.44,20.698v-3.091c0-0.039,0.018-0.057,0.052-0.057h0.446c0.04,0,0.058,0.018,0.058,0.057v3.974
			c0,0.04-0.018,0.058-0.058,0.058h-0.48c-0.051,0-0.063-0.007-0.078-0.046l-1.619-3.103v3.091c0,0.04-0.018,0.058-0.058,0.058
			h-0.441c-0.039,0-0.057-0.018-0.057-0.058v-3.974c0-0.039,0.018-0.057,0.057-0.057h0.476c0.051,0,0.063,0.006,0.078,0.046
			L220.44,20.698L220.44,20.698z"/>
		<path d="M225.291,20.002h-0.68c-0.039,0-0.056-0.017-0.056-0.057v-0.351c0-0.04,0.017-0.057,0.056-0.057h1.151
			c0.039,0,0.055,0.017,0.055,0.057v1.767c0,0.039-0.011,0.062-0.034,0.073c-0.315,0.164-0.645,0.243-1.075,0.243
			c-1.153,0-1.676-0.86-1.676-2.089c0-1.223,0.522-2.078,1.676-2.078c0.381,0,0.669,0.053,0.985,0.228
			c0.029,0.021,0.029,0.056,0.011,0.096l-0.164,0.312c-0.022,0.039-0.051,0.045-0.085,0.022c-0.243-0.119-0.396-0.17-0.713-0.17
			c-0.634,0-1.108,0.51-1.108,1.591c0,1.098,0.464,1.619,1.092,1.619c0.277,0,0.413-0.051,0.565-0.113V20.002L225.291,20.002z"/>
		<path d="M91.9,28.061l-0.617-2.071l-0.617,2.071H91.9L91.9,28.061z M90.53,28.536l-0.266,0.923
			c-0.011,0.028-0.034,0.045-0.062,0.045h-0.448c-0.039,0-0.056-0.028-0.039-0.068l1.234-3.99c0-0.017,0.011-0.028,0.039-0.028
			h0.646c0.017,0,0.034,0.012,0.039,0.034l1.223,3.979c0.017,0.052,0,0.073-0.045,0.073h-0.493c-0.028,0-0.051-0.017-0.056-0.045
			l-0.266-0.923H90.53L90.53,28.536z"/>
		<path d="M97.04,28.564v-3.091c0-0.039,0.017-0.056,0.051-0.056h0.447c0.04,0,0.058,0.017,0.058,0.056v3.974
			c0,0.04-0.018,0.058-0.058,0.058h-0.481c-0.051,0-0.062-0.007-0.079-0.045l-1.619-3.104v3.091c0,0.04-0.016,0.058-0.056,0.058
			h-0.443c-0.038,0-0.055-0.018-0.055-0.058v-3.974c0-0.039,0.017-0.056,0.055-0.056h0.476c0.052,0,0.062,0.005,0.079,0.045
			L97.04,28.564L97.04,28.564z"/>
		<path d="M100.906,29.028c0.77,0,1.104-0.464,1.104-1.567c0-1.104-0.334-1.568-1.1-1.568h-0.491c-0.029,0-0.046,0.018-0.046,0.045
			v3.046c0,0.028,0.012,0.045,0.039,0.045H100.906L100.906,29.028z M99.864,29.505c-0.04,0-0.057-0.019-0.057-0.057v-3.975
			c0-0.04,0.017-0.057,0.057-0.057h1.046c1.162,0,1.7,0.646,1.7,2.044c0,1.387-0.538,2.044-1.7,2.044H99.864L99.864,29.505z"/>
		<path d="M107.983,25.417c0.034,0,0.051,0.017,0.051,0.057v3.975c0,0.039-0.017,0.056-0.051,0.056h-0.458
			c-0.041,0-0.057-0.017-0.057-0.056v-3.975c0-0.04,0.016-0.057,0.057-0.057H107.983L107.983,25.417z"/>
		<path d="M112.481,28.564v-3.091c0-0.039,0.017-0.056,0.051-0.056h0.447c0.04,0,0.057,0.017,0.057,0.056v3.974
			c0,0.04-0.017,0.058-0.057,0.058h-0.481c-0.051,0-0.062-0.007-0.079-0.045l-1.619-3.104v3.091c0,0.04-0.017,0.058-0.057,0.058
			h-0.442c-0.039,0-0.056-0.018-0.056-0.058v-3.974c0-0.039,0.017-0.056,0.056-0.056h0.476c0.051,0,0.062,0.005,0.079,0.045
			L112.481,28.564L112.481,28.564z"/>
		<path d="M115.814,27.223h1.268c0.04,0,0.062,0.018,0.062,0.058v0.362c0,0.038-0.022,0.057-0.062,0.057h-1.268v1.749
			c0,0.039-0.017,0.056-0.051,0.056h-0.458c-0.04,0-0.057-0.017-0.057-0.056v-3.976c0-0.038,0.017-0.056,0.057-0.056h2.139
			c0.04,0,0.063,0.018,0.063,0.056v0.357c0,0.04-0.023,0.063-0.063,0.063h-1.585c-0.028,0-0.045,0.018-0.045,0.046V27.223
			L115.814,27.223z"/>
		<path d="M120.805,25.853c-0.673,0-1.025,0.526-1.025,1.608c0,1.081,0.352,1.607,1.025,1.607c0.663,0,1.019-0.526,1.019-1.607
			C121.824,26.379,121.468,25.853,120.805,25.853 M120.805,29.544c-1.24,0-1.619-0.832-1.619-2.083c0-1.268,0.369-2.084,1.619-2.084
			c1.235,0,1.614,0.816,1.614,2.084C122.419,28.712,122.041,29.544,120.805,29.544"/>
		<path d="M125.028,27.342h0.509c0.544,0,0.827-0.204,0.827-0.73c0-0.521-0.272-0.719-0.815-0.719h-0.476
			c-0.028,0-0.045,0.018-0.045,0.045V27.342L125.028,27.342z M125.028,27.783v1.665c0,0.04-0.016,0.057-0.051,0.057h-0.458
			c-0.04,0-0.057-0.017-0.057-0.057v-3.975c0-0.04,0.017-0.057,0.057-0.057h1.081c0.888,0,1.364,0.374,1.364,1.183
			c0,0.663-0.345,1.015-0.894,1.133l0.985,1.682c0.028,0.051,0.005,0.091-0.04,0.091h-0.532c-0.028,0-0.045-0.012-0.051-0.029
			l-0.946-1.692H125.028L125.028,27.783z"/>
		<path d="M130.608,29.505c-0.027,0-0.045-0.012-0.051-0.034l-0.945-3.097v3.073c0,0.04-0.016,0.058-0.057,0.058h-0.418
			c-0.04,0-0.056-0.018-0.056-0.058v-3.974c0-0.039,0.016-0.057,0.056-0.057h0.612c0.028,0,0.05,0.012,0.056,0.034l1.059,3.374
			l1.064-3.374c0.01-0.022,0.034-0.034,0.062-0.034h0.561c0.034,0,0.05,0.018,0.05,0.057v3.974c0,0.04-0.016,0.058-0.05,0.058
			h-0.425c-0.039,0-0.057-0.018-0.057-0.058v-3.073l-0.939,3.097c-0.006,0.022-0.024,0.034-0.051,0.034H130.608L130.608,29.505z"/>
		<path d="M136.694,28.061l-0.617-2.071l-0.617,2.071H136.694L136.694,28.061z M135.324,28.536l-0.266,0.923
			c-0.01,0.028-0.034,0.045-0.062,0.045h-0.447c-0.039,0-0.057-0.028-0.039-0.068l1.233-3.99c0-0.017,0.011-0.028,0.039-0.028h0.647
			c0.016,0,0.033,0.012,0.039,0.034l1.222,3.979c0.017,0.052,0,0.073-0.045,0.073h-0.493c-0.028,0-0.051-0.017-0.055-0.045
			l-0.267-0.923H135.324L135.324,28.536z"/>
		<path d="M140.073,29.505c-0.034,0-0.052-0.018-0.052-0.058v-3.509c0-0.029-0.016-0.046-0.045-0.046h-0.979
			c-0.039,0-0.057-0.022-0.057-0.063v-0.356c0-0.039,0.018-0.057,0.057-0.057h2.615c0.039,0,0.057,0.018,0.057,0.057v0.356
			c0,0.04-0.018,0.063-0.057,0.063h-0.984c-0.03,0-0.04,0.017-0.04,0.046v3.509c0,0.04-0.018,0.058-0.057,0.058H140.073
			L140.073,29.505z"/>
		<path d="M144.085,25.417c0.034,0,0.051,0.017,0.051,0.057v3.975c0,0.039-0.017,0.056-0.051,0.056h-0.458
			c-0.041,0-0.057-0.017-0.057-0.056v-3.975c0-0.04,0.016-0.057,0.057-0.057H144.085L144.085,25.417z"/>
		<path d="M147.795,25.853c-0.674,0-1.025,0.526-1.025,1.608c0,1.081,0.351,1.607,1.025,1.607c0.662,0,1.019-0.526,1.019-1.607
			C148.814,26.379,148.458,25.853,147.795,25.853 M147.795,29.544c-1.24,0-1.618-0.832-1.618-2.083c0-1.268,0.367-2.084,1.618-2.084
			c1.234,0,1.613,0.816,1.613,2.084C149.408,28.712,149.029,29.544,147.795,29.544"/>
		<path d="M153.688,28.564v-3.091c0-0.039,0.018-0.056,0.052-0.056h0.446c0.04,0,0.058,0.017,0.058,0.056v3.974
			c0,0.04-0.018,0.058-0.058,0.058h-0.48c-0.051,0-0.063-0.007-0.079-0.045l-1.619-3.104v3.091c0,0.04-0.017,0.058-0.057,0.058
			h-0.442c-0.039,0-0.056-0.018-0.056-0.058v-3.974c0-0.039,0.017-0.056,0.056-0.056h0.476c0.051,0,0.062,0.005,0.078,0.045
			L153.688,28.564L153.688,28.564z"/>
		<path d="M160.087,29.505c-0.034,0-0.051-0.018-0.051-0.058v-3.509c0-0.029-0.018-0.046-0.045-0.046h-0.98
			c-0.039,0-0.056-0.022-0.056-0.063v-0.356c0-0.039,0.017-0.057,0.056-0.057h2.616c0.039,0,0.055,0.018,0.055,0.057v0.356
			c0,0.04-0.016,0.063-0.055,0.063h-0.986c-0.028,0-0.04,0.017-0.04,0.046v3.509c0,0.04-0.016,0.058-0.056,0.058H160.087
			L160.087,29.505z"/>
		<path d="M164.149,27.223h1.325c0.039,0,0.063,0.018,0.063,0.058v0.362c0,0.038-0.024,0.057-0.063,0.057h-1.325v1.284
			c0,0.028,0.012,0.046,0.04,0.046h1.648c0.04,0,0.061,0.017,0.061,0.056v0.363c0,0.039-0.021,0.056-0.061,0.056h-2.198
			c-0.039,0-0.055-0.017-0.055-0.056v-3.976c0-0.038,0.016-0.056,0.055-0.056h2.198c0.04,0,0.061,0.018,0.061,0.056v0.357
			c0,0.04-0.021,0.063-0.061,0.063h-1.648c-0.028,0-0.04,0.018-0.04,0.046V27.223L164.149,27.223z"/>
		<path d="M169.441,29.544c-1.154,0-1.67-0.849-1.67-2.089c0-1.224,0.516-2.078,1.67-2.078c0.386,0,0.669,0.052,0.986,0.227
			c0.028,0.023,0.028,0.058,0.01,0.097l-0.169,0.312c-0.016,0.039-0.051,0.039-0.08,0.022c-0.242-0.118-0.395-0.17-0.713-0.17
			c-0.633,0-1.103,0.51-1.103,1.591c0,1.098,0.459,1.602,1.103,1.602c0.284,0,0.464-0.039,0.72-0.175
			c0.033-0.017,0.057-0.012,0.073,0.016l0.176,0.323c0.017,0.034,0.011,0.063-0.017,0.091
			C170.099,29.493,169.833,29.544,169.441,29.544"/>
		<path d="M172.996,27.698c-0.027,0-0.045,0.018-0.045,0.046v1.703c0,0.04-0.018,0.058-0.051,0.058h-0.459
			c-0.04,0-0.055-0.018-0.055-0.058v-3.974c0-0.04,0.015-0.057,0.055-0.057h0.459c0.033,0,0.051,0.017,0.051,0.057v1.704
			c0,0.028,0.018,0.045,0.045,0.045h1.563c0.029,0,0.044-0.017,0.044-0.045v-1.704c0-0.04,0.018-0.057,0.057-0.057h0.453
			c0.04,0,0.058,0.017,0.058,0.057v3.974c0,0.04-0.018,0.058-0.058,0.058h-0.453c-0.039,0-0.057-0.018-0.057-0.058v-1.703
			c0-0.028-0.015-0.046-0.044-0.046H172.996L172.996,27.698z"/>
		<path d="M179.617,28.564v-3.091c0-0.039,0.019-0.056,0.052-0.056h0.446c0.04,0,0.059,0.017,0.059,0.056v3.974
			c0,0.04-0.019,0.058-0.059,0.058h-0.479c-0.052,0-0.063-0.007-0.08-0.045l-1.619-3.104v3.091c0,0.04-0.017,0.058-0.056,0.058
			h-0.443c-0.039,0-0.056-0.018-0.056-0.058v-3.974c0-0.039,0.017-0.056,0.056-0.056h0.477c0.052,0,0.062,0.005,0.078,0.045
			L179.617,28.564L179.617,28.564z"/>
		<path d="M183.835,25.853c-0.674,0-1.025,0.526-1.025,1.608c0,1.081,0.352,1.607,1.025,1.607c0.662,0,1.019-0.526,1.019-1.607
			C184.854,26.379,184.497,25.853,183.835,25.853 M183.835,29.544c-1.239,0-1.618-0.832-1.618-2.083
			c0-1.268,0.367-2.084,1.618-2.084c1.234,0,1.613,0.816,1.613,2.084C185.448,28.712,185.069,29.544,183.835,29.544"/>
		<path d="M188.058,28.983c0,0.028,0.011,0.045,0.04,0.045h1.567c0.039,0,0.057,0.023,0.057,0.063v0.355
			c0,0.04-0.018,0.058-0.057,0.058h-2.117c-0.039,0-0.057-0.018-0.057-0.058v-3.974c0-0.039,0.018-0.057,0.057-0.057h0.459
			c0.033,0,0.051,0.018,0.051,0.057V28.983L188.058,28.983z"/>
		<path d="M192.811,25.853c-0.673,0-1.025,0.526-1.025,1.608c0,1.081,0.353,1.607,1.025,1.607c0.662,0,1.019-0.526,1.019-1.607
			C193.829,26.379,193.473,25.853,192.811,25.853 M192.811,29.544c-1.24,0-1.619-0.832-1.619-2.083c0-1.268,0.368-2.084,1.619-2.084
			c1.234,0,1.614,0.816,1.614,2.084C194.425,28.712,194.045,29.544,192.811,29.544"/>
		<path d="M198.557,27.868h-0.681c-0.039,0-0.056-0.017-0.056-0.057v-0.351c0-0.04,0.017-0.057,0.056-0.057h1.15
			c0.039,0,0.056,0.017,0.056,0.057v1.767c0,0.039-0.011,0.062-0.033,0.073c-0.317,0.164-0.646,0.243-1.075,0.243
			c-1.155,0-1.676-0.86-1.676-2.089c0-1.223,0.521-2.078,1.676-2.078c0.379,0,0.668,0.052,0.984,0.228
			c0.028,0.021,0.028,0.056,0.012,0.096l-0.164,0.312c-0.023,0.039-0.051,0.045-0.085,0.022c-0.244-0.119-0.396-0.17-0.713-0.17
			c-0.635,0-1.11,0.51-1.11,1.591c0,1.098,0.464,1.619,1.093,1.619c0.277,0,0.413-0.051,0.566-0.113V27.868L198.557,27.868z"/>
		<path d="M202.546,27.772v1.67c0,0.04-0.017,0.062-0.057,0.062h-0.453c-0.039,0-0.057-0.021-0.057-0.062v-1.67l-1.172-2.265
			c-0.028-0.051-0.005-0.091,0.045-0.091h0.516c0.028,0,0.046,0.012,0.058,0.034l0.871,1.795l0.878-1.795
			c0.006-0.022,0.022-0.034,0.05-0.034h0.481c0.046,0,0.067,0.04,0.052,0.08L202.546,27.772L202.546,27.772z"/>
		<path fill="#2A4A96" d="M2.492,13.288c0.845,0,1.534-0.686,1.534-1.534c0-0.849-0.689-1.529-1.534-1.529
			c-0.847,0-1.533,0.68-1.533,1.529C0.958,12.602,1.645,13.288,2.492,13.288"/>
		<path fill="#2A4A96" d="M2.492,21.71c0.845,0,1.534-0.685,1.534-1.531c0-0.846-0.689-1.535-1.534-1.535
			c-0.847,0-1.533,0.689-1.533,1.535C0.958,21.025,1.645,21.71,2.492,21.71"/>
		<path fill="#2A4A96" d="M10.916,13.288c0.847,0,1.532-0.686,1.532-1.534c0-0.849-0.685-1.529-1.532-1.529
			c-0.849,0-1.534,0.68-1.534,1.529C9.382,12.602,10.067,13.288,10.916,13.288"/>
		<path fill="#2A4A96" d="M10.916,21.71c0.847,0,1.532-0.685,1.532-1.531c0-0.846-0.685-1.535-1.532-1.535
			c-0.849,0-1.534,0.689-1.534,1.535C9.382,21.025,10.067,21.71,10.916,21.71"/>
		<path fill="#2A4A96" d="M19.336,13.288c0.85,0,1.535-0.686,1.535-1.534c0-0.849-0.685-1.529-1.535-1.529
			c-0.848,0-1.529,0.68-1.529,1.529C17.807,12.602,18.488,13.288,19.336,13.288"/>
		<path fill="#2A4A96" d="M2.492,4.863c0.845,0,1.534-0.686,1.534-1.532c0-0.848-0.689-1.532-1.534-1.532
			c-0.847,0-1.533,0.684-1.533,1.532C0.958,4.177,1.645,4.863,2.492,4.863"/>
		<path fill="#2A4A96" d="M10.916,4.863c0.847,0,1.532-0.686,1.532-1.532c0-0.848-0.685-1.532-1.532-1.532
			c-0.849,0-1.534,0.684-1.534,1.532C9.382,4.177,10.067,4.863,10.916,4.863"/>
		<path fill="#2A4A96" d="M19.336,4.863c0.85,0,1.535-0.686,1.535-1.532c0-0.848-0.685-1.532-1.535-1.532
			c-0.848,0-1.529,0.684-1.529,1.532C17.807,4.177,18.488,4.863,19.336,4.863"/>
		<path fill="#2A4A96" d="M19.336,21.71c0.85,0,1.535-0.685,1.535-1.531c0-0.846-0.685-1.535-1.535-1.535
			c-0.848,0-1.529,0.689-1.529,1.535C17.807,21.025,18.488,21.71,19.336,21.71"/>
		<path fill="#2A4A96" d="M27.762,13.288c0.846,0,1.533-0.686,1.533-1.534c0-0.849-0.688-1.529-1.533-1.529
			c-0.849,0-1.532,0.68-1.532,1.529C26.229,12.602,26.913,13.288,27.762,13.288"/>
		<path fill="#2A4A96" d="M27.762,21.71c0.846,0,1.533-0.685,1.533-1.531c0-0.846-0.688-1.535-1.533-1.535
			c-0.849,0-1.532,0.689-1.532,1.535C26.229,21.025,26.913,21.71,27.762,21.71"/>
		<path fill="#2A4A96" d="M27.762,4.863c0.846,0,1.533-0.686,1.533-1.534c0-0.843-0.688-1.531-1.533-1.531
			c-0.849,0-1.532,0.688-1.532,1.531C26.229,4.177,26.913,4.863,27.762,4.863"/>
		<path d="M38.068,14.496c0-0.058,0.033-0.092,0.091-0.092h3.174c0.08,0,0.125-0.045,0.125-0.124v-0.714
			c0-0.08-0.045-0.113-0.125-0.113h-4.284c-0.081,0-0.113,0.033-0.113,0.113v7.956c0,0.08,0.032,0.114,0.113,0.114h0.917
			c0.068,0,0.102-0.034,0.102-0.114V18.02h2.54c0.079,0,0.124-0.033,0.124-0.113v-0.725c0-0.08-0.044-0.113-0.124-0.113h-2.54
			V14.496L38.068,14.496z M46.285,14.496c0-0.058,0.021-0.092,0.079-0.092h3.298c0.079,0,0.125-0.045,0.125-0.124v-0.714
			c0-0.08-0.046-0.113-0.125-0.113h-4.398c-0.078,0-0.113,0.033-0.113,0.113v7.956c0,0.08,0.035,0.114,0.113,0.114h4.398
			c0.079,0,0.125-0.034,0.125-0.114v-0.725c0-0.08-0.046-0.112-0.125-0.112h-3.298c-0.058,0-0.079-0.035-0.079-0.092V18.02h2.651
			c0.079,0,0.125-0.033,0.125-0.113v-0.725c0-0.08-0.046-0.113-0.125-0.113h-2.651V14.496L46.285,14.496z M53.867,13.453
			c-0.08,0-0.113,0.033-0.113,0.113v7.956c0,0.08,0.033,0.114,0.113,0.114h0.918c0.069,0,0.101-0.034,0.101-0.114v-7.956
			c0-0.08-0.032-0.113-0.101-0.113H53.867L53.867,13.453z"/>
		<path d="M36.674,9.705c0.771,0.396,1.507,0.477,2.448,0.477c1.745,0,2.868-0.873,2.868-2.459c0-1.157-0.544-1.86-1.961-2.46
			c-1.212-0.488-1.382-0.703-1.382-1.156c0-0.465,0.317-0.783,1.043-0.783c0.532,0,0.985,0.092,1.427,0.273
			c0.102,0.045,0.17,0,0.203-0.08l0.534-1.042c0.033-0.08,0.033-0.159-0.069-0.193C40.958,1.92,40.482,1.84,39.382,1.84
			c-1.688,0-2.686,0.986-2.686,2.312c0,1.213,0.612,1.961,2.029,2.561c1.098,0.488,1.325,0.725,1.325,1.19
			c0,0.499-0.407,0.794-1.087,0.794c-0.782,0-1.179-0.159-1.655-0.375c-0.091-0.033-0.158,0-0.193,0.08l-0.51,1.167
			C36.583,9.615,36.605,9.66,36.674,9.705 M49.22,10.101c0.101,0,0.146-0.044,0.146-0.146V3.461c0-0.057,0.024-0.091,0.08-0.091
			h1.926c0.091,0,0.137-0.046,0.137-0.147V2.066c0-0.101-0.046-0.146-0.137-0.146h-5.779c-0.103,0-0.148,0.045-0.148,0.146v1.157
			c0,0.101,0.045,0.147,0.148,0.147h1.893c0.056,0,0.089,0.034,0.089,0.091v6.494c0,0.102,0.045,0.146,0.124,0.146H49.22
			L49.22,10.101z M61.55,2.066c0-0.101-0.045-0.146-0.125-0.146h-1.529c-0.091,0-0.137,0.045-0.137,0.146v5.463
			c0,0.805-0.441,1.201-1.336,1.201c-0.884,0-1.327-0.396-1.327-1.201V2.066c0-0.101-0.046-0.146-0.124-0.146h-1.52
			c-0.101,0-0.146,0.045-0.146,0.146v5.508c0,1.599,0.894,2.608,3.117,2.608c2.231,0,3.127-1.009,3.127-2.608V2.066L61.55,2.066z"/>
	</g>
</g>
</svg>
