<?xml version="1.0" encoding="utf-8"?>
<!-- Generator: Adobe Illustrator 16.0.0, SVG Export Plug-In . SVG Version: 6.00 Build 0)  -->
<!DOCTYPE svg PUBLIC "-//W3C//DTD SVG 1.1//EN" "http://www.w3.org/Graphics/SVG/1.1/DTD/svg11.dtd">
<svg version="1.1" id="Warstwa_1" xmlns="http://www.w3.org/2000/svg" xmlns:xlink="http://www.w3.org/1999/xlink" x="0px" y="0px"
	 width="291.733px" height="89.44px" viewBox="0 0 291.733 89.44" enable-background="new 0 0 291.733 89.44" xml:space="preserve">
<g>
	<g>
		<defs>
			<rect id="SVGID_1_" width="291.732" height="89.44"/>
		</defs>
		<clipPath id="SVGID_2_">
			<use xlink:href="#SVGID_1_"  overflow="visible"/>
		</clipPath>
		<path clip-path="url(#SVGID_2_)" d="M8.593,7.712H19.72V0.551H0v24.972h8.593v-7.822h9.292v-6.978H8.593V7.712L8.593,7.712z
			 M44.597,22.659l0.992,2.865h9.144L44.597,0.404h-8.52L25.94,25.523h9.145l0.992-2.865H44.597L44.597,22.659z M42.319,15.975
			h-3.966l1.983-5.729L42.319,15.975L42.319,15.975z M73.24,18.215c-3.121,0-4.811-2.534-4.811-5.178
			c0-2.644,1.689-5.178,4.811-5.178c2.607,0,4.187,1.763,4.408,3.819h8.85C86.387,4.921,81.099,0,73.388,0
			c-8.227,0-13.698,5.583-13.698,13.037c0,7.455,5.472,13.037,13.698,13.037c7.711,0,13-4.921,13.11-11.678h-8.85
			C77.427,16.453,75.848,18.215,73.24,18.215 M121.936,0.551h-8.741v12.854c0,2.974-1.358,4.627-3.745,4.627
			c-2.387,0-3.746-1.653-3.746-4.627V0.551h-8.74v12.486c0,8.593,4.48,13.037,12.486,13.037c8.005,0,12.486-4.444,12.486-13.037
			V0.551L121.936,0.551z M152.801,18.179H141.49V0.551h-8.593v24.972h19.904V18.179L152.801,18.179z M181.078,7.896V0.551h-22.402
			v7.345h6.904v17.627h8.594V7.896H181.078L181.078,7.896z M205.462,19.427l9.731-18.875h-9.512l-4.553,8.74l-4.481-8.74h-9.511
			l9.732,18.875l0.036,6.097h8.594L205.462,19.427L205.462,19.427z M250.374,0c-8.227,0-13.697,5.583-13.697,13.037
			c0,7.455,5.471,13.037,13.697,13.037c8.226,0,13.699-5.582,13.699-13.037C264.073,5.583,258.6,0,250.374,0 M250.374,18.032
			c-2.975,0-4.957-2.35-4.957-4.995c0-2.644,1.982-4.995,4.957-4.995s4.958,2.351,4.958,4.995
			C255.332,15.682,253.349,18.032,250.374,18.032 M280.56,7.712h11.127V0.551h-19.719v24.972h8.592v-7.822h9.291v-6.978h-9.291
			V7.712L280.56,7.712z"/>
	</g>
	<polygon points="165.611,34.481 161.057,43.222 156.578,34.481 147.066,34.481 156.798,53.371 156.835,59.481 165.428,59.481 
		165.391,53.371 175.123,34.481 165.611,34.481 	"/>
	<path d="M197.854,43.97l-4.627-1.212c-0.844-0.221-1.174-0.441-1.174-0.992c0-0.662,0.697-1.001,1.542-1.001
		c1.322,0,1.946,0.717,2.277,1.717h8.74c-0.698-7-7.749-8.583-11.495-8.583c-6.243,0-10.725,3.071-10.725,8.58
		c0,4.113,2.535,6.071,7.419,7.429l4.261,1.181c1.064,0.294,1.285,0.59,1.285,0.958c0,0.515-0.44,1.205-1.873,1.205
		c-1.873,0-3.049-0.77-3.415-1.77h-8.704c0.992,7,7.64,8.785,12.119,8.785c7.051,0,11.53-3.246,11.53-8.681
		C205.015,46.922,201.747,44.998,197.854,43.97L197.854,43.97z"/>
	<polygon points="215.169,59.481 224.169,59.481 224.169,34.481 215.169,34.481 215.169,59.481 	"/>
	<polygon points="129.168,43.481 122.168,43.481 122.168,34.481 113.168,34.481 113.168,59.481 122.168,59.481 122.168,51.481 
		129.168,51.481 129.168,59.481 138.168,59.481 138.168,34.481 129.168,34.481 129.168,43.481 	"/>
	<path d="M283.792,43.97l-4.627-1.212c-0.845-0.221-1.176-0.441-1.176-0.992c0-0.662,0.697-1.001,1.543-1.001
		c1.32,0,1.945,0.717,2.275,1.717h8.742c-0.699-7-7.749-8.583-11.495-8.583c-6.243,0-10.723,3.071-10.723,8.58
		c0,4.113,2.533,6.071,7.417,7.429l4.261,1.181c1.064,0.294,1.285,0.59,1.285,0.958c0,0.515-0.442,1.205-1.873,1.205
		c-1.873,0-3.048-0.77-3.415-1.77h-8.703c0.991,7,7.638,8.785,12.118,8.785c7.051,0,11.531-3.246,11.531-8.681
		C290.953,46.922,287.685,44.998,283.792,43.97L283.792,43.97z"/>
	<g>
		<defs>
			<rect id="SVGID_3_" width="291.732" height="89.44"/>
		</defs>
		<clipPath id="SVGID_4_">
			<use xlink:href="#SVGID_3_"  overflow="visible"/>
		</clipPath>
		<path clip-path="url(#SVGID_4_)" d="M247.15,41.732c2.607,0,4.188,1.749,4.406,3.749h8.852c-0.11-7-5.398-11.607-13.11-11.607
			c-8.227,0-13.699,5.617-13.699,13.072c0,7.455,5.473,13.125,13.699,13.125c7.712,0,13-4.59,13.11-11.59h-8.852
			c-0.219,2-1.799,3.748-4.406,3.748c-3.121,0-4.811-2.604-4.811-5.248C242.34,44.337,244.029,41.732,247.15,41.732L247.15,41.732z"
			/>
		<path clip-path="url(#SVGID_4_)" d="M246.069,82.341h-0.757l-1.972,5.894l-1.971-5.894h-0.634l-1.973,5.905l-1.971-5.905h-0.767
			l2.381,6.998h0.704l1.941-5.731l1.931,5.731h0.716L246.069,82.341L246.069,82.341z M252.741,87.265l0.898,2.022h0.777
			l-3.147-6.998h-0.694l-3.146,6.998h0.776l0.897-2.022H252.741L252.741,87.265z M252.445,86.602H249.4l1.523-3.435L252.445,86.602
			L252.445,86.602z M259.496,86.764l2.166,2.523h0.908l-2.227-2.585c1.165-0.225,1.93-1.011,1.93-2.145
			c0-1.37-1.093-2.217-2.645-2.217h-2.585v6.946h0.723v-2.523H259.496L259.496,86.764z M257.767,86.101v-3.097h1.841
			c1.135,0,1.942,0.582,1.942,1.554c0,0.96-0.808,1.543-1.942,1.543H257.767L257.767,86.101z M267.956,82.187
			c-1.483,0-2.474,0.796-2.474,1.992c0,0.939,0.644,1.584,1.921,1.819l1.207,0.234c0.908,0.163,1.308,0.604,1.308,1.186
			c0,0.828-0.705,1.37-1.811,1.37c-1.276,0-2.032-0.634-2.206-1.718h-0.715c0.163,1.502,1.227,2.37,2.893,2.37
			c1.553,0,2.584-0.837,2.584-2.104c0-0.992-0.704-1.574-1.931-1.81l-1.053-0.204c-0.92-0.163-1.431-0.552-1.431-1.186
			c0-0.808,0.694-1.319,1.748-1.319c1.175,0,1.788,0.553,1.952,1.401h0.714C270.489,82.85,269.355,82.187,267.956,82.187
			 M278.388,87.265l0.898,2.022h0.776l-3.146-6.998h-0.696l-3.146,6.998h0.775l0.9-2.022H278.388L278.388,87.265z M278.092,86.602
			h-3.045l1.522-3.435L278.092,86.602L278.092,86.602z M291.456,82.341h-0.757l-1.973,5.894l-1.97-5.894h-0.634l-1.972,5.905
			l-1.973-5.905h-0.766l2.38,6.998h0.705l1.94-5.731l1.933,5.731h0.714L291.456,82.341L291.456,82.341z"/>
	</g>
	<path d="M235.429,68.478h-0.73v7.002h0.73V68.478L235.429,68.478z M245.573,68.478h-0.805l-2.77,6.076l-2.771-6.076h-0.802
		l3.233,7.054h0.68L245.573,68.478L245.573,68.478z M249.301,69.146h4.13v-0.668h-4.859v7.002h4.859v-0.668h-4.13v-2.474h3.718
		V71.66h-3.718V69.146L249.301,69.146z M259.302,72.936l2.185,2.544h0.915l-2.244-2.605c1.175-0.227,1.944-1.02,1.944-2.162
		c0-1.381-1.1-2.234-2.667-2.234h-2.604v7.002h0.729v-2.544H259.302L259.302,72.936z M257.56,72.268v-3.122h1.855
		c1.144,0,1.958,0.587,1.958,1.566c0,0.968-0.814,1.556-1.958,1.556H257.56L257.56,72.268z M267.83,68.322
		c-1.494,0-2.491,0.803-2.491,2.008c0,0.948,0.647,1.597,1.935,1.834l1.216,0.236c0.917,0.165,1.318,0.608,1.318,1.195
		c0,0.835-0.711,1.38-1.823,1.38c-1.287,0-2.051-0.639-2.225-1.73h-0.721c0.165,1.515,1.234,2.389,2.914,2.389
		c1.565,0,2.604-0.844,2.604-2.12c0-0.999-0.71-1.587-1.945-1.824l-1.061-0.205c-0.927-0.165-1.442-0.557-1.442-1.195
		c0-0.813,0.699-1.329,1.762-1.329c1.184,0,1.803,0.557,1.968,1.411h0.719C270.384,68.99,269.242,68.322,267.83,68.322
		 M274.853,68.478h-0.729v7.002h0.729V68.478L274.853,68.478z M283.514,69.146v-0.668h-5.94v0.668h2.606v6.334h0.729v-6.334H283.514
		L283.514,69.146z M291.732,68.478h-0.813l-2.45,3.82l-2.452-3.82h-0.813l2.904,4.5v2.502h0.73v-2.502L291.732,68.478
		L291.732,68.478z"/>
	<polygon points="230.9,68.478 230.17,68.478 230.17,74.224 225.564,68.478 224.969,68.478 224.969,75.479 225.699,75.479 
		225.699,69.806 230.271,75.479 230.9,75.479 230.9,68.478 	"/>
	<path d="M221.137,68.478h-0.72v4.026c0,1.4-0.907,2.452-2.257,2.452s-2.245-1.052-2.245-2.452v-4.026h-0.731v4.026
		c0,1.844,1.185,3.13,2.977,3.13c1.793,0,2.977-1.286,2.977-3.13V68.478L221.137,68.478z"/>
	<polygon points="225.678,83.004 229.693,83.004 229.693,82.341 224.955,82.341 224.955,89.287 225.678,89.287 225.678,86.344 
		229.255,86.344 229.255,85.672 225.678,85.672 225.678,83.004 	"/>
	<path d="M218.518,88.757c-1.625,0-2.892-1.329-2.892-2.943s1.267-2.943,2.892-2.943c1.616,0,2.884,1.329,2.884,2.943
		S220.134,88.757,218.518,88.757L218.518,88.757z M218.518,82.197c-2.003,0-3.615,1.613-3.615,3.616s1.612,3.616,3.615,3.616
		c2.004,0,3.618-1.613,3.618-3.616S220.521,82.197,218.518,82.197L218.518,82.197z"/>
	<polygon points="67.776,46.919 67.625,45.269 62.498,45.735 62.648,47.385 67.776,46.919 	"/>
	<polygon points="50.373,47.237 50.615,48.875 57.215,47.897 56.972,46.258 50.373,47.237 	"/>
	<polygon points="75.421,35.619 71.583,31.958 70.44,33.157 74.277,36.818 75.421,35.619 	"/>
	<polygon points="74.281,52.561 68.735,56.354 69.67,57.721 75.216,53.928 74.281,52.561 	"/>
	<polygon points="75.365,40.635 71.104,38.972 70.502,40.515 74.762,42.178 75.365,40.635 	"/>
	<polygon points="70.754,53.698 73.914,51.982 73.123,50.525 69.963,52.241 70.754,53.698 	"/>
	<polygon points="64.042,53.124 68.568,51.017 67.869,49.515 63.343,51.622 64.042,53.124 	"/>
	<polygon points="69.017,52.812 64.258,56.203 65.22,57.553 69.978,54.161 69.017,52.812 	"/>
	<polygon points="57.532,62.341 58.677,63.538 64.22,58.237 63.075,57.04 57.532,62.341 	"/>
	<polygon points="68.77,42.857 72.402,44.363 73.036,42.832 69.404,41.326 68.77,42.857 	"/>
	<polygon points="74.556,46.974 69.405,49.112 70.04,50.643 75.19,48.505 74.556,46.974 	"/>
	<polygon points="70.182,63.156 71.327,64.354 75.49,60.373 74.344,59.176 70.182,63.156 	"/>
	<polygon points="64.74,37.032 69.232,39.801 70.102,38.391 65.611,35.622 64.74,37.032 	"/>
	<polygon points="69.288,35.207 65.646,32.437 64.644,33.755 68.285,36.525 69.288,35.207 	"/>
	<polygon points="59.303,36.586 55.749,33.761 54.717,35.058 58.272,37.883 59.303,36.586 	"/>
	<polygon points="43.333,48.756 43.656,50.381 48.705,49.381 48.382,47.756 43.333,48.756 	"/>
	<path d="M91.684,47.216H89.33v-5.591h2.354c1.987,0,3.127,0.993,3.127,2.795C94.811,46.223,93.67,47.216,91.684,47.216
		L91.684,47.216z M91.684,34.488H80.84l-3.002-1.574l-0.769,1.467l3.651,1.915v0.277l-5.118,1.195l0.376,1.613l4.742-1.107v1.732
		l-1.215-1.188l-1.158,1.186l1.609,1.572l-3.557-0.704l-0.321,1.625l4.643,0.918v0.568l-6.446-0.843l-0.214,1.643l6.661,0.871v0.406
		l-4.946,0.558l0.186,1.646l4.76-0.537v0.784l-4.872,0.979l0.326,1.625l4.546-0.914v1.388l-3.345-0.658l-0.32,1.625l3.027,0.596
		l-6.361,3.354l0.773,1.465l6.227-3.283v0.668l-4.592,3.256l0.958,1.352l3.634-2.577v0.824l-5.224,3.313l0.888,1.398l5.389-3.417
		h7.454v-0.003h0.104v-5.149h2.354c7.615,0,11.882-3.568,11.882-9.933C103.566,38.056,99.299,34.488,91.684,34.488L91.684,34.488z"
		/>
</g>
</svg>
