<?xml version="1.0" encoding="utf-8"?>
<!-- Generator: Adobe Illustrator 16.0.0, SVG Export Plug-In . SVG Version: 6.00 Build 0)  -->
<!DOCTYPE svg PUBLIC "-//W3C//DTD SVG 1.1//EN" "http://www.w3.org/Graphics/SVG/1.1/DTD/svg11.dtd">
<svg version="1.1" id="Layer_1" xmlns="http://www.w3.org/2000/svg" xmlns:xlink="http://www.w3.org/1999/xlink" x="0px" y="0px"
	 width="971.063px" height="444.964px" viewBox="0 0 971.063 444.964" enable-background="new 0 0 971.063 444.964"
	 xml:space="preserve">
<path d="M367.356,67.654c0,8.955-7.235,16.19-16.19,16.19c-8.953,0-16.188-7.235-16.188-16.19c0-8.954,7.235-16.188,16.188-16.188
	C360.121,51.466,367.356,58.7,367.356,67.654"/>
<path d="M134.24,223.064c0,8.954-7.234,16.188-16.188,16.188s-16.189-7.233-16.189-16.188c0-8.955,7.235-16.188,16.189-16.188
	S134.24,214.109,134.24,223.064"/>
<path d="M237.847,352.572c0,8.955-7.233,16.188-16.188,16.188s-16.189-7.233-16.189-16.188c0-8.954,7.234-16.188,16.189-16.188
	S237.847,343.618,237.847,352.572"/>
<path d="M341.454,378.474c0,8.954-7.235,16.188-16.188,16.188c-8.955,0-16.189-7.234-16.189-16.188
	c0-8.955,7.234-16.189,16.189-16.189C334.219,362.285,341.454,369.519,341.454,378.474"/>
<path d="M860.165,240.261c0,0-4.725,8.6-14.62,8.6c-10.109,0-16.452-7.952-16.452-17.736c0-9.784,6.566-17.737,16.452-17.737
	c9.896,0,14.62,8.601,14.62,8.601V240.261z M860.165,178.897v33.53c0,0-5.049-7.427-16.018-7.427
	c-13.437,0-24.079,11.504-24.079,26.125c0,14.62,10.643,26.125,24.079,26.125c11.93,0,16.766-8.489,16.766-8.489v7.204h8.286
	v-77.067H860.165z M790.381,205c-10.745,0-15.257,8.287-15.257,8.287v-6.991h-8.388v49.668h9.025v-34.189
	c0,0,4.3-8.387,12.363-8.387c6.668,0,11.938,3.653,11.938,12.152v30.424h9.026v-31.931C809.09,211.78,800.276,205,790.381,205
	 M742.483,240.696c0,0-3.977,8.165-12.363,8.165c-6.668,0-11.929-3.651-11.929-12.141v-30.424h-9.036v31.932
	c0,12.253,8.813,19.021,18.709,19.021c10.745,0,15.267-8.925,15.267-8.925v7.64h8.378v-49.668h-9.025V240.696z M658.476,255.964
	h9.024v-29.887h30.39v-8.601H667.5v-28.168h32.357v-8.6h-41.382V255.964z M601.72,240.261c0,0-4.726,8.6-14.621,8.6
	c-10.106,0-16.44-7.952-16.44-17.736c0-9.784,6.556-17.737,16.44-17.737c9.896,0,14.621,8.601,14.621,8.601V240.261z
	 M601.72,212.427c0,0-5.05-7.427-16.017-7.427c-13.437,0-24.081,11.504-24.081,26.125c0,14.62,10.645,26.125,24.081,26.125
	c11.929,0,16.776-8.489,16.776-8.489v7.204h8.274v-77.067h-9.034V212.427z M542.273,241.769c0,0-5.374,7.527-14.187,7.527
	c-5.595,0-11.403-2.58-11.403-9.035c0-5.16,4.848-9.025,12.589-9.025c8.053,0,13.001,3.551,13.001,3.551V241.769z M529.696,205
	c-11.93,0-18.598,5.059-18.598,5.059l3.765,7.528c0,0,5.717-4.199,14.833-4.199c3.976,0,12.577,1.397,12.577,11.716v2.692
	c0,0-5.809-4.087-14.945-4.087c-11.18,0-19.668,6.88-19.668,16.552c0,10.755,9.571,16.988,18.485,16.988
	c11.289,0,16.886-8.489,16.886-8.489v7.204h8.276v-32.681C551.308,214.036,544.317,205,529.696,205 M482.426,213.924v-7.628h-8.388
	v49.668h9.025v-34.189c0,0,2.873-8.387,11.767-8.387c4.31,0,6.91,1.578,6.91,1.578l1.751-8.67c0,0-3.117-1.296-7.204-1.296
	C486.018,205,482.426,213.924,482.426,213.924 M451.252,240.484c0,0-4.725,8.377-14.62,8.377c-10.108,0-16.452-7.952-16.452-17.736
	c0-9.784,6.344-17.737,16.452-17.737c9.784,0,14.62,8.387,14.62,8.387V240.484z M452.001,213.5c0,0-4.837-8.5-16.765-8.5
	c-13.436,0-24.08,11.504-24.08,26.125c0,14.62,10.644,26.125,24.08,26.125c9.136,0,14.297-5.262,16.016-7.527v6.88
	c0,11.179-6.556,16.988-17.089,16.988c-10.218,0-16.239-7.841-16.239-7.841l-5.483,6.768c0,0,8.063,9.46,21.722,9.46
	c14.398,0,26.125-8.601,26.125-25.801v-49.88h-8.287V213.5z M363.753,226.824c0.649-5.159,5.059-13.436,15.805-13.436
	c10.006,0,15.055,7.851,15.378,13.436H363.753z M379.558,205c-14.944,0-24.829,11.616-24.829,26.125
	c0,14.732,10.856,26.125,25.901,26.125c13.122,0,20.651-9.784,20.651-9.784l-5.697-5.908c0,0-5.16,7.304-14.954,7.304
	c-9.349,0-16.553-6.98-17.089-14.509h40.096c0.112-1.183,0.112-1.933,0.112-2.904C403.749,215.432,393.43,205,379.558,205
	 M329.262,227.048c-8.934-2.015-12.041-3.765-12.041-7.529c0-3.551,3.127-6.343,9.461-6.343c7.527,0,12.879,4.948,12.879,4.948
	l5.656-6.375c0,0-6.809-6.749-18.535-6.749c-11.069,0-18.273,7.103-18.273,14.307c0,9.349,7.527,13.538,18.171,15.692
	c7.629,1.508,11.282,3.652,11.282,7.952c0,3.582-3.612,6.133-10.452,6.133c-9.703,0-15.349-8.064-15.349-8.064l-6.232,5.808
	c0,0,7.021,10.422,21.581,10.422c10.442,0,19.376-5.262,19.376-14.51C346.786,232.633,338.712,229.172,329.262,227.048
	 M289.903,184.259c-3.329,0-6.12,2.793-6.12,6.122c0,3.339,2.791,6.131,6.12,6.131c3.339,0,6.131-2.792,6.131-6.131
	C296.034,187.052,293.242,184.259,289.903,184.259 M285.391,255.964h9.036v-49.668h-9.036V255.964z M247.54,235.86l-21.713-55.152
	h-9.895l31.396,77.4l31.385-77.4h-9.349L247.54,235.86z"/>
<g>
	<path d="M576.586,74.856c0,0,2.726,3.149,6.721,3.149c2.491,0,4.605-0.611,4.605-2.303c0-1.316-1.269-1.598-4.229-2.256
		c-3.9-0.846-7.097-2.773-7.097-6.58c0-3.995,3.807-7.331,9.54-7.331c5.593,0,8.883,2.772,8.883,2.772l-2.914,4.277
		c0,0-2.961-2.115-5.969-2.115c-1.738,0-3.994,0.564-3.994,2.303c0,1.128,1.315,1.598,4.652,2.35
		c3.384,0.752,6.861,2.256,6.861,6.439c0,4.84-5.169,7.378-10.339,7.378c-6.156,0-10.011-4.042-10.011-4.042L576.586,74.856z"/>
	<path d="M599.427,74.057l2.444-13.958h5.64l-2.256,12.877c-0.611,3.29,0.799,4.7,3.571,4.7c3.056,0,4.935-2.961,4.935-2.961
		l2.585-14.616h5.64l-3.9,22.277h-5.264l0.517-3.008c0,0-2.585,3.572-6.908,3.572C602.153,82.939,598.487,79.415,599.427,74.057z"/>
	<path d="M634.019,60.099l-0.471,2.679c0,0,2.68-3.243,7.285-3.243c5.357,0,8.977,4.464,8.977,10.292
		c0,7.708-6.016,13.112-12.313,13.112c-3.524,0-5.969-1.927-6.579-2.867l-2.304,13.112h-5.64l5.828-33.086H634.019z M631.856,74.809
		c0,0,1.081,2.867,4.794,2.867c4.323,0,7.378-3.619,7.378-7.849c0-2.961-1.832-5.028-5.122-5.028c-3.713,0-5.828,3.102-5.828,3.102
		L631.856,74.809z"/>
	<path d="M662.125,60.099l-0.47,2.679c0,0,2.679-3.243,7.284-3.243c5.357,0,8.977,4.464,8.977,10.292
		c0,7.708-6.016,13.112-12.313,13.112c-3.524,0-5.969-1.927-6.58-2.867l-2.303,13.112h-5.64l5.828-33.086H662.125z M659.963,74.809
		c0,0,1.081,2.867,4.794,2.867c4.323,0,7.378-3.619,7.378-7.849c0-2.961-1.833-5.028-5.122-5.028c-3.713,0-5.828,3.102-5.828,3.102
		L659.963,74.809z"/>
	<path d="M705.504,69.968c0,7.378-6.673,12.971-13.064,12.971c-7.332,0-11.092-4.888-11.092-10.434
		c0-7.425,6.674-12.971,13.065-12.971C701.744,59.535,705.504,64.423,705.504,69.968z M699.677,69.968
		c0-2.867-1.833-5.169-5.264-5.169c-4.277,0-7.237,3.712-7.237,7.707c0,2.867,1.833,5.17,5.264,5.17
		C696.716,77.676,699.677,73.963,699.677,69.968z"/>
	<path d="M727.876,60.24l-2.396,5.076c0,0-1.457-0.517-3.102-0.517c-3.431,0-5.499,3.008-5.499,3.008l-2.538,14.569h-5.639
		l3.9-22.277h5.357l-0.563,3.243c0,0,2.585-3.807,6.72-3.807C726.138,59.535,727.876,60.24,727.876,60.24z"/>
	<path d="M729.71,60.099h4.841l1.175-6.626h5.64l-1.175,6.626h6.721l-0.894,5.076h-6.721l-1.645,9.211
		c-0.47,2.726,0.893,3.29,2.396,3.29c1.223,0,2.444-0.799,2.444-0.799l1.598,4.7c0,0-2.256,1.363-5.498,1.363
		c-4.277,0-7.473-3.384-6.627-8.13l1.691-9.634h-4.84L729.71,60.099z"/>
	<path d="M771.867,68.935c0,0.705-0.047,1.457-0.611,4.323h-16.73c0.047,1.974,2.021,4.512,5.546,4.512
		c3.9,0,6.391-2.256,6.391-2.256l2.633,4.324c0,0-3.619,3.102-9.023,3.102c-7.473,0-11.045-5.029-11.045-10.574
		c0-7.332,6.204-12.83,12.549-12.83C767.825,59.535,771.867,63.295,771.867,68.935z M766.368,69.169
		c0-0.141,0.047-0.282,0.047-0.423c0-1.88-1.409-4.088-4.84-4.088c-3.572,0-5.828,2.538-6.439,4.512H766.368z"/>
	<path d="M796.308,82.375h-5.217l0.471-2.914c0,0-2.727,3.478-7.332,3.478c-4.935,0-8.977-3.995-8.977-10.339
		c0-7.801,6.485-13.065,12.643-13.065c4.229,0,6.297,2.772,6.297,2.772l2.727-15.462h5.64L796.308,82.375z M793.253,67.666
		c0,0-1.128-2.867-4.841-2.867c-4.229,0-7.331,3.619-7.331,7.801c0,2.961,1.738,5.076,5.075,5.076c3.807,0,5.922-3.337,5.922-3.337
		L793.253,67.666z"/>
	<path d="M825.683,46.846h5.64l-2.772,15.603c0,0,2.584-2.914,6.814-2.914c5.357,0,8.977,4.464,8.977,10.292
		c0,7.238-6.016,13.112-12.313,13.112c-4.888,0-6.862-3.713-6.862-3.713l-0.517,3.149h-5.217L825.683,46.846z M826.435,74.574
		c0,0,1.034,3.102,4.746,3.102c4.324,0,7.379-3.619,7.379-7.849c0-2.961-1.833-5.028-5.123-5.028c-3.712,0-5.827,3.102-5.827,3.102
		L826.435,74.574z"/>
	<path d="M846.738,87.028c0,0,1.457,1.457,3.29,1.457c1.927,0,2.82-0.564,4.465-3.431l1.316-2.303l-6.815-22.653h6.11l4.559,16.214
		l8.647-16.214h6.392l-15.604,27.259c-2.819,4.888-5.357,6.392-8.93,6.392c-3.524,0-6.063-2.256-6.063-2.256L846.738,87.028z"/>
</g>
</svg>
