<?xml version="1.0" encoding="utf-8"?>
<!-- Generator: Adobe Illustrator 16.0.0, SVG Export Plug-In . SVG Version: 6.00 Build 0)  -->
<!DOCTYPE svg PUBLIC "-//W3C//DTD SVG 1.1//EN" "http://www.w3.org/Graphics/SVG/1.1/DTD/svg11.dtd">
<svg version="1.1" id="Warstwa_1" xmlns="http://www.w3.org/2000/svg" xmlns:xlink="http://www.w3.org/1999/xlink" x="0px" y="0px"
	 width="297.64px" height="318px" viewBox="0 0 297.64 318" enable-background="new 0 0 297.64 318" xml:space="preserve">
<polygon fill="#D3E1EF" points="264.545,19.481 276.136,26.292 276.56,33.995 279.415,46.353 285.648,56.979 288.222,74.03 
	277.142,81.629 275.176,88.826 282.969,93.439 281.848,105.96 285.694,111.664 288.311,122.561 293.242,131.667 295.297,144.34 
	295.64,148.416 288.413,152.295 266.161,180.541 268.468,195.175 270.793,198.17 264.864,199.026 255.042,194.352 251.276,190.294 
	241.785,187.082 226.24,188.448 213.513,189.406 209.135,194.997 204.283,193.35 202.413,187.88 194.532,181.35 185.708,187.417 
	181.598,179.902 181.495,179.975 177.5,175.53 176.998,170.763 170.073,169.273 166.409,165.761 161.484,167.71 156.72,163.314 
	159.034,160.873 158.88,157.098 153.02,158.739 145.647,153.696 139.859,151.39 137.901,154.712 141.096,157.872 138.405,159.389 
	136.701,162.146 129.12,153.523 125.659,151.688 130.554,146.306 128.544,142.444 124.771,143.624 118.076,142.022 107.133,138.033 
	104.844,130.558 100.138,131.186 98.699,134.125 96.919,134.106 100.292,126.682 100.395,116.658 97.065,111.376 94.54,102.502 
	96.97,93.965 93.882,86.037 96.08,77.006 86.083,69.086 85.699,65.608 90.325,61.388 91.49,55.654 89.78,39.339 95.713,43.09 
	98.172,38.967 94.46,35.204 100.775,34.656 104.118,29.25 125.876,23.136 142.9,14.161 153.289,9.441 169.745,5.366 179.135,7.98 
	178.33,9.722 175.337,13.09 178.804,17.704 182.974,21.119 190.594,22.647 193.545,22.868 193.875,25.479 197.155,26.042 
	202.761,21.567 229.908,24.927 251.083,24.277 "/>
<polygon fill="none" stroke="#FFFFFF" stroke-width="0.36" stroke-linecap="round" stroke-linejoin="round" stroke-miterlimit="10" points="
	264.545,19.481 276.136,26.292 276.56,33.995 279.415,46.353 285.648,56.979 288.222,74.03 277.142,81.629 275.176,88.826 
	282.969,93.439 281.848,105.96 285.694,111.664 288.311,122.561 293.242,131.667 295.297,144.34 295.64,148.416 288.413,152.295 
	266.161,180.541 268.468,195.175 270.793,198.17 264.864,199.026 255.042,194.352 251.276,190.294 241.785,187.082 226.24,188.448 
	213.513,189.406 209.135,194.997 204.283,193.35 202.413,187.88 194.532,181.35 185.708,187.417 181.598,179.902 181.495,179.975 
	177.5,175.53 176.998,170.763 170.073,169.273 166.409,165.761 161.484,167.71 156.72,163.314 159.034,160.873 158.88,157.098 
	153.02,158.739 145.647,153.696 139.859,151.39 137.901,154.712 141.096,157.872 138.405,159.389 136.701,162.146 129.12,153.523 
	125.659,151.688 130.554,146.306 128.544,142.444 124.771,143.624 118.076,142.022 107.133,138.033 104.844,130.558 
	100.138,131.186 98.699,134.125 96.919,134.106 100.292,126.682 100.395,116.658 97.065,111.376 94.54,102.502 96.97,93.965 
	93.882,86.037 96.08,77.006 86.083,69.086 85.699,65.608 90.325,61.388 91.49,55.654 89.78,39.339 95.713,43.09 98.172,38.967 
	94.46,35.204 100.775,34.656 104.118,29.25 125.876,23.136 142.9,14.161 153.289,9.441 169.745,5.366 179.135,7.98 178.33,9.722 
	175.337,13.09 178.804,17.704 182.974,21.119 190.594,22.647 193.545,22.868 193.875,25.479 197.155,26.042 202.761,21.567 
	229.908,24.927 251.083,24.277 264.545,19.481 "/>
<polygon fill="#D3E1EF" points="104.171,131.62 106.36,138.76 117.783,142.938 124.797,144.609 128.052,143.597 129.373,146.149 
	124.117,151.971 128.5,154.278 136.823,163.769 139.082,160.109 142.688,158.1 139.12,154.559 140.292,152.566 145.19,154.554 
	152.846,159.796 157.974,158.38 158.054,160.508 155.349,163.381 161.275,168.807 166.201,166.888 169.613,170.146 176.103,171.576 
	176.589,175.917 180.722,180.567 167.992,190.041 160.277,201.704 146.188,204.966 139.143,209.903 129.208,206.901 
	122.862,209.044 116.744,205.006 96.605,198.684 86.511,210.135 78.344,211.226 73.212,208.7 68.241,201.898 68.164,202.081 
	54.565,190.946 48.959,182.737 42.935,180.405 39.307,170.12 40.869,164.891 34.67,152.473 35.062,149.263 39.536,153.247 
	46.25,147.679 53.382,147.83 56.991,145.142 62.089,144.476 64.531,142.071 73.051,140.689 75.519,138.229 85.345,134.025 
	83.694,130.751 86.506,130.026 90.87,131.786 90.883,135.714 94.726,137.038 96.377,135.07 99.293,135.103 100.795,132.068 "/>
<polygon fill="none" stroke="#FFFFFF" stroke-width="0.36" stroke-linecap="round" stroke-linejoin="round" stroke-miterlimit="10" points="
	104.171,131.62 106.36,138.76 117.783,142.938 124.797,144.609 128.052,143.597 129.373,146.149 124.117,151.971 128.5,154.278 
	136.823,163.769 139.082,160.109 142.688,158.1 139.12,154.559 140.292,152.566 145.19,154.554 152.846,159.796 157.974,158.38 
	158.054,160.508 155.349,163.381 161.275,168.807 166.201,166.888 169.613,170.146 176.103,171.576 176.589,175.917 
	180.722,180.567 167.992,190.041 160.277,201.704 146.188,204.966 139.143,209.903 129.208,206.901 122.862,209.044 
	116.744,205.006 96.605,198.684 86.511,210.135 78.344,211.226 73.212,208.7 68.241,201.898 68.164,202.081 54.565,190.946 
	48.959,182.737 42.935,180.405 39.307,170.12 40.869,164.891 34.67,152.473 35.062,149.263 39.536,153.247 46.25,147.679 
	53.382,147.83 56.991,145.142 62.089,144.476 64.531,142.071 73.051,140.689 75.519,138.229 85.345,134.025 83.694,130.751 
	86.506,130.026 90.87,131.786 90.883,135.714 94.726,137.038 96.377,135.07 99.293,135.103 100.795,132.068 104.171,131.62 "/>
<polygon fill="#D3E1EF" points="241.663,188.058 250.73,191.137 254.469,195.145 264.165,199.752 254.756,220.018 247.354,223.338 
	242.172,216.969 232.172,218.712 219.32,216.826 206.974,230.005 198.462,225.752 193.728,232.535 182.343,234.297 177.73,240.86 
	155.988,242.871 149.112,235.289 140.771,233.3 137.656,221.169 139.668,210.718 146.6,205.866 160.882,202.578 168.679,190.702 
	181.284,181.343 185.386,188.811 194.49,182.565 201.604,188.451 203.532,194.111 209.459,196.14 214.004,190.32 226.321,189.428 
	"/>
<polygon fill="none" stroke="#FFFFFF" stroke-width="0.36" stroke-linecap="round" stroke-linejoin="round" stroke-miterlimit="10" points="
	241.663,188.058 250.73,191.137 254.469,195.145 264.165,199.752 254.756,220.018 247.354,223.338 242.172,216.969 232.172,218.712 
	219.32,216.826 206.974,230.005 198.462,225.752 193.728,232.535 182.343,234.297 177.73,240.86 155.988,242.871 149.112,235.289 
	140.771,233.3 137.656,221.169 139.668,210.718 146.6,205.866 160.882,202.578 168.679,190.702 181.284,181.343 185.386,188.811 
	194.49,182.565 201.604,188.451 203.532,194.111 209.459,196.14 214.004,190.32 226.321,189.428 241.663,188.058 "/>
<polygon fill="#D3E1EF" points="241.797,218.007 247.087,224.546 255.037,220.927 272.882,235.085 269.044,241.706 259.356,245.012 
	252.904,251.38 253.473,255.856 248.646,260.978 231.729,294.649 223.761,294.144 221.993,297.841 215.23,298.979 204.728,298.142 
	198.452,296.614 189.181,302.514 184.184,303.303 180.273,306.996 173.58,306.452 168.32,310.441 152.915,306.457 150.646,303.877 
	142.603,302.665 126.027,283.621 121.343,272.415 117.843,271.905 120.701,268.183 126.289,266.859 125.816,253.763 
	131.672,248.365 128.053,245.781 129.936,243.914 140.821,244.89 140.866,234.328 148.611,236.139 155.591,243.874 178.258,241.782 
	182.904,235.164 194.285,233.431 198.784,227 207.191,231.205 219.678,217.869 232.177,219.695 "/>
<polygon fill="none" stroke="#FFFFFF" stroke-width="0.36" stroke-linecap="round" stroke-linejoin="round" stroke-miterlimit="10" points="
	241.797,218.007 247.087,224.546 255.037,220.927 272.882,235.085 269.044,241.706 259.356,245.012 252.904,251.38 253.473,255.856 
	248.646,260.978 231.729,294.649 223.761,294.144 221.993,297.841 215.23,298.979 204.728,298.142 198.452,296.614 189.181,302.514 
	184.184,303.303 180.273,306.996 173.58,306.452 168.32,310.441 152.915,306.457 150.646,303.877 142.603,302.665 126.027,283.621 
	121.343,272.415 117.843,271.905 120.701,268.183 126.289,266.859 125.816,253.763 131.672,248.365 128.053,245.781 
	129.936,243.914 140.821,244.89 140.866,234.328 148.611,236.139 155.591,243.874 178.258,241.782 182.904,235.164 194.285,233.431 
	198.784,227 207.191,231.205 219.678,217.869 232.177,219.695 241.797,218.007 "/>
<g>
	<path fill="none" stroke="#344154" stroke-linecap="round" stroke-linejoin="round" stroke-miterlimit="10" d="M78.066,195.954
		c-0.38-1.44-0.599-3.117-0.599-4.908c0-5.359,1.954-9.703,4.364-9.703s4.364,4.344,4.364,9.703s-1.954,9.703-4.364,9.703
		c-0.483,0-0.949-0.175-1.383-0.497"/>
	<path fill="none" stroke="#344154" stroke-linecap="round" stroke-linejoin="round" stroke-miterlimit="10" d="M78.389,185.083
		c0.626,0.118,1.287,0.292,1.967,0.519"/>
	<path fill="none" stroke="#344154" stroke-linecap="round" stroke-linejoin="round" stroke-miterlimit="10" d="M90.235,186.194
		c-0.7-1.211-2.59-1.558-4.96-1.112"/>
	<path fill="none" stroke="#344154" stroke-linecap="round" stroke-linejoin="round" stroke-miterlimit="10" d="M81.832,195.925
		c0.478-0.207,0.961-0.438,1.445-0.692c0.246-0.129,0.492-0.265,0.737-0.407c0.728-0.42,1.41-0.87,2.038-1.336"/>
	<path fill="none" stroke="#344154" stroke-linecap="round" stroke-linejoin="round" stroke-miterlimit="10" d="M76.061,197.181
		c-1.243-0.083-2.184-0.505-2.633-1.283c-1.016-1.759,0.803-4.78,4.178-7.291"/>
	<g>
		
			<circle fill="none" stroke="#344154" stroke-linecap="round" stroke-linejoin="round" stroke-miterlimit="10" cx="90.067" cy="188.733" r="1.411"/>
		<path fill="#D16A4A" d="M90.212,188.128c0.022,0.062,0.037,0.128,0.037,0.198c0,0.325-0.265,0.589-0.59,0.589
			c-0.069,0-0.135-0.014-0.197-0.037c0.066,0.274,0.311,0.478,0.604,0.478c0.344,0,0.624-0.28,0.624-0.624
			C90.69,188.44,90.486,188.194,90.212,188.128z"/>
	</g>
	<g>
		
			<circle fill="none" stroke="#344154" stroke-linecap="round" stroke-linejoin="round" stroke-miterlimit="10" cx="75.626" cy="184.978" r="1.412"/>
		<path fill="#D16A4A" d="M75.772,184.373c0.022,0.062,0.037,0.128,0.037,0.198c0,0.325-0.265,0.59-0.59,0.59
			c-0.07,0-0.136-0.015-0.198-0.037c0.066,0.273,0.312,0.478,0.605,0.478c0.344,0,0.624-0.28,0.624-0.624
			C76.25,184.684,76.045,184.439,75.772,184.373z"/>
	</g>
	<g>
		
			<circle fill="none" stroke="#344154" stroke-linecap="round" stroke-linejoin="round" stroke-miterlimit="10" cx="78.879" cy="198.33" r="1.411"/>
		<path fill="#D16A4A" d="M79.024,197.725c0.022,0.063,0.037,0.128,0.037,0.198c0,0.325-0.265,0.59-0.59,0.59
			c-0.069,0-0.135-0.014-0.197-0.037c0.066,0.273,0.311,0.478,0.604,0.478c0.344,0,0.624-0.28,0.624-0.624
			C79.502,198.037,79.298,197.792,79.024,197.725z"/>
	</g>
	<path fill="none" stroke="#344154" stroke-linecap="round" stroke-miterlimit="10" d="M79.021,187.81
		c1.083-0.677,3.024-1.549,3.024-1.549c0.651,0.291,1.311,0.625,1.968,1.005c4.641,2.679,7.426,6.543,6.221,8.631
		c-0.7,1.211-2.59,1.558-4.96,1.112c-1.713-0.323-3.678-1.06-5.625-2.184c-4.641-2.68-7.426-6.544-6.221-8.631"/>
</g>
<g>
	<path fill="none" stroke="#344154" stroke-linecap="round" stroke-linejoin="round" stroke-miterlimit="10" d="M118.565,197.801
		c-0.38-1.44-0.598-3.117-0.598-4.908c0-5.359,1.953-9.703,4.363-9.703s4.365,4.344,4.365,9.703s-1.955,9.703-4.365,9.703
		c-0.482,0-0.948-0.175-1.383-0.497"/>
	<path fill="none" stroke="#344154" stroke-linecap="round" stroke-linejoin="round" stroke-miterlimit="10" d="M118.889,186.93
		c0.626,0.118,1.286,0.292,1.967,0.519"/>
	<path fill="none" stroke="#344154" stroke-linecap="round" stroke-linejoin="round" stroke-miterlimit="10" d="M130.735,188.042
		c-0.7-1.211-2.59-1.558-4.961-1.112"/>
	<path fill="none" stroke="#344154" stroke-linecap="round" stroke-linejoin="round" stroke-miterlimit="10" d="M122.331,197.772
		c0.479-0.207,0.961-0.438,1.445-0.692c0.246-0.129,0.492-0.265,0.737-0.407c0.728-0.42,1.409-0.87,2.038-1.336"/>
	<path fill="none" stroke="#344154" stroke-linecap="round" stroke-linejoin="round" stroke-miterlimit="10" d="M116.562,199.028
		c-1.244-0.083-2.184-0.505-2.633-1.283c-1.016-1.759,0.803-4.78,4.178-7.291"/>
	<g>
		
			<circle fill="none" stroke="#344154" stroke-linecap="round" stroke-linejoin="round" stroke-miterlimit="10" cx="130.566" cy="190.581" r="1.411"/>
		<path fill="#D16A4A" d="M130.712,189.976c0.023,0.062,0.037,0.128,0.037,0.198c0,0.325-0.265,0.589-0.59,0.589
			c-0.069,0-0.135-0.014-0.197-0.037c0.066,0.274,0.311,0.478,0.604,0.478c0.345,0,0.624-0.28,0.624-0.624
			C131.19,190.288,130.985,190.042,130.712,189.976z"/>
	</g>
	<g>
		
			<circle fill="none" stroke="#344154" stroke-linecap="round" stroke-linejoin="round" stroke-miterlimit="10" cx="116.126" cy="186.825" r="1.412"/>
		<path fill="#D16A4A" d="M116.272,186.22c0.021,0.062,0.036,0.128,0.036,0.198c0,0.325-0.265,0.59-0.59,0.59
			c-0.069,0-0.136-0.015-0.198-0.037c0.066,0.273,0.313,0.478,0.605,0.478c0.344,0,0.624-0.28,0.624-0.624
			C116.75,186.532,116.546,186.287,116.272,186.22z"/>
	</g>
	<g>
		
			<circle fill="none" stroke="#344154" stroke-linecap="round" stroke-linejoin="round" stroke-miterlimit="10" cx="119.379" cy="200.178" r="1.411"/>
		<path fill="#D16A4A" d="M119.524,199.573c0.022,0.063,0.037,0.128,0.037,0.198c0,0.325-0.266,0.59-0.59,0.59
			c-0.07,0-0.136-0.014-0.197-0.037c0.065,0.273,0.311,0.478,0.604,0.478c0.345,0,0.625-0.28,0.625-0.624
			C120.003,199.884,119.798,199.639,119.524,199.573z"/>
	</g>
	<path fill="none" stroke="#344154" stroke-linecap="round" stroke-miterlimit="10" d="M119.521,189.658
		c1.083-0.677,3.024-1.549,3.024-1.549c0.65,0.291,1.311,0.625,1.968,1.005c4.641,2.679,7.427,6.543,6.222,8.631
		c-0.7,1.211-2.59,1.558-4.961,1.112c-1.713-0.323-3.678-1.06-5.625-2.184c-4.641-2.68-7.426-6.544-6.221-8.631"/>
</g>
<g>
	<path fill="none" stroke="#344154" stroke-linecap="round" stroke-linejoin="round" stroke-miterlimit="10" d="M172.286,231.25
		c-0.38-1.44-0.598-3.117-0.598-4.908c0-5.359,1.953-9.703,4.363-9.703s4.365,4.344,4.365,9.703s-1.955,9.703-4.365,9.703
		c-0.482,0-0.948-0.175-1.383-0.497"/>
	<path fill="none" stroke="#344154" stroke-linecap="round" stroke-linejoin="round" stroke-miterlimit="10" d="M172.609,220.379
		c0.626,0.118,1.286,0.292,1.967,0.519"/>
	<path fill="none" stroke="#344154" stroke-linecap="round" stroke-linejoin="round" stroke-miterlimit="10" d="M184.456,221.491
		c-0.7-1.211-2.59-1.558-4.961-1.112"/>
	<path fill="none" stroke="#344154" stroke-linecap="round" stroke-linejoin="round" stroke-miterlimit="10" d="M176.052,231.222
		c0.479-0.207,0.961-0.438,1.445-0.692c0.246-0.129,0.492-0.265,0.737-0.407c0.728-0.42,1.409-0.87,2.038-1.336"/>
	<path fill="none" stroke="#344154" stroke-linecap="round" stroke-linejoin="round" stroke-miterlimit="10" d="M170.282,232.478
		c-1.244-0.083-2.184-0.505-2.633-1.283c-1.016-1.759,0.803-4.78,4.178-7.291"/>
	<g>
		
			<circle fill="none" stroke="#344154" stroke-linecap="round" stroke-linejoin="round" stroke-miterlimit="10" cx="184.287" cy="224.03" r="1.411"/>
		<path fill="#D16A4A" d="M184.433,223.425c0.023,0.062,0.037,0.128,0.037,0.198c0,0.325-0.265,0.589-0.59,0.589
			c-0.069,0-0.135-0.014-0.197-0.037c0.066,0.274,0.311,0.478,0.604,0.478c0.345,0,0.624-0.28,0.624-0.624
			C184.911,223.737,184.706,223.491,184.433,223.425z"/>
	</g>
	<g>
		
			<circle fill="none" stroke="#344154" stroke-linecap="round" stroke-linejoin="round" stroke-miterlimit="10" cx="169.847" cy="220.274" r="1.412"/>
		<path fill="#D16A4A" d="M169.993,219.669c0.021,0.062,0.036,0.128,0.036,0.198c0,0.325-0.265,0.59-0.59,0.59
			c-0.069,0-0.136-0.015-0.198-0.037c0.066,0.273,0.313,0.478,0.605,0.478c0.344,0,0.624-0.28,0.624-0.624
			C170.471,219.981,170.267,219.736,169.993,219.669z"/>
	</g>
	<g>
		
			<circle fill="none" stroke="#344154" stroke-linecap="round" stroke-linejoin="round" stroke-miterlimit="10" cx="173.1" cy="233.627" r="1.411"/>
		<path fill="#D16A4A" d="M173.245,233.022c0.022,0.063,0.037,0.128,0.037,0.198c0,0.325-0.266,0.59-0.59,0.59
			c-0.07,0-0.136-0.014-0.197-0.037c0.065,0.273,0.311,0.478,0.604,0.478c0.345,0,0.625-0.28,0.625-0.624
			C173.724,233.333,173.519,233.088,173.245,233.022z"/>
	</g>
	<path fill="none" stroke="#344154" stroke-linecap="round" stroke-miterlimit="10" d="M173.242,223.107
		c1.083-0.677,3.024-1.549,3.024-1.549c0.65,0.291,1.311,0.625,1.968,1.005c4.641,2.679,7.427,6.543,6.222,8.631
		c-0.7,1.211-2.59,1.558-4.961,1.112c-1.713-0.323-3.678-1.06-5.625-2.184c-4.641-2.68-7.426-6.544-6.221-8.631"/>
</g>
<g>
	<path fill="none" stroke="#344154" stroke-linecap="round" stroke-linejoin="round" stroke-miterlimit="10" d="M149.421,221.547
		c-0.38-1.44-0.598-3.117-0.598-4.908c0-5.359,1.953-9.703,4.363-9.703s4.365,4.344,4.365,9.703s-1.955,9.703-4.365,9.703
		c-0.482,0-0.948-0.175-1.383-0.497"/>
	<path fill="none" stroke="#344154" stroke-linecap="round" stroke-linejoin="round" stroke-miterlimit="10" d="M149.744,210.676
		c0.626,0.118,1.286,0.292,1.967,0.519"/>
	<path fill="none" stroke="#344154" stroke-linecap="round" stroke-linejoin="round" stroke-miterlimit="10" d="M161.591,211.788
		c-0.7-1.211-2.59-1.558-4.961-1.112"/>
	<path fill="none" stroke="#344154" stroke-linecap="round" stroke-linejoin="round" stroke-miterlimit="10" d="M153.187,221.519
		c0.479-0.207,0.961-0.438,1.445-0.692c0.246-0.129,0.492-0.265,0.737-0.407c0.728-0.42,1.409-0.87,2.038-1.336"/>
	<path fill="none" stroke="#344154" stroke-linecap="round" stroke-linejoin="round" stroke-miterlimit="10" d="M147.417,222.774
		c-1.244-0.083-2.184-0.505-2.633-1.283c-1.016-1.759,0.803-4.78,4.178-7.291"/>
	<g>
		
			<circle fill="none" stroke="#344154" stroke-linecap="round" stroke-linejoin="round" stroke-miterlimit="10" cx="161.422" cy="214.327" r="1.411"/>
		<path fill="#D16A4A" d="M161.567,213.722c0.023,0.062,0.037,0.128,0.037,0.198c0,0.325-0.265,0.589-0.59,0.589
			c-0.069,0-0.135-0.014-0.197-0.037c0.066,0.274,0.311,0.478,0.604,0.478c0.345,0,0.624-0.28,0.624-0.624
			C162.046,214.034,161.841,213.788,161.567,213.722z"/>
	</g>
	<g>
		
			<circle fill="none" stroke="#344154" stroke-linecap="round" stroke-linejoin="round" stroke-miterlimit="10" cx="146.981" cy="210.571" r="1.412"/>
		<path fill="#D16A4A" d="M147.128,209.966c0.021,0.062,0.036,0.128,0.036,0.198c0,0.325-0.265,0.59-0.59,0.59
			c-0.069,0-0.136-0.015-0.198-0.037c0.066,0.273,0.313,0.478,0.605,0.478c0.344,0,0.624-0.28,0.624-0.624
			C147.605,210.278,147.401,210.033,147.128,209.966z"/>
	</g>
	<g>
		
			<circle fill="none" stroke="#344154" stroke-linecap="round" stroke-linejoin="round" stroke-miterlimit="10" cx="150.234" cy="223.924" r="1.411"/>
		<path fill="#D16A4A" d="M150.38,223.319c0.022,0.063,0.037,0.128,0.037,0.198c0,0.325-0.266,0.59-0.59,0.59
			c-0.07,0-0.136-0.014-0.197-0.037c0.065,0.273,0.311,0.478,0.604,0.478c0.345,0,0.625-0.28,0.625-0.624
			C150.858,223.63,150.653,223.385,150.38,223.319z"/>
	</g>
	<path fill="none" stroke="#344154" stroke-linecap="round" stroke-miterlimit="10" d="M150.377,213.404
		c1.083-0.677,3.024-1.549,3.024-1.549c0.65,0.291,1.311,0.625,1.968,1.005c4.641,2.679,7.427,6.543,6.222,8.631
		c-0.7,1.211-2.59,1.558-4.961,1.112c-1.713-0.323-3.678-1.06-5.625-2.184c-4.641-2.68-7.426-6.544-6.221-8.631"/>
</g>
<g>
	<path fill="none" stroke="#344154" stroke-linecap="round" stroke-linejoin="round" stroke-miterlimit="10" d="M173.915,285.37
		c-0.38-1.44-0.598-3.117-0.598-4.908c0-5.359,1.953-9.703,4.363-9.703s4.365,4.344,4.365,9.703s-1.955,9.703-4.365,9.703
		c-0.482,0-0.948-0.175-1.383-0.497"/>
	<path fill="none" stroke="#344154" stroke-linecap="round" stroke-linejoin="round" stroke-miterlimit="10" d="M174.238,274.499
		c0.626,0.117,1.286,0.291,1.967,0.519"/>
	<path fill="none" stroke="#344154" stroke-linecap="round" stroke-linejoin="round" stroke-miterlimit="10" d="M186.085,275.61
		c-0.7-1.211-2.59-1.559-4.961-1.111"/>
	<path fill="none" stroke="#344154" stroke-linecap="round" stroke-linejoin="round" stroke-miterlimit="10" d="M177.681,285.341
		c0.479-0.207,0.961-0.438,1.445-0.692c0.246-0.13,0.492-0.265,0.737-0.407c0.728-0.42,1.409-0.869,2.038-1.336"/>
	<path fill="none" stroke="#344154" stroke-linecap="round" stroke-linejoin="round" stroke-miterlimit="10" d="M171.911,286.597
		c-1.244-0.084-2.184-0.506-2.633-1.283c-1.016-1.76,0.803-4.78,4.178-7.291"/>
	<g>
		
			<circle fill="none" stroke="#344154" stroke-linecap="round" stroke-linejoin="round" stroke-miterlimit="10" cx="185.916" cy="278.149" r="1.411"/>
		<path fill="#D16A4A" d="M186.062,277.544c0.023,0.063,0.037,0.129,0.037,0.198c0,0.325-0.265,0.589-0.59,0.589
			c-0.069,0-0.135-0.014-0.197-0.036c0.066,0.274,0.311,0.478,0.604,0.478c0.345,0,0.624-0.279,0.624-0.623
			C186.54,277.856,186.335,277.61,186.062,277.544z"/>
	</g>
	<g>
		
			<circle fill="none" stroke="#344154" stroke-linecap="round" stroke-linejoin="round" stroke-miterlimit="10" cx="171.476" cy="274.394" r="1.412"/>
		<path fill="#D16A4A" d="M171.622,273.788c0.021,0.063,0.036,0.129,0.036,0.198c0,0.325-0.265,0.59-0.59,0.59
			c-0.069,0-0.136-0.015-0.198-0.036c0.066,0.273,0.313,0.478,0.605,0.478c0.344,0,0.624-0.28,0.624-0.624
			C172.1,274.101,171.896,273.854,171.622,273.788z"/>
	</g>
	<g>
		
			<circle fill="none" stroke="#344154" stroke-linecap="round" stroke-linejoin="round" stroke-miterlimit="10" cx="174.729" cy="287.746" r="1.411"/>
		<path fill="#D16A4A" d="M174.874,287.142c0.022,0.063,0.037,0.128,0.037,0.197c0,0.325-0.266,0.59-0.59,0.59
			c-0.07,0-0.136-0.014-0.197-0.037c0.065,0.273,0.311,0.479,0.604,0.479c0.345,0,0.625-0.279,0.625-0.624
			C175.353,287.452,175.147,287.208,174.874,287.142z"/>
	</g>
	<path fill="none" stroke="#344154" stroke-linecap="round" stroke-miterlimit="10" d="M174.871,277.226
		c1.083-0.676,3.024-1.549,3.024-1.549c0.65,0.291,1.311,0.626,1.968,1.006c4.641,2.68,7.427,6.543,6.222,8.631
		c-0.7,1.211-2.59,1.559-4.961,1.111c-1.713-0.322-3.678-1.059-5.625-2.184c-4.641-2.68-7.426-6.543-6.221-8.631"/>
</g>
<g>
	<path d="M49.493,171.577h-2.385v7.91h-0.703v-7.91h-2.379v-0.621h5.467V171.577z"/>
	<path d="M52.013,179.61c-0.684,0-1.242-0.257-1.676-0.771s-0.65-1.169-0.65-1.966v-1.055c0-0.801,0.218-1.466,0.653-1.995
		s0.96-0.794,1.573-0.794c0.664,0,1.18,0.236,1.547,0.709s0.551,1.108,0.551,1.906v0.695h-3.627v0.526
		c0,0.615,0.146,1.126,0.439,1.534s0.689,0.612,1.189,0.612c0.348,0,0.647-0.061,0.899-0.183s0.468-0.295,0.647-0.521l0.287,0.496
		c-0.191,0.245-0.438,0.44-0.741,0.586S52.438,179.61,52.013,179.61z M51.913,173.651c-0.441,0-0.804,0.201-1.087,0.604
		s-0.431,0.898-0.442,1.488h2.924v-0.27c0-0.523-0.123-0.958-0.369-1.304S52.351,173.651,51.913,173.651z"/>
	<path d="M55.845,173.147l0.059,0.984c0.168-0.352,0.391-0.623,0.668-0.814s0.604-0.287,0.979-0.287
		c0.383,0,0.705,0.112,0.967,0.337s0.453,0.565,0.574,1.022c0.156-0.422,0.378-0.754,0.665-0.996s0.634-0.363,1.04-0.363
		c0.555,0,0.985,0.226,1.292,0.677s0.46,1.144,0.46,2.077v3.703h-0.709v-3.715c0-0.777-0.105-1.324-0.316-1.641
		s-0.512-0.475-0.902-0.475c-0.41,0-0.73,0.176-0.961,0.527s-0.371,0.793-0.422,1.324v0.164v3.814h-0.703v-3.709
		c0-0.762-0.108-1.305-0.325-1.629s-0.519-0.486-0.905-0.486c-0.371,0-0.669,0.112-0.894,0.337s-0.386,0.532-0.483,0.923v4.564
		h-0.703v-6.34H55.845z"/>
	<path d="M66.163,179.61c-0.684,0-1.242-0.257-1.676-0.771s-0.65-1.169-0.65-1.966v-1.055c0-0.801,0.218-1.466,0.653-1.995
		s0.96-0.794,1.573-0.794c0.664,0,1.18,0.236,1.547,0.709s0.551,1.108,0.551,1.906v0.695h-3.627v0.526
		c0,0.615,0.146,1.126,0.439,1.534s0.689,0.612,1.189,0.612c0.348,0,0.647-0.061,0.899-0.183s0.468-0.295,0.647-0.521l0.287,0.496
		c-0.191,0.245-0.438,0.44-0.741,0.586S66.589,179.61,66.163,179.61z M66.063,173.651c-0.441,0-0.804,0.201-1.087,0.604
		s-0.431,0.898-0.442,1.488h2.924v-0.27c0-0.523-0.123-0.958-0.369-1.304S66.501,173.651,66.063,173.651z"/>
	<path d="M70.171,179.487h-0.709v-9.141h0.709V179.487z"/>
	<path d="M72.614,171.342h-0.709v-0.996h0.709V171.342z M72.614,179.487h-0.709v-6.34h0.709V179.487z"/>
	<path d="M74.905,173.147l0.059,1.049c0.168-0.371,0.392-0.658,0.671-0.861s0.606-0.305,0.981-0.305c0.566,0,1.001,0.21,1.304,0.63
		s0.454,1.073,0.454,1.96v3.867h-0.709v-3.861c0-0.723-0.105-1.23-0.316-1.523s-0.518-0.439-0.92-0.439
		c-0.359,0-0.66,0.118-0.902,0.354s-0.424,0.552-0.545,0.946v4.523h-0.703v-6.34H74.905z"/>
</g>
<g>
	<path d="M127.883,181.77v-8.531h2.092c0.887,0,1.611,0.348,2.174,1.043s0.844,1.588,0.844,2.678v1.102
		c0,1.094-0.281,1.985-0.844,2.675s-1.287,1.034-2.174,1.034H127.883z M128.586,173.86v7.313h1.389c0.688,0,1.245-0.292,1.673-0.875
		s0.642-1.326,0.642-2.23v-1.121c0-0.896-0.214-1.634-0.642-2.215s-0.985-0.872-1.673-0.872H128.586z"/>
	<path d="M137.773,180.78c-0.168,0.355-0.391,0.63-0.668,0.823s-0.602,0.29-0.973,0.29c-0.563,0-1.001-0.226-1.315-0.677
		s-0.472-1.153-0.472-2.106v-3.68h0.703v3.691c0,0.77,0.101,1.319,0.302,1.649s0.493,0.495,0.876,0.495
		c0.402,0,0.729-0.108,0.981-0.325s0.433-0.515,0.542-0.894v-4.617h0.703v6.34h-0.633L137.773,180.78z"/>
	<path d="M141.412,178.694h-0.668v3.076h-0.697v-9.141h0.697v5.443h0.615l1.787-2.643h0.85l-2.039,2.895l2.273,3.445h-0.844
		L141.412,178.694z"/>
	<path d="M144.811,178.137c0-0.82,0.211-1.496,0.633-2.027s0.988-0.797,1.699-0.797s1.278,0.265,1.702,0.794s0.636,1.206,0.636,2.03
		v0.932c0,0.832-0.211,1.511-0.633,2.036s-0.988,0.788-1.699,0.788c-0.715,0-1.283-0.263-1.705-0.788s-0.633-1.204-0.633-2.036
		V178.137z M145.52,179.076c0,0.634,0.141,1.163,0.422,1.585s0.684,0.634,1.207,0.634c0.512,0,0.91-0.212,1.195-0.637
		s0.428-0.952,0.428-1.583v-0.934c0-0.623-0.143-1.146-0.428-1.571s-0.686-0.637-1.201-0.637c-0.52,0-0.92,0.212-1.201,0.637
		s-0.422,0.948-0.422,1.571V179.076z"/>
	<path d="M152.27,180.17l0.141,0.615h0.035l0.152-0.615l1.359-4.74h0.721l-1.975,6.34h-0.551l-1.986-6.34h0.727L152.27,180.17z"/>
	<path d="M158.914,181.77c-0.035-0.219-0.062-0.398-0.079-0.539s-0.026-0.283-0.026-0.428c-0.191,0.316-0.44,0.577-0.747,0.782
		s-0.647,0.308-1.022,0.308c-0.523,0-0.928-0.163-1.213-0.489s-0.428-0.767-0.428-1.321c0-0.59,0.207-1.06,0.621-1.409
		s0.975-0.524,1.682-0.524h1.107v-0.779c0-0.449-0.113-0.801-0.34-1.055s-0.543-0.381-0.949-0.381c-0.379,0-0.69,0.121-0.935,0.363
		s-0.366,0.539-0.366,0.891l-0.656-0.006l-0.012-0.035c-0.02-0.477,0.161-0.901,0.542-1.274s0.868-0.56,1.462-0.56
		c0.586,0,1.059,0.179,1.418,0.536s0.539,0.868,0.539,1.532v3.111c0,0.227,0.01,0.445,0.029,0.656s0.055,0.418,0.105,0.621H158.914z
		 M157.127,181.26c0.391,0,0.737-0.112,1.04-0.337s0.517-0.511,0.642-0.858v-1.371h-1.125c-0.48,0-0.864,0.136-1.151,0.407
		s-0.431,0.606-0.431,1.005c0,0.34,0.09,0.617,0.27,0.832S156.803,181.26,157.127,181.26z"/>
	<path d="M161.744,175.43l0.059,1.049c0.168-0.371,0.392-0.658,0.671-0.861s0.606-0.305,0.981-0.305c0.566,0,1.001,0.21,1.304,0.63
		s0.454,1.073,0.454,1.96v3.867h-0.709v-3.861c0-0.723-0.105-1.23-0.316-1.523s-0.518-0.439-0.92-0.439
		c-0.359,0-0.66,0.118-0.902,0.354s-0.424,0.552-0.545,0.946v4.523h-0.703v-6.34H161.744z"/>
	<path d="M168.324,180.024l0.164,0.639h0.035l1.5-5.232h0.785l-2.262,7.354c-0.137,0.422-0.317,0.785-0.542,1.09
		s-0.546,0.457-0.964,0.457c-0.07,0-0.158-0.01-0.264-0.029s-0.184-0.037-0.234-0.053l0.076-0.604
		c0.039,0.008,0.104,0.017,0.193,0.026s0.156,0.015,0.199,0.015c0.238,0,0.432-0.111,0.58-0.334s0.268-0.498,0.357-0.826
		l0.264-0.838l-2.004-6.258h0.779L168.324,180.024z"/>
</g>
<g>
	<path d="M161.38,205.741v-8.531h2.145c0.734,0,1.309,0.188,1.723,0.563s0.621,0.938,0.621,1.689c0,0.43-0.107,0.807-0.322,1.129
		c-0.215,0.323-0.5,0.548-0.855,0.677c0.441,0.09,0.797,0.332,1.066,0.726c0.27,0.395,0.404,0.853,0.404,1.376
		c0,0.765-0.206,1.352-0.618,1.759s-0.968,0.612-1.667,0.612H161.38z M162.083,201.036h1.664c0.441-0.012,0.787-0.153,1.037-0.426
		c0.25-0.272,0.375-0.662,0.375-1.171c0-0.532-0.14-0.933-0.419-1.203s-0.685-0.405-1.216-0.405h-1.441V201.036z M162.083,201.633
		v3.51h1.793c0.496,0,0.884-0.154,1.163-0.461s0.419-0.74,0.419-1.296c0-0.517-0.124-0.938-0.372-1.264
		c-0.248-0.325-0.614-0.488-1.099-0.488H162.083z"/>
	<path d="M167.251,202.108c0-0.82,0.211-1.496,0.633-2.027s0.988-0.797,1.699-0.797s1.278,0.265,1.702,0.794s0.636,1.206,0.636,2.03
		v0.932c0,0.832-0.211,1.511-0.633,2.036s-0.988,0.788-1.699,0.788c-0.715,0-1.283-0.263-1.705-0.788s-0.633-1.204-0.633-2.036
		V202.108z M167.96,203.046c0,0.634,0.141,1.163,0.422,1.585s0.684,0.634,1.207,0.634c0.512,0,0.91-0.212,1.195-0.637
		s0.428-0.952,0.428-1.583v-0.934c0-0.623-0.143-1.146-0.428-1.571s-0.686-0.637-1.201-0.637c-0.52,0-0.92,0.212-1.201,0.637
		s-0.422,0.948-0.422,1.571V203.046z"/>
	<path d="M173.925,200.403c0.176-0.355,0.405-0.631,0.688-0.826s0.606-0.293,0.97-0.293c0.559,0,0.988,0.206,1.289,0.618
		s0.451,1.054,0.451,1.925v3.914h-0.709v-3.926c0-0.68-0.104-1.166-0.313-1.459s-0.509-0.439-0.899-0.439
		c-0.352,0-0.652,0.112-0.902,0.337s-0.441,0.524-0.574,0.899v4.588h-0.703V196.6h0.703V200.403z"/>
	<path d="M182.31,204.75c-0.168,0.355-0.391,0.63-0.668,0.823s-0.602,0.29-0.973,0.29c-0.563,0-1.001-0.226-1.315-0.677
		s-0.472-1.153-0.472-2.106v-3.68h0.703v3.691c0,0.77,0.101,1.319,0.302,1.649s0.493,0.495,0.876,0.495
		c0.402,0,0.729-0.108,0.981-0.325s0.433-0.515,0.542-0.894v-4.617h0.703v6.34h-0.633L182.31,204.75z"/>
	<path d="M185.204,199.401l0.059,1.049c0.168-0.371,0.392-0.658,0.671-0.861s0.606-0.305,0.981-0.305c0.566,0,1.001,0.21,1.304,0.63
		s0.454,1.073,0.454,1.96v3.867h-0.709v-3.861c0-0.723-0.105-1.23-0.316-1.523s-0.518-0.439-0.92-0.439
		c-0.359,0-0.66,0.118-0.902,0.354s-0.424,0.552-0.545,0.946v4.523h-0.703v-6.34H185.204z"/>
	<path d="M191.034,197.596h-0.709V196.6h0.709V197.596z M191.034,205.741h-0.709v-6.34h0.709V205.741z"/>
	<path d="M194.702,205.266c0.367,0,0.689-0.133,0.967-0.398s0.416-0.633,0.416-1.102h0.621l0.018,0.035
		c0.012,0.586-0.186,1.076-0.592,1.471s-0.883,0.592-1.43,0.592c-0.73,0-1.292-0.261-1.685-0.782s-0.589-1.192-0.589-2.013v-0.984
		c0-0.816,0.196-1.487,0.589-2.013s0.954-0.788,1.685-0.788c0.59,0,1.077,0.206,1.462,0.618s0.571,0.954,0.56,1.626l-0.012,0.029
		h-0.627c0-0.504-0.132-0.905-0.396-1.204s-0.593-0.448-0.987-0.448c-0.547,0-0.945,0.207-1.195,0.62s-0.375,0.935-0.375,1.565
		v0.986c0,0.638,0.125,1.163,0.375,1.574C193.757,205.061,194.155,205.266,194.702,205.266z"/>
	<path d="M200.04,205.864c-0.684,0-1.242-0.257-1.676-0.771s-0.65-1.169-0.65-1.966v-1.055c0-0.801,0.218-1.466,0.653-1.995
		s0.96-0.794,1.573-0.794c0.664,0,1.18,0.236,1.547,0.709s0.551,1.108,0.551,1.906v0.695h-3.627v0.526
		c0,0.615,0.146,1.126,0.439,1.534s0.689,0.612,1.189,0.612c0.348,0,0.647-0.061,0.899-0.183s0.468-0.295,0.647-0.521l0.287,0.496
		c-0.191,0.245-0.438,0.44-0.741,0.586S200.466,205.864,200.04,205.864z M199.94,199.905c-0.441,0-0.804,0.201-1.087,0.604
		s-0.431,0.898-0.442,1.488h2.924v-0.27c0-0.523-0.123-0.958-0.369-1.304S200.378,199.905,199.94,199.905z"/>
</g>
<g>
	<path d="M190.77,215.251l2.373,7.471h0.035l2.379-7.471h0.908v8.531h-0.697v-3.744l0.07-3.486l-0.035-0.006l-2.408,7.236h-0.469
		l-2.402-7.225l-0.035,0.006l0.07,3.475v3.744h-0.691v-8.531H190.77z"/>
	<path d="M197.901,220.15c0-0.82,0.211-1.496,0.633-2.027s0.988-0.797,1.699-0.797s1.278,0.265,1.702,0.794s0.636,1.206,0.636,2.03
		v0.932c0,0.832-0.211,1.511-0.633,2.036s-0.988,0.788-1.699,0.788c-0.715,0-1.283-0.263-1.705-0.788s-0.633-1.204-0.633-2.036
		V220.15z M198.61,221.088c0,0.634,0.141,1.163,0.422,1.585s0.684,0.634,1.207,0.634c0.512,0,0.91-0.212,1.195-0.637
		s0.428-0.952,0.428-1.583v-0.934c0-0.623-0.143-1.146-0.428-1.571s-0.686-0.637-1.201-0.637c-0.52,0-0.92,0.212-1.201,0.637
		s-0.422,0.948-0.422,1.571V221.088z"/>
	<path d="M205.875,223.308c0.367,0,0.689-0.133,0.967-0.398s0.416-0.633,0.416-1.102h0.621l0.018,0.035
		c0.012,0.586-0.186,1.076-0.592,1.471s-0.883,0.592-1.43,0.592c-0.73,0-1.292-0.261-1.685-0.782s-0.589-1.192-0.589-2.013v-0.984
		c0-0.816,0.196-1.487,0.589-2.013s0.954-0.788,1.685-0.788c0.59,0,1.077,0.206,1.462,0.618s0.571,0.954,0.56,1.626l-0.012,0.029
		h-0.627c0-0.504-0.132-0.905-0.396-1.204s-0.593-0.448-0.987-0.448c-0.547,0-0.945,0.207-1.195,0.62s-0.375,0.935-0.375,1.565
		v0.986c0,0.638,0.125,1.163,0.375,1.574C204.93,223.103,205.329,223.308,205.875,223.308z"/>
	<path d="M209.872,218.445c0.176-0.355,0.405-0.631,0.688-0.826s0.606-0.293,0.97-0.293c0.559,0,0.988,0.206,1.289,0.618
		s0.451,1.054,0.451,1.925v3.914h-0.709v-3.926c0-0.68-0.104-1.166-0.313-1.459s-0.509-0.439-0.899-0.439
		c-0.352,0-0.652,0.112-0.902,0.337s-0.441,0.524-0.574,0.899v4.588h-0.703v-9.141h0.703V218.445z"/>
	<path d="M214.553,220.15c0-0.82,0.211-1.496,0.633-2.027s0.988-0.797,1.699-0.797s1.278,0.265,1.702,0.794s0.636,1.206,0.636,2.03
		v0.932c0,0.832-0.211,1.511-0.633,2.036s-0.988,0.788-1.699,0.788c-0.715,0-1.283-0.263-1.705-0.788s-0.633-1.204-0.633-2.036
		V220.15z M215.262,221.088c0,0.634,0.141,1.163,0.422,1.585s0.684,0.634,1.207,0.634c0.512,0,0.91-0.212,1.195-0.637
		s0.428-0.952,0.428-1.583v-0.934c0-0.623-0.143-1.146-0.428-1.571s-0.686-0.637-1.201-0.637c-0.52,0-0.92,0.212-1.201,0.637
		s-0.422,0.948-0.422,1.571V221.088z"/>
	<path d="M222.012,222.183l0.141,0.615h0.035l0.152-0.615l1.359-4.74h0.721l-1.975,6.34h-0.551l-1.986-6.34h0.727L222.012,222.183z"
		/>
	<path d="M227.379,223.308c0.367,0,0.689-0.133,0.967-0.398s0.416-0.633,0.416-1.102h0.621l0.018,0.035
		c0.012,0.586-0.186,1.076-0.592,1.471s-0.883,0.592-1.43,0.592c-0.73,0-1.292-0.261-1.685-0.782s-0.589-1.192-0.589-2.013v-0.984
		c0-0.816,0.196-1.487,0.589-2.013s0.954-0.788,1.685-0.788c0.59,0,1.077,0.206,1.462,0.618s0.571,0.954,0.56,1.626l-0.012,0.029
		h-0.627c0-0.504-0.132-0.905-0.396-1.204s-0.593-0.448-0.987-0.448c-0.547,0-0.945,0.207-1.195,0.62s-0.375,0.935-0.375,1.565
		v0.986c0,0.638,0.125,1.163,0.375,1.574C226.434,223.103,226.833,223.308,227.379,223.308z"/>
	<path d="M232.717,223.906c-0.684,0-1.242-0.257-1.676-0.771s-0.65-1.169-0.65-1.966v-1.055c0-0.801,0.218-1.466,0.653-1.995
		s0.96-0.794,1.573-0.794c0.664,0,1.18,0.236,1.547,0.709s0.551,1.108,0.551,1.906v0.695h-3.627v0.526
		c0,0.615,0.146,1.126,0.439,1.534s0.689,0.612,1.189,0.612c0.348,0,0.647-0.061,0.899-0.183s0.468-0.295,0.647-0.521l0.287,0.496
		c-0.191,0.245-0.438,0.44-0.741,0.586S233.143,223.906,232.717,223.906z M232.618,217.947c-0.441,0-0.804,0.201-1.087,0.604
		s-0.431,0.898-0.442,1.488h2.924v-0.27c0-0.523-0.123-0.958-0.369-1.304S233.055,217.947,232.618,217.947z"/>
</g>
<g>
	<path d="M185.749,267.018v3.533h-0.703v-8.531h2.525c0.746,0,1.324,0.229,1.734,0.686s0.615,1.061,0.615,1.811
		c0,0.758-0.205,1.364-0.615,1.819s-0.988,0.683-1.734,0.683H185.749z M185.749,266.402h1.822c0.547,0,0.957-0.179,1.23-0.536
		s0.41-0.804,0.41-1.339c0-0.543-0.137-0.993-0.41-1.351s-0.684-0.536-1.23-0.536h-1.822V266.402z"/>
	<path d="M194.438,270.551c-0.035-0.219-0.062-0.398-0.079-0.539s-0.026-0.283-0.026-0.428c-0.191,0.316-0.44,0.577-0.747,0.782
		s-0.647,0.308-1.022,0.308c-0.523,0-0.928-0.163-1.213-0.489s-0.428-0.767-0.428-1.321c0-0.59,0.207-1.06,0.621-1.409
		s0.975-0.524,1.682-0.524h1.107v-0.779c0-0.449-0.113-0.801-0.34-1.055s-0.543-0.381-0.949-0.381c-0.379,0-0.69,0.121-0.935,0.363
		s-0.366,0.539-0.366,0.891l-0.656-0.006l-0.012-0.035c-0.02-0.477,0.161-0.901,0.542-1.274s0.868-0.56,1.462-0.56
		c0.586,0,1.059,0.179,1.418,0.536s0.539,0.868,0.539,1.532v3.111c0,0.227,0.01,0.445,0.029,0.656s0.055,0.418,0.105,0.621H194.438z
		 M192.651,270.041c0.391,0,0.737-0.112,1.04-0.337s0.517-0.511,0.642-0.858v-1.371h-1.125c-0.48,0-0.864,0.136-1.151,0.407
		s-0.431,0.606-0.431,1.005c0,0.34,0.09,0.617,0.27,0.832S192.327,270.041,192.651,270.041z"/>
	<path d="M198.012,267.475h-0.668v3.076h-0.697v-9.141h0.697v5.443h0.615l1.787-2.643h0.85l-2.039,2.895l2.273,3.445h-0.844
		L198.012,267.475z"/>
	<path d="M204.75,269.04c0-0.291-0.095-0.541-0.284-0.75c-0.189-0.21-0.536-0.431-1.04-0.663c-0.645-0.266-1.116-0.536-1.415-0.812
		s-0.448-0.636-0.448-1.081c0-0.453,0.178-0.84,0.533-1.16s0.816-0.48,1.383-0.48c0.602,0,1.078,0.178,1.43,0.533
		s0.52,0.799,0.504,1.33l-0.012,0.035h-0.662c0-0.344-0.113-0.643-0.34-0.896s-0.533-0.381-0.92-0.381
		c-0.395,0-0.695,0.1-0.902,0.299s-0.311,0.432-0.311,0.697c0,0.281,0.082,0.507,0.246,0.677s0.516,0.384,1.055,0.642
		c0.633,0.254,1.105,0.53,1.418,0.829s0.469,0.677,0.469,1.134c0,0.504-0.181,0.91-0.542,1.219s-0.839,0.463-1.433,0.463
		c-0.652,0-1.163-0.184-1.532-0.552c-0.369-0.368-0.544-0.805-0.524-1.312l0.012-0.035h0.656c0.023,0.456,0.17,0.786,0.439,0.992
		s0.586,0.309,0.949,0.309c0.395,0,0.705-0.1,0.932-0.3S204.75,269.331,204.75,269.04z"/>
</g>
<g>
	<path fill="#286BB1" d="M20.386,287.499h-0.703l-3.809-7.143l-0.035,0.006v7.137H15.13v-8.531h0.709l3.809,7.143l0.035-0.006
		v-7.137h0.703V287.499z"/>
	<path fill="#286BB1" d="M25.554,286.508c-0.168,0.355-0.391,0.63-0.668,0.823s-0.602,0.29-0.973,0.29
		c-0.563,0-1.001-0.226-1.315-0.677s-0.472-1.153-0.472-2.106v-3.68h0.703v3.691c0,0.77,0.101,1.319,0.302,1.649
		s0.493,0.495,0.876,0.495c0.402,0,0.729-0.108,0.981-0.325s0.433-0.515,0.542-0.894v-4.617h0.703v6.34h-0.633L25.554,286.508z"/>
	<path fill="#286BB1" d="M29.826,287.024c0.367,0,0.689-0.133,0.967-0.398s0.416-0.633,0.416-1.102h0.621l0.018,0.035
		c0.012,0.586-0.186,1.076-0.592,1.471s-0.883,0.592-1.43,0.592c-0.73,0-1.292-0.261-1.685-0.782s-0.589-1.192-0.589-2.013v-0.984
		c0-0.816,0.196-1.487,0.589-2.013s0.954-0.788,1.685-0.788c0.59,0,1.077,0.206,1.462,0.618s0.571,0.954,0.56,1.626l-0.012,0.029
		h-0.627c0-0.504-0.132-0.905-0.396-1.204s-0.593-0.448-0.987-0.448c-0.547,0-0.945,0.207-1.195,0.62s-0.375,0.935-0.375,1.565
		v0.986c0,0.638,0.125,1.163,0.375,1.574C28.88,286.818,29.279,287.024,29.826,287.024z"/>
	<path fill="#286BB1" d="M33.898,287.499h-0.709v-9.141h0.709V287.499z"/>
	<path fill="#286BB1" d="M37.607,287.622c-0.684,0-1.242-0.257-1.676-0.771s-0.65-1.169-0.65-1.966v-1.055
		c0-0.801,0.218-1.466,0.653-1.995s0.96-0.794,1.573-0.794c0.664,0,1.18,0.236,1.547,0.709s0.551,1.108,0.551,1.906v0.695h-3.627
		v0.526c0,0.615,0.146,1.126,0.439,1.534s0.689,0.612,1.189,0.612c0.348,0,0.647-0.061,0.899-0.183s0.468-0.295,0.647-0.521
		l0.287,0.496c-0.191,0.245-0.438,0.44-0.741,0.586S38.033,287.622,37.607,287.622z M37.507,281.663
		c-0.441,0-0.804,0.201-1.087,0.604s-0.431,0.898-0.442,1.488h2.924v-0.27c0-0.523-0.123-0.958-0.369-1.304
		S37.945,281.663,37.507,281.663z"/>
	<path fill="#286BB1" d="M44.128,287.499c-0.035-0.219-0.062-0.398-0.079-0.539s-0.026-0.283-0.026-0.428
		c-0.191,0.316-0.44,0.577-0.747,0.782s-0.647,0.308-1.022,0.308c-0.523,0-0.928-0.163-1.213-0.489s-0.428-0.767-0.428-1.321
		c0-0.59,0.207-1.06,0.621-1.409s0.975-0.524,1.682-0.524h1.107v-0.779c0-0.449-0.113-0.801-0.34-1.055s-0.543-0.381-0.949-0.381
		c-0.379,0-0.69,0.121-0.935,0.363s-0.366,0.539-0.366,0.891l-0.656-0.006l-0.012-0.035c-0.02-0.477,0.161-0.901,0.542-1.274
		s0.868-0.56,1.462-0.56c0.586,0,1.059,0.179,1.418,0.536s0.539,0.868,0.539,1.532v3.111c0,0.227,0.01,0.445,0.029,0.656
		s0.055,0.418,0.105,0.621H44.128z M42.341,286.989c0.391,0,0.737-0.112,1.04-0.337s0.517-0.511,0.642-0.858v-1.371h-1.125
		c-0.48,0-0.864,0.136-1.151,0.407s-0.431,0.606-0.431,1.005c0,0.34,0.09,0.617,0.27,0.832S42.017,286.989,42.341,286.989z"/>
	<path fill="#286BB1" d="M48.787,281.792l-0.463-0.035c-0.328,0-0.6,0.11-0.814,0.331s-0.373,0.524-0.475,0.911v4.5h-0.703v-6.34
		h0.621l0.082,1.049c0.148-0.367,0.345-0.653,0.589-0.858s0.53-0.308,0.858-0.308c0.074,0,0.148,0.007,0.223,0.021
		s0.133,0.028,0.176,0.044L48.787,281.792z"/>
	<path fill="#286BB1" d="M53.263,283.965v3.533H52.56v-8.531h2.525c0.746,0,1.324,0.229,1.734,0.686s0.615,1.061,0.615,1.811
		c0,0.758-0.205,1.364-0.615,1.819s-0.988,0.683-1.734,0.683H53.263z M53.263,283.35h1.822c0.547,0,0.957-0.179,1.23-0.536
		s0.41-0.804,0.41-1.339c0-0.543-0.137-0.993-0.41-1.351s-0.684-0.536-1.23-0.536h-1.822V283.35z"/>
	<path fill="#286BB1" d="M58.355,283.866c0-0.82,0.211-1.496,0.633-2.027s0.988-0.797,1.699-0.797s1.278,0.265,1.702,0.794
		s0.636,1.206,0.636,2.03v0.932c0,0.832-0.211,1.511-0.633,2.036s-0.988,0.788-1.699,0.788c-0.715,0-1.283-0.263-1.705-0.788
		s-0.633-1.204-0.633-2.036V283.866z M59.064,284.804c0,0.634,0.141,1.163,0.422,1.585s0.684,0.634,1.207,0.634
		c0.512,0,0.91-0.212,1.195-0.637s0.428-0.952,0.428-1.583v-0.934c0-0.623-0.143-1.146-0.428-1.571s-0.686-0.637-1.201-0.637
		c-0.52,0-0.92,0.212-1.201,0.637s-0.422,0.948-0.422,1.571V284.804z"/>
	<path fill="#286BB1" d="M65.521,285.43l0.17,0.99h0.035l0.211-0.99l1.102-4.271h0.586l1.09,4.271l0.217,1.037h0.035l0.193-1.037
		l0.914-4.271h0.715l-1.529,6.34h-0.586l-1.113-4.307l-0.229-1.014h-0.035l-0.217,1.014l-1.102,4.307h-0.586l-1.523-6.34h0.709
		L65.521,285.43z"/>
	<path fill="#286BB1" d="M74,287.622c-0.684,0-1.242-0.257-1.676-0.771s-0.65-1.169-0.65-1.966v-1.055
		c0-0.801,0.218-1.466,0.653-1.995s0.96-0.794,1.573-0.794c0.664,0,1.18,0.236,1.547,0.709s0.551,1.108,0.551,1.906v0.695h-3.627
		v0.526c0,0.615,0.146,1.126,0.439,1.534s0.689,0.612,1.189,0.612c0.348,0,0.647-0.061,0.899-0.183s0.468-0.295,0.647-0.521
		l0.287,0.496c-0.191,0.245-0.438,0.44-0.741,0.586S74.425,287.622,74,287.622z M73.9,281.663c-0.441,0-0.804,0.201-1.087,0.604
		s-0.431,0.898-0.442,1.488h2.924v-0.27c0-0.523-0.123-0.958-0.369-1.304S74.337,281.663,73.9,281.663z"/>
	<path fill="#286BB1" d="M79.683,281.792l-0.463-0.035c-0.328,0-0.6,0.11-0.814,0.331s-0.373,0.524-0.475,0.911v4.5h-0.703v-6.34
		h0.621l0.082,1.049c0.148-0.367,0.345-0.653,0.589-0.858s0.53-0.308,0.858-0.308c0.074,0,0.148,0.007,0.223,0.021
		s0.133,0.028,0.176,0.044L79.683,281.792z"/>
	<path fill="#286BB1" d="M84.16,283.965v3.533h-0.703v-8.531h2.525c0.746,0,1.324,0.229,1.734,0.686s0.615,1.061,0.615,1.811
		c0,0.758-0.205,1.364-0.615,1.819s-0.988,0.683-1.734,0.683H84.16z M84.16,283.35h1.822c0.547,0,0.957-0.179,1.23-0.536
		s0.41-0.804,0.41-1.339c0-0.543-0.137-0.993-0.41-1.351s-0.684-0.536-1.23-0.536H84.16V283.35z"/>
	<path fill="#286BB1" d="M90.4,287.499h-0.709v-9.141H90.4V287.499z"/>
	<path fill="#286BB1" d="M95.357,287.499c-0.035-0.219-0.062-0.398-0.079-0.539s-0.026-0.283-0.026-0.428
		c-0.191,0.316-0.44,0.577-0.747,0.782s-0.647,0.308-1.022,0.308c-0.523,0-0.928-0.163-1.213-0.489s-0.428-0.767-0.428-1.321
		c0-0.59,0.207-1.06,0.621-1.409s0.975-0.524,1.682-0.524h1.107v-0.779c0-0.449-0.113-0.801-0.34-1.055s-0.543-0.381-0.949-0.381
		c-0.379,0-0.69,0.121-0.935,0.363s-0.366,0.539-0.366,0.891l-0.656-0.006l-0.012-0.035c-0.02-0.477,0.161-0.901,0.542-1.274
		s0.868-0.56,1.462-0.56c0.586,0,1.059,0.179,1.418,0.536s0.539,0.868,0.539,1.532v3.111c0,0.227,0.01,0.445,0.029,0.656
		s0.055,0.418,0.105,0.621H95.357z M93.57,286.989c0.391,0,0.737-0.112,1.04-0.337s0.517-0.511,0.642-0.858v-1.371h-1.125
		c-0.48,0-0.864,0.136-1.151,0.407s-0.431,0.606-0.431,1.005c0,0.34,0.09,0.617,0.27,0.832S93.246,286.989,93.57,286.989z"/>
	<path fill="#286BB1" d="M98.187,281.159l0.059,1.049c0.168-0.371,0.392-0.658,0.671-0.861s0.606-0.305,0.981-0.305
		c0.566,0,1.001,0.21,1.304,0.63s0.454,1.073,0.454,1.96v3.867h-0.709v-3.861c0-0.723-0.105-1.23-0.316-1.523
		s-0.518-0.439-0.92-0.439c-0.359,0-0.66,0.118-0.902,0.354s-0.424,0.552-0.545,0.946v4.523H97.56v-6.34H98.187z"/>
	<path fill="#286BB1" d="M104.275,279.542v1.617h1.102v0.598h-1.102v4.109c0,0.41,0.059,0.7,0.176,0.872
		c0.117,0.171,0.271,0.257,0.463,0.257c0.094,0,0.186-0.006,0.275-0.018s0.191-0.029,0.305-0.053l0.094,0.539
		c-0.094,0.047-0.216,0.085-0.366,0.114s-0.302,0.044-0.454,0.044c-0.375,0-0.669-0.141-0.882-0.421s-0.319-0.726-0.319-1.334
		v-4.109h-0.879v-0.598h0.879v-1.617H104.275z"/>
	<path fill="#286BB1" d="M109.753,285.988c0-0.291-0.095-0.541-0.284-0.75c-0.189-0.21-0.536-0.431-1.04-0.663
		c-0.645-0.266-1.116-0.536-1.415-0.812s-0.448-0.636-0.448-1.081c0-0.453,0.178-0.84,0.533-1.16s0.816-0.48,1.383-0.48
		c0.602,0,1.078,0.178,1.43,0.533s0.52,0.799,0.504,1.33l-0.012,0.035h-0.662c0-0.344-0.113-0.643-0.34-0.896
		s-0.533-0.381-0.92-0.381c-0.395,0-0.695,0.1-0.902,0.299s-0.311,0.432-0.311,0.697c0,0.281,0.082,0.507,0.246,0.677
		s0.516,0.384,1.055,0.642c0.633,0.254,1.105,0.53,1.418,0.829s0.469,0.677,0.469,1.134c0,0.504-0.181,0.91-0.542,1.219
		s-0.839,0.463-1.433,0.463c-0.652,0-1.163-0.184-1.532-0.552c-0.369-0.368-0.544-0.805-0.524-1.312l0.012-0.035h0.656
		c0.023,0.456,0.17,0.786,0.439,0.992s0.586,0.309,0.949,0.309c0.395,0,0.705-0.1,0.932-0.3S109.753,286.278,109.753,285.988z"/>
	<path fill="#286BB1" d="M16.847,293.754h-0.709v-0.996h0.709V293.754z M16.847,301.898h-0.709v-6.34h0.709V301.898z"/>
	<path fill="#286BB1" d="M19.138,295.559l0.059,1.049c0.168-0.371,0.392-0.658,0.671-0.861s0.606-0.305,0.981-0.305
		c0.566,0,1.001,0.21,1.304,0.63s0.454,1.073,0.454,1.96v3.867h-0.709v-3.861c0-0.723-0.105-1.23-0.316-1.523
		s-0.518-0.439-0.92-0.439c-0.359,0-0.66,0.118-0.902,0.354s-0.424,0.552-0.545,0.946v4.523h-0.703v-6.34H19.138z"/>
	<path fill="#286BB1" d="M28.935,300.422l0.141,0.527h0.035l0.146-0.527l2.021-7.055h0.762l-2.631,8.531h-0.639l-2.631-8.531h0.762
		L28.935,300.422z"/>
	<path fill="#286BB1" d="M33.822,293.754h-0.709v-0.996h0.709V293.754z M33.822,301.898h-0.709v-6.34h0.709V301.898z"/>
	<path fill="#286BB1" d="M38.533,300.388c0-0.291-0.095-0.541-0.284-0.75c-0.189-0.21-0.536-0.431-1.04-0.663
		c-0.645-0.266-1.116-0.536-1.415-0.812s-0.448-0.636-0.448-1.081c0-0.453,0.178-0.84,0.533-1.16s0.816-0.48,1.383-0.48
		c0.602,0,1.078,0.178,1.43,0.533s0.52,0.799,0.504,1.33l-0.012,0.035h-0.662c0-0.344-0.113-0.643-0.34-0.896
		s-0.533-0.381-0.92-0.381c-0.395,0-0.695,0.1-0.902,0.299s-0.311,0.432-0.311,0.697c0,0.281,0.082,0.507,0.246,0.677
		s0.516,0.384,1.055,0.642c0.633,0.254,1.105,0.53,1.418,0.829s0.469,0.677,0.469,1.134c0,0.504-0.181,0.91-0.542,1.219
		s-0.839,0.463-1.433,0.463c-0.652,0-1.163-0.184-1.532-0.552c-0.369-0.368-0.544-0.805-0.524-1.312l0.012-0.035h0.656
		c0.023,0.456,0.17,0.786,0.439,0.992s0.586,0.309,0.949,0.309c0.395,0,0.705-0.1,0.932-0.3S38.533,300.678,38.533,300.388z"/>
	<path fill="#286BB1" d="M42.599,302.021c-0.684,0-1.242-0.257-1.676-0.771s-0.65-1.169-0.65-1.966v-1.055
		c0-0.801,0.218-1.466,0.653-1.995s0.96-0.794,1.573-0.794c0.664,0,1.18,0.236,1.547,0.709s0.551,1.108,0.551,1.906v0.695H40.97
		v0.526c0,0.615,0.146,1.126,0.439,1.534s0.689,0.612,1.189,0.612c0.348,0,0.647-0.061,0.899-0.183s0.468-0.295,0.647-0.521
		l0.287,0.496c-0.191,0.245-0.438,0.44-0.741,0.586S43.025,302.021,42.599,302.021z M42.5,296.063c-0.441,0-0.804,0.201-1.087,0.604
		s-0.431,0.898-0.442,1.488h2.924v-0.27c0-0.523-0.123-0.958-0.369-1.304S42.937,296.063,42.5,296.063z"/>
	<path fill="#286BB1" d="M45.599,298.418c0-0.898,0.182-1.619,0.545-2.162s0.865-0.814,1.506-0.814c0.355,0,0.667,0.087,0.935,0.261
		s0.489,0.421,0.665,0.741l0.07-0.885h0.598v6.346c0,0.813-0.189,1.441-0.568,1.887s-0.916,0.668-1.611,0.668
		c-0.25,0-0.519-0.038-0.806-0.114s-0.542-0.177-0.765-0.302l0.193-0.615c0.191,0.121,0.404,0.216,0.639,0.284
		s0.477,0.103,0.727,0.103c0.504,0,0.877-0.162,1.119-0.486s0.363-0.799,0.363-1.424v-0.768c-0.18,0.285-0.4,0.504-0.662,0.656
		s-0.564,0.229-0.908,0.229c-0.637,0-1.136-0.249-1.497-0.747s-0.542-1.161-0.542-1.989V298.418z M46.308,299.285
		c0,0.641,0.123,1.152,0.369,1.535s0.617,0.574,1.113,0.574c0.34,0,0.627-0.093,0.861-0.278s0.42-0.442,0.557-0.771v-3.141
		c-0.133-0.336-0.313-0.608-0.542-0.817s-0.517-0.313-0.864-0.313c-0.496,0-0.869,0.217-1.119,0.65s-0.375,0.998-0.375,1.693
		V299.285z"/>
	<path fill="#286BB1" d="M53.96,296.191l-0.463-0.035c-0.328,0-0.6,0.11-0.814,0.331s-0.373,0.524-0.475,0.911v4.5h-0.703v-6.34
		h0.621l0.082,1.049c0.148-0.367,0.345-0.653,0.589-0.858s0.53-0.308,0.858-0.308c0.074,0,0.148,0.007,0.223,0.021
		s0.133,0.028,0.176,0.044L53.96,296.191z"/>
	<path fill="#286BB1" d="M58.32,301.898c-0.035-0.219-0.062-0.398-0.079-0.539s-0.026-0.283-0.026-0.428
		c-0.191,0.316-0.44,0.577-0.747,0.782s-0.647,0.308-1.022,0.308c-0.523,0-0.928-0.163-1.213-0.489s-0.428-0.767-0.428-1.321
		c0-0.59,0.207-1.06,0.621-1.409s0.975-0.524,1.682-0.524h1.107v-0.779c0-0.449-0.113-0.801-0.34-1.055s-0.543-0.381-0.949-0.381
		c-0.379,0-0.69,0.121-0.935,0.363s-0.366,0.539-0.366,0.891l-0.656-0.006l-0.012-0.035c-0.02-0.477,0.161-0.901,0.542-1.274
		s0.868-0.56,1.462-0.56c0.586,0,1.059,0.179,1.418,0.536s0.539,0.868,0.539,1.532v3.111c0,0.227,0.01,0.445,0.029,0.656
		s0.055,0.418,0.105,0.621H58.32z M56.533,301.389c0.391,0,0.737-0.112,1.04-0.337s0.517-0.511,0.642-0.858v-1.371h-1.125
		c-0.48,0-0.864,0.136-1.151,0.407s-0.431,0.606-0.431,1.005c0,0.34,0.09,0.617,0.27,0.832S56.208,301.389,56.533,301.389z"/>
	<path fill="#286BB1" d="M60.294,298.787c0-1.016,0.178-1.827,0.533-2.435s0.854-0.911,1.494-0.911c0.348,0,0.651,0.082,0.911,0.246
		s0.478,0.396,0.653,0.697v-3.627h0.703v9.141h-0.621l-0.059-0.82c-0.176,0.305-0.396,0.538-0.662,0.7s-0.576,0.243-0.932,0.243
		c-0.633,0-1.128-0.282-1.485-0.847s-0.536-1.319-0.536-2.265V298.787z M61.009,298.91c0,0.762,0.12,1.366,0.36,1.813
		s0.606,0.671,1.099,0.671c0.344,0,0.632-0.094,0.864-0.281s0.417-0.449,0.554-0.785v-3.105c-0.129-0.34-0.309-0.616-0.539-0.829
		s-0.52-0.319-0.867-0.319c-0.496,0-0.865,0.25-1.107,0.75s-0.363,1.154-0.363,1.963V298.91z"/>
	<path fill="#286BB1" d="M73.566,299.42l0.018,0.035c-0.008,0.832-0.227,1.468-0.656,1.907s-1.021,0.659-1.775,0.659
		c-0.785,0-1.408-0.277-1.869-0.832s-0.691-1.346-0.691-2.373v-2.361c0-1.02,0.231-1.81,0.694-2.37s1.085-0.841,1.866-0.841
		c0.762,0,1.355,0.215,1.781,0.645s0.643,1.07,0.65,1.922l-0.018,0.035h-0.65c-0.02-0.676-0.176-1.175-0.469-1.497
		s-0.725-0.483-1.295-0.483c-0.586,0-1.043,0.221-1.371,0.663c-0.328,0.442-0.492,1.08-0.492,1.913v2.383
		c0,0.849,0.164,1.495,0.492,1.937s0.785,0.663,1.371,0.663c0.57,0,1.002-0.158,1.295-0.475c0.293-0.316,0.449-0.826,0.469-1.529
		H73.566z"/>
	<path fill="#286BB1" d="M74.673,298.266c0-0.82,0.211-1.496,0.633-2.027s0.988-0.797,1.699-0.797s1.278,0.265,1.702,0.794
		s0.636,1.206,0.636,2.03v0.932c0,0.832-0.211,1.511-0.633,2.036s-0.988,0.788-1.699,0.788c-0.715,0-1.283-0.263-1.705-0.788
		s-0.633-1.204-0.633-2.036V298.266z M75.382,299.204c0,0.634,0.141,1.163,0.422,1.585s0.684,0.634,1.207,0.634
		c0.512,0,0.91-0.212,1.195-0.637s0.428-0.952,0.428-1.583v-0.934c0-0.623-0.143-1.146-0.428-1.571s-0.686-0.637-1.201-0.637
		c-0.52,0-0.92,0.212-1.201,0.637s-0.422,0.948-0.422,1.571V299.204z"/>
	<path fill="#286BB1" d="M84.054,300.908c-0.168,0.355-0.391,0.63-0.668,0.823s-0.602,0.29-0.973,0.29
		c-0.563,0-1.001-0.226-1.315-0.677s-0.472-1.153-0.472-2.106v-3.68h0.703v3.691c0,0.77,0.101,1.319,0.302,1.649
		s0.493,0.495,0.876,0.495c0.402,0,0.729-0.108,0.981-0.325s0.433-0.515,0.542-0.894v-4.617h0.703v6.34h-0.633L84.054,300.908z"/>
	<path fill="#286BB1" d="M86.949,295.559l0.059,1.049c0.168-0.371,0.392-0.658,0.671-0.861s0.606-0.305,0.981-0.305
		c0.566,0,1.001,0.21,1.304,0.63s0.454,1.073,0.454,1.96v3.867h-0.709v-3.861c0-0.723-0.105-1.23-0.316-1.523
		s-0.518-0.439-0.92-0.439c-0.359,0-0.66,0.118-0.902,0.354s-0.424,0.552-0.545,0.946v4.523h-0.703v-6.34H86.949z"/>
	<path fill="#286BB1" d="M93.037,293.941v1.617h1.102v0.598h-1.102v4.109c0,0.41,0.059,0.7,0.176,0.872
		c0.117,0.171,0.271,0.257,0.463,0.257c0.094,0,0.186-0.006,0.275-0.018s0.191-0.029,0.305-0.053l0.094,0.539
		c-0.094,0.047-0.216,0.085-0.366,0.114s-0.302,0.044-0.454,0.044c-0.375,0-0.669-0.141-0.882-0.421s-0.319-0.726-0.319-1.334
		v-4.109h-0.879v-0.598h0.879v-1.617H93.037z"/>
	<path fill="#286BB1" d="M97.923,296.191l-0.463-0.035c-0.328,0-0.6,0.11-0.814,0.331s-0.373,0.524-0.475,0.911v4.5h-0.703v-6.34
		h0.621l0.082,1.049c0.148-0.367,0.345-0.653,0.589-0.858s0.53-0.308,0.858-0.308c0.074,0,0.148,0.007,0.223,0.021
		s0.133,0.028,0.176,0.044L97.923,296.191z"/>
	<path fill="#286BB1" d="M99.769,293.754H99.06v-0.996h0.709V293.754z M99.769,301.898H99.06v-6.34h0.709V301.898z"/>
	<path fill="#286BB1" d="M103.478,302.021c-0.684,0-1.242-0.257-1.676-0.771s-0.65-1.169-0.65-1.966v-1.055
		c0-0.801,0.218-1.466,0.653-1.995s0.96-0.794,1.573-0.794c0.664,0,1.18,0.236,1.547,0.709s0.551,1.108,0.551,1.906v0.695h-3.627
		v0.526c0,0.615,0.146,1.126,0.439,1.534s0.689,0.612,1.189,0.612c0.348,0,0.647-0.061,0.899-0.183s0.468-0.295,0.647-0.521
		l0.287,0.496c-0.191,0.245-0.438,0.44-0.741,0.586S103.904,302.021,103.478,302.021z M103.378,296.063
		c-0.441,0-0.804,0.201-1.087,0.604s-0.431,0.898-0.442,1.488h2.924v-0.27c0-0.523-0.123-0.958-0.369-1.304
		S103.816,296.063,103.378,296.063z"/>
	<path fill="#286BB1" d="M109.753,300.388c0-0.291-0.095-0.541-0.284-0.75c-0.189-0.21-0.536-0.431-1.04-0.663
		c-0.645-0.266-1.116-0.536-1.415-0.812s-0.448-0.636-0.448-1.081c0-0.453,0.178-0.84,0.533-1.16s0.816-0.48,1.383-0.48
		c0.602,0,1.078,0.178,1.43,0.533s0.52,0.799,0.504,1.33l-0.012,0.035h-0.662c0-0.344-0.113-0.643-0.34-0.896
		s-0.533-0.381-0.92-0.381c-0.395,0-0.695,0.1-0.902,0.299s-0.311,0.432-0.311,0.697c0,0.281,0.082,0.507,0.246,0.677
		s0.516,0.384,1.055,0.642c0.633,0.254,1.105,0.53,1.418,0.829s0.469,0.677,0.469,1.134c0,0.504-0.181,0.91-0.542,1.219
		s-0.839,0.463-1.433,0.463c-0.652,0-1.163-0.184-1.532-0.552c-0.369-0.368-0.544-0.805-0.524-1.312l0.012-0.035h0.656
		c0.023,0.456,0.17,0.786,0.439,0.992s0.586,0.309,0.949,0.309c0.395,0,0.705-0.1,0.932-0.3S109.753,300.678,109.753,300.388z"/>
</g>
</svg>
